<svg width="1024" height="1366" viewBox="0 0 1024 1366" fill="none" xmlns="http://www.w3.org/2000/svg">
<rect width="1024" height="1366" fill="#F94848"/>
<path d="M349.82 530.656V534.641H335.992V546.594H331.07V534.641H317.398V530.656H349.82ZM319 524.68C326.188 523.801 330.172 520.324 330.699 516.828H320.328V512.922H346.93V516.828H336.559C337.066 520.324 340.992 523.801 348.297 524.68L346.5 528.586C340.25 527.746 335.777 525.09 333.629 521.438C331.461 525.09 327.027 527.746 320.836 528.586L319 524.68ZM384.469 528.625V532.57H371.07V538.703H366.148V532.57H351.93V528.625H384.469ZM355.758 545.969V535.617H360.719V541.984H380.875V545.969H355.758ZM355.992 525.695V512.609H380.289V525.695H355.992ZM360.875 521.828H375.406V516.477H360.875V521.828ZM403.102 532.805C410.504 532.805 415.074 535.344 415.094 539.68C415.074 544.074 410.504 546.633 403.102 546.633C395.582 546.633 390.895 544.074 390.914 539.68C390.895 535.344 395.582 532.805 403.102 532.805ZM387.594 529.992V513.273H392.555V517.766H399.82V513.273H404.82V529.992H387.594ZM392.555 526.047H399.82V521.633H392.555V526.047ZM395.914 539.68C395.875 541.711 398.434 542.766 403.102 542.766C407.711 542.766 410.172 541.711 410.172 539.68C410.172 537.648 407.711 536.691 403.102 536.672C398.434 536.691 395.875 537.648 395.914 539.68ZM409.742 532.023V511.047H414.742V519.289H419.547V523.469H414.742V532.023H409.742ZM434.742 516.086C434.703 520.52 437.242 524.836 443.102 526.594L440.602 530.5C436.559 529.211 433.746 526.672 432.164 523.43C430.562 526.926 427.672 529.699 423.492 531.047L420.992 527.141C426.93 525.246 429.547 520.617 429.547 516.086V512.688H434.742V516.086ZM426.422 537.766V533.781H450.875V546.594H445.875V537.766H426.422ZM445.875 532.258V511.047H450.875V532.258H445.875ZM471.852 512.062C479.566 512.062 484.098 514.191 484.117 518.039C484.098 521.984 479.566 524.113 471.852 524.133C464.098 524.113 459.547 521.984 459.547 518.039C459.547 514.191 464.098 512.062 471.852 512.062ZM456.031 528.977V526.477H487.672V528.977H456.031ZM459.859 534.328V531.984H483.609V539.758H462.984V543.352H484.664V545.773H459.938V537.492H480.602V534.328H459.859ZM462.75 518.039C462.711 520.461 466.09 521.789 471.852 521.789C477.613 521.789 480.973 520.461 480.992 518.039C480.973 515.754 477.613 514.387 471.852 514.367C466.09 514.387 462.711 515.754 462.75 518.039ZM512.516 518C512.516 522.844 516.031 527.414 521.109 529.25L519.391 531.633C515.582 530.129 512.535 527.121 511.051 523.332C509.586 527.531 506.422 530.852 502.32 532.492L500.68 529.992C505.895 528.078 509.488 523.215 509.508 517.883V513.586H512.516V518ZM506.969 545.422V534.523H510.055V542.844H530.211V545.422H506.969ZM518.609 522.219V519.641H526.344V511.477H529.43V537.492H526.344V522.219H518.609ZM550.25 513.977V516.555H539.703V520.891H549.859V523.312H539.703V528.117C544.762 528.098 547.926 527.902 551.656 527.18L551.969 529.719C547.887 530.52 544.605 530.676 538.961 530.695H536.773V513.977H550.25ZM541.305 536.828V534.328H564.703V546.164H561.695V536.828H541.305ZM554.039 532.297V512.141H556.891V520.539H561.773V511.477H564.703V532.531H561.773V523.039H556.891V532.297H554.039ZM587.125 517.453V519.953H569.703V517.453H576.93V512.492H579.977V517.453H587.125ZM570.953 530.188C570.953 525.578 574.098 522.316 578.414 522.297C582.789 522.316 585.914 525.578 585.953 530.188C585.914 534.855 582.789 538.137 578.414 538.156C574.098 538.137 570.953 534.855 570.953 530.188ZM573.688 530.188C573.688 533.273 575.66 535.48 578.414 535.461C581.188 535.48 583.219 533.273 583.219 530.188C583.219 527.141 581.188 524.914 578.414 524.875C575.66 524.914 573.688 527.141 573.688 530.188ZM588.922 544.445V512.297H591.812V526.086H596.422V511.438H599.352V546.164H596.422V528.625H591.812V544.445H588.922ZM621.891 516.359C621.871 521.008 628.062 524.953 634.117 525.852L632.984 528.273C627.574 527.355 622.281 524.465 620.172 520.285C618.062 524.465 612.77 527.355 607.438 528.273L606.227 525.852C612.262 524.953 618.434 521.008 618.453 516.359V516.125H607.32V513.625H632.984V516.125H621.891V516.359ZM604.352 533.781V531.242H635.992V533.781H621.617V546.164H618.609V533.781H604.352ZM649.234 521.32C649.234 526.848 651.93 532.805 656.539 535.539L654.781 537.922C651.422 535.891 649.02 532.18 647.809 527.941C646.539 532.57 643.961 536.555 640.484 538.664L638.531 536.359C643.336 533.547 646.266 527.395 646.266 521.438V514.719H649.234V521.32ZM652.711 526.516V523.898H658.609V512.18H661.5V544.406H658.609V526.516H652.711ZM665.719 546.164V511.438H668.688V546.164H665.719ZM705.289 539.133V541.711H673.492V539.133H681.383V529.777C678.414 528.234 676.617 525.734 676.617 522.57C676.617 517.199 681.891 513.664 689.312 513.625C696.734 513.664 702.008 517.199 702.008 522.57C702.008 525.676 700.27 528.137 697.398 529.68V539.133H705.289ZM679.586 522.57C679.566 526.457 683.609 529.055 689.312 529.055C694.957 529.055 699.039 526.457 699.039 522.57C699.039 518.684 694.957 516.125 689.312 516.164C683.609 516.125 679.566 518.684 679.586 522.57ZM684.391 539.133H694.312V530.871C692.809 531.262 691.129 531.477 689.312 531.477C687.535 531.477 685.875 531.281 684.391 530.891V539.133Z" fill="white"/>
<rect x="14" y="14" width="997" height="1337" stroke="black" stroke-width="10"/>
<rect x="33.5" y="35.5" width="955" height="1294" stroke="black" stroke-width="3"/>
<rect x="311" y="176.577" width="401" height="125.423" fill="black"/>
<rect x="324.866" y="190.443" width="373.269" height="95.9251" stroke="white" stroke-width="3"/>
<path d="M397.653 234.196C399.573 234.196 401.173 234.062 402.453 233.796C403.733 233.476 404.746 233.049 405.493 232.516C406.24 231.982 406.773 231.369 407.093 230.676C407.413 229.929 407.573 229.129 407.573 228.276C407.573 227.422 407.413 226.649 407.093 225.956C406.773 225.209 406.24 224.569 405.493 224.036C404.746 223.502 403.733 223.102 402.453 222.836C401.173 222.516 399.573 222.356 397.653 222.356H383.813V234.196H397.653ZM399.733 215.476C402.293 215.476 404.613 215.716 406.693 216.196C408.773 216.622 410.56 217.342 412.053 218.356C413.546 219.316 414.693 220.596 415.493 222.196C416.293 223.742 416.693 225.662 416.693 227.956C416.693 231.476 415.653 234.169 413.573 236.036C411.493 237.902 408.693 239.156 405.173 239.796L415.813 254.996C416.186 255.529 416.613 255.849 417.093 255.956C417.626 256.062 418.106 256.116 418.533 256.116V257.556H403.573V256.116C404.053 256.116 404.453 256.036 404.773 255.876C405.146 255.716 405.333 255.502 405.333 255.236C405.333 254.969 405.226 254.676 405.013 254.356C404.8 253.982 404.48 253.502 404.053 252.916L395.253 240.436H383.813V254.676C383.813 255.156 383.973 255.529 384.293 255.796C384.666 256.009 385.306 256.116 386.213 256.116V257.556H372.373V256.116C373.92 256.116 374.693 255.636 374.693 254.676V218.356C374.693 217.396 373.92 216.916 372.373 216.916V215.476H399.733ZM461.147 229.796C461.147 228.782 460.321 228.276 458.667 228.276H439.147V236.276H451.467C452.374 236.276 453.041 236.222 453.467 236.116C453.894 235.956 454.107 235.582 454.107 234.996H455.547V243.476H453.947C454.107 242.889 453.894 242.542 453.307 242.436C452.721 242.276 451.894 242.196 450.827 242.196H439.147V251.636H459.627C460.267 251.636 460.801 251.502 461.227 251.236C461.654 250.916 461.867 250.516 461.867 250.036H463.307V258.436H461.867C461.867 257.956 461.654 257.689 461.227 257.636C460.801 257.582 460.267 257.556 459.627 257.556H430.267V256.116C430.534 256.116 430.801 256.036 431.067 255.876C431.334 255.662 431.467 255.342 431.467 254.916V224.996C431.467 224.569 431.334 224.276 431.067 224.116C430.801 223.902 430.534 223.796 430.267 223.796V222.356H458.667C460.321 222.356 461.147 221.876 461.147 220.916H462.587V229.796H461.147ZM502.48 232.436C502.48 232.329 502.454 232.222 502.4 232.116C502.4 232.009 502.4 231.876 502.4 231.716C502.4 231.449 502.134 231.102 501.6 230.676C501.067 230.196 500.294 229.742 499.28 229.316C498.32 228.889 497.174 228.542 495.84 228.276C494.507 227.956 493.04 227.796 491.44 227.796C489.52 227.796 487.76 228.062 486.16 228.596C484.614 229.076 483.254 229.822 482.08 230.836C480.907 231.849 480 233.102 479.36 234.596C478.72 236.089 478.4 237.796 478.4 239.716C478.4 241.636 478.747 243.369 479.44 244.916C480.187 246.409 481.147 247.716 482.32 248.836C483.494 249.902 484.827 250.729 486.32 251.316C487.814 251.849 489.334 252.116 490.88 252.116C492.32 252.116 493.787 251.929 495.28 251.556C496.774 251.182 498.134 250.756 499.36 250.276C500.587 249.742 501.574 249.182 502.32 248.596C503.12 248.009 503.52 247.476 503.52 246.996V246.356C503.52 246.036 503.494 245.769 503.44 245.556L504.32 244.756L510.24 253.236L509.44 253.636C508.8 253.369 508.347 253.236 508.08 253.236C507.654 253.236 506.96 253.476 506 253.956C505.04 254.436 503.814 254.996 502.32 255.636C500.88 256.222 499.174 256.729 497.2 257.156C495.28 257.582 493.12 257.796 490.72 257.796C488.267 257.796 485.84 257.449 483.44 256.756C481.04 256.062 478.907 254.969 477.04 253.476C475.174 251.929 473.654 250.036 472.48 247.796C471.307 245.502 470.72 242.862 470.72 239.876C470.72 236.889 471.307 234.276 472.48 232.036C473.654 229.796 475.2 227.929 477.12 226.436C479.04 224.889 481.227 223.742 483.68 222.996C486.187 222.249 488.747 221.876 491.36 221.876C493.387 221.876 495.227 222.062 496.88 222.436C498.587 222.809 500.08 223.236 501.36 223.716C502.64 224.196 503.707 224.622 504.56 224.996C505.414 225.369 506.027 225.556 506.4 225.556C506.667 225.556 506.88 225.476 507.04 225.316C507.254 225.156 507.467 225.022 507.68 224.916L508.64 225.476L503.36 233.076L502.48 232.436ZM537.013 227.796C535.307 227.796 533.627 228.089 531.973 228.676C530.373 229.209 528.933 230.009 527.653 231.076C526.373 232.089 525.333 233.342 524.533 234.836C523.787 236.329 523.413 238.036 523.413 239.956C523.413 241.876 523.787 243.582 524.533 245.076C525.333 246.569 526.373 247.849 527.653 248.916C528.933 249.929 530.373 250.729 531.973 251.316C533.627 251.849 535.307 252.116 537.013 252.116C538.72 252.116 540.373 251.849 541.973 251.316C543.627 250.729 545.093 249.929 546.373 248.916C547.653 247.849 548.667 246.569 549.413 245.076C550.213 243.582 550.613 241.876 550.613 239.956C550.613 238.036 550.213 236.329 549.413 234.836C548.667 233.342 547.653 232.089 546.373 231.076C545.093 230.009 543.627 229.209 541.973 228.676C540.373 228.089 538.72 227.796 537.013 227.796ZM537.013 221.876C539.947 221.876 542.693 222.249 545.253 222.996C547.867 223.742 550.133 224.862 552.053 226.356C553.973 227.849 555.493 229.742 556.613 232.036C557.733 234.276 558.293 236.916 558.293 239.956C558.293 242.996 557.733 245.662 556.613 247.956C555.493 250.196 553.973 252.062 552.053 253.556C550.133 255.049 547.867 256.142 545.253 256.836C542.693 257.476 539.947 257.796 537.013 257.796C534.08 257.796 531.307 257.476 528.693 256.836C526.133 256.142 523.893 255.049 521.973 253.556C520.053 252.062 518.533 250.196 517.413 247.956C516.293 245.662 515.733 242.996 515.733 239.956C515.733 236.916 516.293 234.276 517.413 232.036C518.533 229.742 520.053 227.849 521.973 226.356C523.893 224.862 526.133 223.742 528.693 222.996C531.307 222.249 534.08 221.876 537.013 221.876ZM570.4 245.316C570.4 245.529 570.373 245.769 570.32 246.036C570.32 246.249 570.32 246.489 570.32 246.756C570.32 247.556 570.826 248.302 571.84 248.996C572.853 249.636 574.053 250.196 575.44 250.676C576.88 251.102 578.293 251.449 579.68 251.716C581.12 251.982 582.24 252.116 583.04 252.116C583.786 252.116 584.693 252.062 585.76 251.956C586.88 251.849 587.973 251.636 589.04 251.316C590.106 250.942 591.013 250.462 591.76 249.876C592.506 249.236 592.88 248.409 592.88 247.396C592.88 246.222 592.213 245.369 590.88 244.836C589.6 244.302 587.973 243.902 586 243.636C584.026 243.316 581.893 243.022 579.6 242.756C577.306 242.436 575.173 241.956 573.2 241.316C571.226 240.622 569.573 239.662 568.24 238.436C566.96 237.156 566.32 235.369 566.32 233.076C566.32 229.662 567.733 226.942 570.56 224.916C573.386 222.889 577.36 221.876 582.48 221.876C584.986 221.876 587.12 222.089 588.88 222.516C590.693 222.889 592.213 223.316 593.44 223.796C594.666 224.276 595.653 224.729 596.4 225.156C597.2 225.529 597.786 225.716 598.16 225.716C598.586 225.716 598.906 225.662 599.12 225.556C599.333 225.396 599.6 225.236 599.92 225.076L600.8 225.956L596.8 233.476L595.36 232.996C595.306 232.676 595.253 232.356 595.2 232.036C595.146 231.716 594.906 231.396 594.48 231.076C593.413 230.169 591.76 229.396 589.52 228.756C587.28 228.116 584.773 227.796 582 227.796C580.933 227.796 579.92 227.876 578.96 228.036C578 228.142 577.146 228.356 576.4 228.676C575.653 228.996 575.066 229.422 574.64 229.956C574.213 230.436 574 231.049 574 231.796C574 232.969 574.64 233.822 575.92 234.356C577.253 234.836 578.906 235.236 580.88 235.556C582.853 235.822 584.986 236.116 587.28 236.436C589.573 236.702 591.706 237.182 593.68 237.876C595.653 238.569 597.28 239.582 598.56 240.916C599.893 242.249 600.56 244.089 600.56 246.436C600.56 248.782 599.973 250.702 598.8 252.196C597.68 253.689 596.266 254.862 594.56 255.716C592.853 256.569 590.96 257.129 588.88 257.396C586.853 257.662 584.933 257.796 583.12 257.796C581.306 257.796 579.493 257.636 577.68 257.316C575.92 256.942 574.293 256.542 572.8 256.116C571.36 255.636 570.133 255.209 569.12 254.836C568.106 254.409 567.493 254.196 567.28 254.196C566.906 254.196 566.586 254.356 566.32 254.676L565.2 253.876L568.88 244.916L570.4 245.316ZM620.853 254.916C620.853 255.716 621.36 256.116 622.373 256.116V257.556H611.893V256.116C612.746 256.116 613.173 255.716 613.173 254.916V224.996C613.173 224.196 612.746 223.796 611.893 223.796V222.356H622.373V223.796C621.36 223.796 620.853 224.196 620.853 224.996V238.036C622.666 236.542 624.533 235.049 626.453 233.556C628.373 232.009 630.106 230.596 631.653 229.316C633.2 228.036 634.48 226.969 635.493 226.116C636.506 225.209 637.013 224.649 637.013 224.436C637.013 224.169 636.853 223.956 636.533 223.796C636.266 223.636 636 223.556 635.733 223.556V222.356H648.933V223.796C648.293 224.009 647.333 224.622 646.053 225.636L632.693 236.436L645.333 252.116C645.973 252.916 646.666 253.742 647.413 254.596C648.16 255.396 648.906 255.902 649.653 256.116V257.556H637.813V256.116C638.4 256.116 638.693 255.956 638.693 255.636C638.693 255.422 638.56 255.129 638.293 254.756C638.08 254.382 637.626 253.796 636.933 252.996L627.093 240.996L620.853 245.956V254.916Z" fill="white"/>
</svg>
