<svg width="1024" height="1366" viewBox="0 0 1024 1366" fill="none" xmlns="http://www.w3.org/2000/svg">
<rect width="512" height="683" fill="#484848"/>
<rect y="683" width="512" height="683" fill="#F94848"/>
<rect x="512" width="512" height="683" fill="#F94848"/>
<rect x="512" y="683" width="512" height="683" fill="#484848"/>
<path d="M271.805 394.438V405.023H277.039V407.602H271.805V420.062H268.758V394.438H271.805ZM245.32 405.453C245.301 400.414 249.246 396.918 254.422 396.898C259.637 396.918 263.523 400.414 263.562 405.453C263.523 410.473 259.637 414.008 254.422 414.008C249.246 414.008 245.301 410.473 245.32 405.453ZM248.328 405.453C248.309 408.871 250.984 411.312 254.422 411.312C257.918 411.312 260.535 408.871 260.555 405.453C260.535 402.016 257.918 399.594 254.422 399.594C250.984 399.594 248.309 402.016 248.328 405.453ZM250.086 428.422V417.406H253.094V425.844H273.406V428.422H250.086ZM284.422 396.586V410.805C290.32 410.824 294.48 410.57 299.266 409.555L299.656 412.094C294.617 413.129 290.242 413.402 283.953 413.383H281.297V396.586H284.422ZM284.852 422.641C284.832 418.48 289.266 416.059 296.492 416.039C303.699 416.059 308.133 418.48 308.133 422.641C308.133 426.742 303.699 429.125 296.492 429.164C289.266 429.125 284.832 426.742 284.852 422.641ZM287.898 422.641C287.879 425.141 291.16 426.664 296.492 426.664C301.805 426.664 305.086 425.141 305.086 422.641C305.086 420.062 301.805 418.52 296.492 418.5C291.16 418.52 287.879 420.062 287.898 422.641ZM294.969 407.172V404.75H304.93V401.039H294.969V398.578H304.93V394.438H308.016V415.766H304.93V407.172H294.969ZM340.672 394.438V408.773H346.492V411.312H340.672V429.164H337.625V394.438H340.672ZM313.602 402.562V400.023H322.547V394.867H325.594V400.023H334.266V402.562H313.602ZM315.594 413.422C315.574 408.734 319.168 405.453 324.109 405.453C329.012 405.453 332.586 408.734 332.625 413.422C332.586 418.129 329.012 421.391 324.109 421.391C319.168 421.391 315.574 418.129 315.594 413.422ZM318.523 413.422C318.504 416.586 320.867 418.812 324.109 418.773C327.312 418.812 329.656 416.586 329.695 413.422C329.656 410.277 327.312 408.012 324.109 408.031C320.867 408.012 318.504 410.277 318.523 413.422ZM358.68 404.32C358.68 409.848 361.375 415.805 365.984 418.539L364.227 420.922C360.867 418.891 358.465 415.18 357.254 410.941C355.984 415.57 353.406 419.555 349.93 421.664L347.977 419.359C352.781 416.547 355.711 410.395 355.711 404.438V397.719H358.68V404.32ZM362.156 409.516V406.898H368.055V395.18H370.945V427.406H368.055V409.516H362.156ZM375.164 429.164V394.438H378.133V429.164H375.164ZM414.734 422.133V424.711H382.938V422.133H390.828V412.777C387.859 411.234 386.062 408.734 386.062 405.57C386.062 400.199 391.336 396.664 398.758 396.625C406.18 396.664 411.453 400.199 411.453 405.57C411.453 408.676 409.715 411.137 406.844 412.68V422.133H414.734ZM389.031 405.57C389.012 409.457 393.055 412.055 398.758 412.055C404.402 412.055 408.484 409.457 408.484 405.57C408.484 401.684 404.402 399.125 398.758 399.164C393.055 399.125 389.012 401.684 389.031 405.57ZM393.836 422.133H403.758V413.871C402.254 414.262 400.574 414.477 398.758 414.477C396.98 414.477 395.32 414.281 393.836 413.891V422.133ZM457 394.047V429.672H452.039V394.047H457ZM429.07 401.039V397.016H445.984V410.727H434.266V417.25C439.695 417.211 444.285 416.938 449.5 416.078L449.93 420.102C444.09 421.137 438.797 421.352 432.312 421.352H429.109V406.781H440.906V401.039H429.07ZM490.945 397.016V400.18C490.926 404.457 491.004 409.496 489.344 417.172L484.461 416.664C485.047 413.969 485.418 411.566 485.652 409.398L465.008 410.57L464.305 406.312L485.945 405.609C486.043 403.93 486.043 402.406 486.062 401H465.477V397.016H490.945ZM461.766 425.492V421.43H473.367V412.836H478.328V421.43H494.188V425.492H461.766ZM515.047 398.734C515.027 403.949 519.656 409.516 527.703 410.883L525.516 415.023C519.305 413.793 514.715 410.297 512.41 405.746C510.066 410.258 505.457 413.773 499.305 415.023L497.156 410.883C505.066 409.477 509.695 403.891 509.734 398.734V396.156H515.047V398.734ZM496.336 425.219V421.117H528.875V425.219H496.336ZM560.008 397.172V401.312C559.988 406.488 559.988 411.41 558.367 419.125L553.406 418.656C554.109 415.707 554.52 413.09 554.773 410.688L534.148 411.703L533.523 407.719L555.027 406.938C555.105 404.984 555.125 403.148 555.125 401.312V401.156H534.617V397.172H560.008ZM530.906 425.336V421.273H563.328V425.336H530.906ZM588.016 411.078C587.762 409.594 586.473 408.637 584.539 408.617C582.664 408.637 581.238 409.516 581.258 410.805C581.238 411.762 581.98 412.504 583.992 412.914L587.781 413.695C591.902 414.555 593.895 416.391 593.914 419.438C593.895 423.617 590.145 426.41 584.5 426.43C578.777 426.41 575.418 423.852 574.93 419.711H580.75C581.023 421.371 582.371 422.23 584.5 422.25C586.609 422.23 588.016 421.391 588.016 420.023C588.016 418.93 587.117 418.246 585.125 417.836L581.609 417.133C577.566 416.332 575.496 414.262 575.516 411.117C575.496 407.055 578.992 404.516 584.461 404.516C589.812 404.516 593.133 407.055 593.445 411.078H588.016ZM597.469 426V397.719H603.25V412.914H603.562L610.438 404.789H617.078L609.168 413.969L617.508 426H610.711L604.871 417.367L603.25 419.203V426H597.469ZM630.945 404.789V409.125H626.961V419.477C626.941 421.176 627.781 421.586 628.953 421.625C629.539 421.625 630.555 421.566 631.258 421.508V426.078C630.633 426.176 629.598 426.293 628.172 426.273C623.992 426.293 621.141 424.418 621.18 420.297V409.125H618.25V404.789H621.18V399.711H626.961V404.789H630.945ZM663.328 394.047V414.594H658.367V406.312H652.742V402.25H658.367V394.047H663.328ZM633.172 410.727C638.934 408.871 641.59 404.34 641.727 399.867H634.578V395.844H653.875V399.867H646.805C646.863 403.93 649.422 408.207 654.969 410.062L652.508 414.008C648.562 412.719 645.848 410.121 644.305 406.918C642.742 410.473 639.891 413.305 635.711 414.633L633.172 410.727ZM639.422 429.203V416.078H663.328V429.203H639.422ZM644.422 425.219H658.445V419.984H644.422V425.219ZM696.961 394.438V413.07H693.914V394.438H696.961ZM669.109 404.125C669.09 399.379 672.938 396.117 678.211 396.156C683.484 396.117 687.293 399.379 687.312 404.125C687.293 408.852 683.484 412.113 678.211 412.094C672.938 412.113 669.09 408.852 669.109 404.125ZM672.117 404.125C672.078 407.289 674.637 409.535 678.211 409.555C681.746 409.535 684.305 407.289 684.305 404.125C684.305 400.941 681.746 398.715 678.211 398.734C674.637 398.715 672.078 400.941 672.117 404.125ZM674.461 428.695V414.828H677.508V419.047H693.914V414.828H696.961V428.695H674.461ZM677.508 426.195H693.914V421.508H677.508V426.195ZM731.492 394.438V429.164H728.445V394.438H731.492ZM705.125 420.219V397.875H708.133V417.562C713.445 417.523 718.914 417.113 724.734 415.883L725.164 418.5C718.992 419.789 713.504 420.219 707.938 420.219H705.125ZM764.305 394.438V408.188H770.125V410.766H764.305V429.242H761.258V394.438H764.305ZM738.953 420.531V397.836H755.164V400.375H742V417.953C748.289 417.934 752.723 417.66 757.898 416.703L758.289 419.359C752.84 420.336 748.289 420.531 741.688 420.531H738.953ZM775.672 426.234C774.305 426.215 773.133 425.082 773.172 423.695C773.133 422.328 774.305 421.195 775.672 421.195C777.059 421.195 778.191 422.328 778.172 423.695C778.191 425.082 777.059 426.215 775.672 426.234Z" fill="white"/>
<path d="M428.234 865.359C428.215 870.008 434.406 873.953 440.461 874.852L439.328 877.273C433.918 876.355 428.625 873.465 426.516 869.285C424.406 873.465 419.113 876.355 413.781 877.273L412.57 874.852C418.605 873.953 424.777 870.008 424.797 865.359V865.125H413.664V862.625H439.328V865.125H428.234V865.359ZM410.695 882.781V880.242H442.336V882.781H427.961V895.164H424.953V882.781H410.695ZM477.023 878.211V880.75H462.883V887.859H459.836V880.75H445.227V878.211H477.023ZM449.289 894.422V884.422H452.375V891.844H473.469V894.422H449.289ZM449.367 874.227V862.156H472.883V874.227H449.367ZM452.375 871.766H469.836V864.578H452.375V871.766ZM492.18 869.773C492.16 876.121 496.477 882.488 501.594 884.812L499.719 887.234C495.754 885.32 492.336 881.199 490.676 876.258C489.074 881.492 485.656 885.887 481.594 887.938L479.641 885.359C484.816 882.996 489.094 876.355 489.133 869.773V863.445H492.18V869.773ZM505.383 895.242V860.438H508.469V895.242H505.383ZM526.164 866.883C526.184 871.512 529.582 875.73 534.719 877.508L533.156 879.891C529.191 878.484 526.164 875.652 524.68 872.059C523.195 876.004 520.012 879.07 515.93 880.555L514.289 878.172C519.484 876.336 523.117 871.863 523.156 866.883V865.398H515.227V862.898H533.977V865.398H526.164V866.883ZM518.82 885.711V883.211H541.555V895.164H538.508V885.711H518.82ZM538.508 881.375V860.438H541.555V869.617H546.789V872.234H541.555V881.375H538.508ZM575.852 860.438V874.773H581.672V877.312H575.852V895.164H572.805V860.438H575.852ZM548.781 868.562V866.023H557.727V860.867H560.773V866.023H569.445V868.562H548.781ZM550.773 879.422C550.754 874.734 554.348 871.453 559.289 871.453C564.191 871.453 567.766 874.734 567.805 879.422C567.766 884.129 564.191 887.391 559.289 887.391C554.348 887.391 550.754 884.129 550.773 879.422ZM553.703 879.422C553.684 882.586 556.047 884.812 559.289 884.773C562.492 884.812 564.836 882.586 564.875 879.422C564.836 876.277 562.492 874.012 559.289 874.031C556.047 874.012 553.684 876.277 553.703 879.422ZM612.258 860.438V895.164H609.172V860.438H612.258ZM583.977 886.141C593.371 881.688 598.176 875.027 598.859 866.727H585.578V864.227H601.984C601.945 874.207 597.297 883.055 585.656 888.641L583.977 886.141Z" fill="white"/>
<rect x="269" y="211" width="485.972" height="152" fill="black"/>
<rect x="285.486" y="227.486" width="453" height="116.887" stroke="white" stroke-width="3"/>
<path d="M369.803 281.8C372.203 281.8 374.203 281.633 375.803 281.3C377.403 280.9 378.669 280.367 379.603 279.7C380.536 279.033 381.203 278.267 381.603 277.4C382.003 276.467 382.203 275.467 382.203 274.4C382.203 273.333 382.003 272.367 381.603 271.5C381.203 270.567 380.536 269.767 379.603 269.1C378.669 268.433 377.403 267.933 375.803 267.6C374.203 267.2 372.203 267 369.803 267H352.503V281.8H369.803ZM372.403 258.4C375.603 258.4 378.503 258.7 381.103 259.3C383.703 259.833 385.936 260.733 387.803 262C389.669 263.2 391.103 264.8 392.103 266.8C393.103 268.733 393.603 271.133 393.603 274C393.603 278.4 392.303 281.767 389.703 284.1C387.103 286.433 383.603 288 379.203 288.8L392.503 307.8C392.969 308.467 393.503 308.867 394.103 309C394.769 309.133 395.369 309.2 395.903 309.2V311H377.203V309.2C377.803 309.2 378.303 309.1 378.703 308.9C379.169 308.7 379.403 308.433 379.403 308.1C379.403 307.767 379.269 307.4 379.003 307C378.736 306.533 378.336 305.933 377.803 305.2L366.803 289.6H352.503V307.4C352.503 308 352.703 308.467 353.103 308.8C353.569 309.067 354.369 309.2 355.503 309.2V311H338.203V309.2C340.136 309.2 341.103 308.6 341.103 307.4V262C341.103 260.8 340.136 260.2 338.203 260.2V258.4H372.403ZM449.171 276.3C449.171 275.033 448.137 274.4 446.071 274.4H421.671V284.4H437.071C438.204 284.4 439.037 284.333 439.571 284.2C440.104 284 440.371 283.533 440.371 282.8H442.171V293.4H440.171C440.371 292.667 440.104 292.233 439.371 292.1C438.637 291.9 437.604 291.8 436.271 291.8H421.671V303.6H447.271C448.071 303.6 448.737 303.433 449.271 303.1C449.804 302.7 450.071 302.2 450.071 301.6H451.871V312.1H450.071C450.071 311.5 449.804 311.167 449.271 311.1C448.737 311.033 448.071 311 447.271 311H410.571V309.2C410.904 309.2 411.237 309.1 411.571 308.9C411.904 308.633 412.071 308.233 412.071 307.7V270.3C412.071 269.767 411.904 269.4 411.571 269.2C411.237 268.933 410.904 268.8 410.571 268.8V267H446.071C448.137 267 449.171 266.4 449.171 265.2H450.971V276.3H449.171ZM500.837 279.6C500.837 279.467 500.804 279.333 500.737 279.2C500.737 279.067 500.737 278.9 500.737 278.7C500.737 278.367 500.404 277.933 499.737 277.4C499.07 276.8 498.104 276.233 496.837 275.7C495.637 275.167 494.204 274.733 492.537 274.4C490.87 274 489.037 273.8 487.037 273.8C484.637 273.8 482.437 274.133 480.437 274.8C478.504 275.4 476.804 276.333 475.337 277.6C473.87 278.867 472.737 280.433 471.937 282.3C471.137 284.167 470.737 286.3 470.737 288.7C470.737 291.1 471.17 293.267 472.037 295.2C472.97 297.067 474.17 298.7 475.637 300.1C477.104 301.433 478.77 302.467 480.637 303.2C482.504 303.867 484.404 304.2 486.337 304.2C488.137 304.2 489.97 303.967 491.837 303.5C493.704 303.033 495.404 302.5 496.937 301.9C498.47 301.233 499.704 300.533 500.637 299.8C501.637 299.067 502.137 298.4 502.137 297.8V297C502.137 296.6 502.104 296.267 502.037 296L503.137 295L510.537 305.6L509.537 306.1C508.737 305.767 508.17 305.6 507.837 305.6C507.304 305.6 506.437 305.9 505.237 306.5C504.037 307.1 502.504 307.8 500.637 308.6C498.837 309.333 496.704 309.967 494.237 310.5C491.837 311.033 489.137 311.3 486.137 311.3C483.07 311.3 480.037 310.867 477.037 310C474.037 309.133 471.37 307.767 469.037 305.9C466.704 303.967 464.804 301.6 463.337 298.8C461.87 295.933 461.137 292.633 461.137 288.9C461.137 285.167 461.87 281.9 463.337 279.1C464.804 276.3 466.737 273.967 469.137 272.1C471.537 270.167 474.27 268.733 477.337 267.8C480.47 266.867 483.67 266.4 486.937 266.4C489.47 266.4 491.77 266.633 493.837 267.1C495.97 267.567 497.837 268.1 499.437 268.7C501.037 269.3 502.37 269.833 503.437 270.3C504.504 270.767 505.27 271 505.737 271C506.07 271 506.337 270.9 506.537 270.7C506.804 270.5 507.07 270.333 507.337 270.2L508.537 270.9L501.937 280.4L500.837 279.6ZM544.003 273.8C541.87 273.8 539.77 274.167 537.703 274.9C535.703 275.567 533.903 276.567 532.303 277.9C530.703 279.167 529.403 280.733 528.403 282.6C527.47 284.467 527.003 286.6 527.003 289C527.003 291.4 527.47 293.533 528.403 295.4C529.403 297.267 530.703 298.867 532.303 300.2C533.903 301.467 535.703 302.467 537.703 303.2C539.77 303.867 541.87 304.2 544.003 304.2C546.137 304.2 548.203 303.867 550.203 303.2C552.27 302.467 554.103 301.467 555.703 300.2C557.303 298.867 558.57 297.267 559.503 295.4C560.503 293.533 561.003 291.4 561.003 289C561.003 286.6 560.503 284.467 559.503 282.6C558.57 280.733 557.303 279.167 555.703 277.9C554.103 276.567 552.27 275.567 550.203 274.9C548.203 274.167 546.137 273.8 544.003 273.8ZM544.003 266.4C547.67 266.4 551.103 266.867 554.303 267.8C557.57 268.733 560.403 270.133 562.803 272C565.203 273.867 567.103 276.233 568.503 279.1C569.903 281.9 570.603 285.2 570.603 289C570.603 292.8 569.903 296.133 568.503 299C567.103 301.8 565.203 304.133 562.803 306C560.403 307.867 557.57 309.233 554.303 310.1C551.103 310.9 547.67 311.3 544.003 311.3C540.337 311.3 536.87 310.9 533.603 310.1C530.403 309.233 527.603 307.867 525.203 306C522.803 304.133 520.903 301.8 519.503 299C518.103 296.133 517.403 292.8 517.403 289C517.403 285.2 518.103 281.9 519.503 279.1C520.903 276.233 522.803 273.867 525.203 272C527.603 270.133 530.403 268.733 533.603 267.8C536.87 266.867 540.337 266.4 544.003 266.4ZM585.736 295.7C585.736 295.967 585.703 296.267 585.636 296.6C585.636 296.867 585.636 297.167 585.636 297.5C585.636 298.5 586.27 299.433 587.536 300.3C588.803 301.1 590.303 301.8 592.036 302.4C593.836 302.933 595.603 303.367 597.336 303.7C599.136 304.033 600.536 304.2 601.536 304.2C602.47 304.2 603.603 304.133 604.936 304C606.336 303.867 607.703 303.6 609.036 303.2C610.37 302.733 611.503 302.133 612.436 301.4C613.37 300.6 613.836 299.567 613.836 298.3C613.836 296.833 613.003 295.767 611.336 295.1C609.736 294.433 607.703 293.933 605.236 293.6C602.77 293.2 600.103 292.833 597.236 292.5C594.37 292.1 591.703 291.5 589.236 290.7C586.77 289.833 584.703 288.633 583.036 287.1C581.436 285.5 580.636 283.267 580.636 280.4C580.636 276.133 582.403 272.733 585.936 270.2C589.47 267.667 594.436 266.4 600.836 266.4C603.97 266.4 606.636 266.667 608.836 267.2C611.103 267.667 613.003 268.2 614.536 268.8C616.07 269.4 617.303 269.967 618.236 270.5C619.236 270.967 619.97 271.2 620.436 271.2C620.97 271.2 621.37 271.133 621.636 271C621.903 270.8 622.236 270.6 622.636 270.4L623.736 271.5L618.736 280.9L616.936 280.3C616.87 279.9 616.803 279.5 616.736 279.1C616.67 278.7 616.37 278.3 615.836 277.9C614.503 276.767 612.436 275.8 609.636 275C606.836 274.2 603.703 273.8 600.236 273.8C598.903 273.8 597.636 273.9 596.436 274.1C595.236 274.233 594.17 274.5 593.236 274.9C592.303 275.3 591.57 275.833 591.036 276.5C590.503 277.1 590.236 277.867 590.236 278.8C590.236 280.267 591.036 281.333 592.636 282C594.303 282.6 596.37 283.1 598.836 283.5C601.303 283.833 603.97 284.2 606.836 284.6C609.703 284.933 612.37 285.533 614.836 286.4C617.303 287.267 619.336 288.533 620.936 290.2C622.603 291.867 623.436 294.167 623.436 297.1C623.436 300.033 622.703 302.433 621.236 304.3C619.836 306.167 618.07 307.633 615.936 308.7C613.803 309.767 611.436 310.467 608.836 310.8C606.303 311.133 603.903 311.3 601.636 311.3C599.37 311.3 597.103 311.1 594.836 310.7C592.636 310.233 590.603 309.733 588.736 309.2C586.936 308.6 585.403 308.067 584.136 307.6C582.87 307.067 582.103 306.8 581.836 306.8C581.37 306.8 580.97 307 580.636 307.4L579.236 306.4L583.836 295.2L585.736 295.7ZM648.803 307.7C648.803 308.7 649.436 309.2 650.703 309.2V311H637.603V309.2C638.669 309.2 639.203 308.7 639.203 307.7V270.3C639.203 269.3 638.669 268.8 637.603 268.8V267H650.703V268.8C649.436 268.8 648.803 269.3 648.803 270.3V286.6C651.069 284.733 653.403 282.867 655.803 281C658.203 279.067 660.369 277.3 662.303 275.7C664.236 274.1 665.836 272.767 667.103 271.7C668.369 270.567 669.003 269.867 669.003 269.6C669.003 269.267 668.803 269 668.403 268.8C668.069 268.6 667.736 268.5 667.403 268.5V267H683.903V268.8C683.103 269.067 681.903 269.833 680.303 271.1L663.603 284.6L679.403 304.2C680.203 305.2 681.069 306.233 682.003 307.3C682.936 308.3 683.869 308.933 684.803 309.2V311H670.003V309.2C670.736 309.2 671.103 309 671.103 308.6C671.103 308.333 670.936 307.967 670.603 307.5C670.336 307.033 669.769 306.3 668.903 305.3L656.603 290.3L648.803 296.5V307.7Z" fill="white"/>
</svg>
