<svg width="843" height="669" viewBox="0 0 843 669" fill="none" xmlns="http://www.w3.org/2000/svg">
<g filter="url(#filter0_d_289_951)">
<path d="M69.825 246.831C72.5957 248.5 75.6244 249.897 78.7651 250.973C99.372 258.054 120.271 250.398 140.303 244.913C193.316 230.396 250.695 211.119 292.859 174.541C297.207 170.769 301.375 166.788 305.246 162.529C365.212 96.556 85.8596 165.6 58.9275 213.815C51.049 227.924 58.202 239.823 69.825 246.831Z" fill="#E3E4FE"/>
<mask id="mask0_289_951" style="mask-type:luminance" maskUnits="userSpaceOnUse" x="4" y="1" width="835" height="660">
<path d="M820.122 382.953C815.525 396.828 810.125 410.042 804.004 422.622C803.98 422.676 803.956 422.724 803.931 422.773C796.35 438.337 787.658 452.932 777.983 466.613C771.526 475.747 764.631 484.469 757.342 492.81C755.277 495.171 753.179 497.507 751.051 499.804C741.322 510.326 730.94 520.19 720.004 529.447C714.906 533.769 709.686 537.954 704.344 542.003C699.811 545.449 695.2 548.797 690.515 552.053C685.037 555.864 679.457 559.543 673.78 563.1C668.263 566.57 662.648 569.919 656.961 573.15C650.217 576.99 643.361 580.669 636.398 584.198C629.532 587.682 622.564 591.016 615.509 594.209C606.671 598.209 597.702 601.986 588.625 605.553C587.554 605.971 586.478 606.39 585.406 606.804C571.3 612.254 556.931 617.199 542.396 621.672C534.975 623.959 527.506 626.12 520.007 628.169C406.591 659.121 286.163 663.292 201.564 658.284C146.502 655.028 96.7083 639.484 58.9615 597.888C25.9281 561.485 9.21176 513.216 5.23353 464.773C1.416 418.208 5.1118 362.966 35.7543 325.346C68.2083 285.507 124.035 277.282 170.805 264.775C216.522 252.549 260.819 234.557 300.835 209.148C321.096 196.285 333.493 183.544 346.328 163.289C359.071 143.179 369.536 121.503 384.363 102.771C412.074 67.7595 446.14 38.2671 487.879 21.3163C564.123 -9.64587 654.604 -4.40927 727.775 32.2713C727.795 32.281 727.814 32.2908 727.829 32.3005C758.286 50.1371 784.624 75.6533 803.941 109.492C803.97 109.536 803.995 109.574 804.014 109.623C810.125 120.33 815.525 131.869 820.131 144.255C829.529 169.533 835.626 198.353 837.641 230.892C841.225 288.777 834.652 339.158 820.131 382.944L820.122 382.953Z" fill="white"/>
</mask>
<g mask="url(#mask0_289_951)">
<path d="M847.638 -25.1123H2.63818V672.48H847.638V-25.1123Z" fill="#E3E4FE"/>
<path d="M803.931 45.5959V576.08C803.931 576.873 803.907 577.651 803.834 578.425C802.641 593.619 789.927 605.567 774.418 605.567H527.209C510.892 605.567 497.686 592.373 497.686 576.084V45.5959C497.686 29.3021 510.892 16.1133 527.209 16.1133H573.228V22.7077C573.228 30.7086 579.724 37.196 587.729 37.196H716.888C724.907 37.196 731.398 30.7086 731.398 22.7077V16.1133H774.418C790.731 16.1133 803.931 29.307 803.931 45.5959Z" fill="#FFA748"/>
<mask id="mask1_289_951" style="mask-type:luminance" maskUnits="userSpaceOnUse" x="497" y="16" width="307" height="590">
<path d="M803.931 45.5959V576.08C803.931 576.873 803.907 577.651 803.834 578.425C802.641 593.619 789.927 605.567 774.418 605.567H527.209C510.892 605.567 497.686 592.373 497.686 576.084V45.5959C497.686 29.3021 510.892 16.1133 527.209 16.1133H573.228V22.7077C573.228 30.7086 579.724 37.196 587.729 37.196H716.888C724.907 37.196 731.398 30.7086 731.398 22.7077V16.1133H774.418C790.731 16.1133 803.931 29.307 803.931 45.5959Z" fill="white"/>
</mask>
<g mask="url(#mask1_289_951)">
<path d="M757.327 529.446H544.29C532.885 529.446 523.639 538.687 523.639 550.086V586.173C523.639 597.572 532.885 606.813 544.29 606.813H757.327C768.732 606.813 777.978 597.572 777.978 586.173V550.086C777.978 538.687 768.732 529.446 757.327 529.446Z" fill="white"/>
<path d="M589.477 538.488H547.226C542.515 538.488 538.695 542.306 538.695 547.015V589.243C538.695 593.953 542.515 597.77 547.226 597.77H589.477C594.189 597.77 598.008 593.953 598.008 589.243V547.015C598.008 542.306 594.189 538.488 589.477 538.488Z" fill="#0071BC"/>
<path d="M757.897 552.057H616.103C613.327 552.057 611.078 549.808 611.078 547.034C611.078 544.26 613.327 542.012 616.103 542.012H757.897C760.672 542.012 762.922 544.26 762.922 547.034C762.922 549.808 760.672 552.057 757.897 552.057Z" fill="#B3B3B3"/>
<path d="M757.897 573.154H616.103C613.327 573.154 611.078 570.906 611.078 568.132C611.078 565.358 613.327 563.109 616.103 563.109H757.897C760.672 563.109 762.922 565.358 762.922 568.132C762.922 570.906 760.672 573.154 757.897 573.154Z" fill="#B3B3B3"/>
<path d="M723.038 594.256H616.103C613.327 594.256 611.078 592.007 611.078 589.233C611.078 586.459 613.327 584.211 616.103 584.211H723.038C725.813 584.211 728.063 586.459 728.063 589.233C728.063 592.007 725.813 594.256 723.038 594.256Z" fill="#B3B3B3"/>
<path d="M757.327 422.441H544.29C532.885 422.441 523.639 431.682 523.639 443.081V479.168C523.639 490.567 532.885 499.808 544.29 499.808H757.327C768.732 499.808 777.978 490.567 777.978 479.168V443.081C777.978 431.682 768.732 422.441 757.327 422.441Z" fill="white"/>
<path d="M589.477 431.483H547.226C542.515 431.483 538.695 435.301 538.695 440.01V482.239C538.695 486.948 542.515 490.765 547.226 490.765H589.477C594.189 490.765 598.008 486.948 598.008 482.239V440.01C598.008 435.301 594.189 431.483 589.477 431.483Z" fill="#0071BC"/>
<path d="M757.897 445.047H616.103C613.327 445.047 611.078 442.798 611.078 440.024C611.078 437.25 613.327 435.002 616.103 435.002H757.897C760.672 435.002 762.922 437.25 762.922 440.024C762.922 442.798 760.672 445.047 757.897 445.047Z" fill="#B3B3B3"/>
<path d="M757.897 466.149H616.103C613.327 466.149 611.078 463.901 611.078 461.127C611.078 458.353 613.327 456.104 616.103 456.104H757.897C760.672 456.104 762.922 458.353 762.922 461.127C762.922 463.901 760.672 466.149 757.897 466.149Z" fill="#B3B3B3"/>
<path d="M723.038 487.246H616.103C613.327 487.246 611.078 484.998 611.078 482.224C611.078 479.45 613.327 477.201 616.103 477.201H723.038C725.813 477.201 728.063 479.45 728.063 482.224C728.063 484.998 725.813 487.246 723.038 487.246Z" fill="#B3B3B3"/>
<path d="M757.327 315.438H544.29C532.885 315.438 523.639 324.678 523.639 336.077V372.164C523.639 383.563 532.885 392.804 544.29 392.804H757.327C768.732 392.804 777.978 383.563 777.978 372.164V336.077C777.978 324.678 768.732 315.438 757.327 315.438Z" fill="white"/>
<path d="M589.477 324.479H547.226C542.515 324.479 538.695 328.297 538.695 333.006V375.235C538.695 379.944 542.515 383.761 547.226 383.761H589.477C594.189 383.761 598.008 379.944 598.008 375.235V333.006C598.008 328.297 594.189 324.479 589.477 324.479Z" fill="#0071BC"/>
<path d="M757.897 327.993H616.103C613.327 327.993 611.078 330.242 611.078 333.016V333.021C611.078 335.794 613.327 338.043 616.103 338.043H757.897C760.672 338.043 762.922 335.794 762.922 333.021V333.016C762.922 330.242 760.672 327.993 757.897 327.993Z" fill="#B3B3B3"/>
<path d="M757.897 359.141H616.103C613.327 359.141 611.078 356.892 611.078 354.118C611.078 351.344 613.327 349.096 616.103 349.096H757.897C760.672 349.096 762.922 351.344 762.922 354.118C762.922 356.892 760.672 359.141 757.897 359.141Z" fill="#B3B3B3"/>
<path d="M723.038 380.242H616.103C613.327 380.242 611.078 377.994 611.078 375.22C611.078 372.446 613.327 370.197 616.103 370.197H723.038C725.813 370.197 728.063 372.446 728.063 375.22C728.063 377.994 725.813 380.242 723.038 380.242Z" fill="#B3B3B3"/>
<path d="M757.327 208.428H544.29C532.885 208.428 523.639 217.669 523.639 229.068V265.154C523.639 276.553 532.885 285.794 544.29 285.794H757.327C768.732 285.794 777.978 276.553 777.978 265.154V229.068C777.978 217.669 768.732 208.428 757.327 208.428Z" fill="white"/>
<path d="M589.477 217.47H547.226C542.515 217.47 538.695 221.287 538.695 225.996V268.225C538.695 272.934 542.515 276.751 547.226 276.751H589.477C594.189 276.751 598.008 272.934 598.008 268.225V225.996C598.008 221.287 594.189 217.47 589.477 217.47Z" fill="#0071BC"/>
<path d="M757.897 231.038H616.103C613.327 231.038 611.078 228.79 611.078 226.016C611.078 223.242 613.327 220.993 616.103 220.993H757.897C760.672 220.993 762.922 223.242 762.922 226.016C762.922 228.79 760.672 231.038 757.897 231.038Z" fill="#B3B3B3"/>
<path d="M757.897 252.136H616.103C613.327 252.136 611.078 249.887 611.078 247.113C611.078 244.339 613.327 242.091 616.103 242.091H757.897C760.672 242.091 762.922 244.339 762.922 247.113C762.922 249.887 760.672 252.136 757.897 252.136Z" fill="#B3B3B3"/>
<path d="M723.038 263.188H616.103C613.327 263.188 611.078 265.436 611.078 268.21V268.215C611.078 270.989 613.327 273.237 616.103 273.237H723.038C725.813 273.237 728.063 270.989 728.063 268.215V268.21C728.063 265.436 725.813 263.188 723.038 263.188Z" fill="#B3B3B3"/>
<path d="M792.021 115.959V156.032C792.021 168.69 781.752 178.95 769.091 178.95H532.521C519.861 178.95 509.591 168.69 509.591 156.032V115.959C509.591 103.301 519.861 93.042 532.521 93.042H769.091C781.752 93.042 792.021 103.301 792.021 115.959Z" fill="white"/>
<path d="M682.247 137.86C682.247 153.38 676.915 167.649 667.98 178.95H563.821C554.89 167.649 549.554 153.38 549.554 137.86C549.554 120.583 556.166 104.849 567 93.042H664.796C675.63 104.849 682.242 120.583 682.242 137.86H682.247Z" fill="#E6E6E6"/>
<path d="M582.704 103.082H535.783C530.553 103.082 526.312 107.32 526.312 112.548V159.444C526.312 164.671 530.553 168.909 535.783 168.909H582.704C587.935 168.909 592.175 164.671 592.175 159.444V112.548C592.175 107.32 587.935 103.082 582.704 103.082Z" fill="#0071BC"/>
<path d="M769.724 118.145H612.27C609.188 118.145 606.69 115.648 606.69 112.568C606.69 109.487 609.188 106.99 612.27 106.99H769.724C772.806 106.99 775.304 109.487 775.304 112.568C775.304 115.648 772.806 118.145 769.724 118.145Z" fill="#B3B3B3"/>
<path d="M769.724 141.574H612.27C609.188 141.574 606.69 139.077 606.69 135.996C606.69 132.916 609.188 130.419 612.27 130.419H769.724C772.806 130.419 775.304 132.916 775.304 135.996C775.304 139.077 772.806 141.574 769.724 141.574Z" fill="#B3B3B3"/>
<path d="M731.013 165.006H612.27C609.188 165.006 606.69 162.509 606.69 159.429C606.69 156.348 609.188 153.852 612.27 153.852H731.013C734.095 153.852 736.593 156.348 736.593 159.429C736.593 162.509 734.095 165.006 731.013 165.006Z" fill="#B3B3B3"/>
</g>
<path d="M820.127 161.176V45.5964C820.127 20.4208 799.695 0 774.497 0H527.287C502.083 0 481.647 20.4208 481.647 45.5964V84.2042C479.753 84.7882 478.375 86.5597 478.375 88.6524V106.489C478.375 108.577 479.753 110.343 481.647 110.942V141.914C479.753 142.498 478.375 144.269 478.375 146.357V185.69C478.375 187.783 479.753 189.559 481.647 190.148V199.619C479.753 200.203 478.375 201.979 478.375 204.072V243.4C478.375 245.493 479.753 247.259 481.647 247.858V576.085C481.647 583.867 483.609 591.206 487.052 597.62C493.44 609.519 504.966 618.25 518.663 620.869C521.463 621.409 524.331 621.691 527.292 621.691H774.501C798.916 621.691 818.841 602.54 820.073 578.436C820.112 577.657 820.132 576.868 820.132 576.09V240.008C821.943 239.38 823.253 237.647 823.253 235.618V165.581C823.253 163.551 821.943 161.824 820.132 161.186L820.127 161.176ZM804.009 576.08C804.009 576.873 803.985 577.652 803.912 578.426C802.719 593.62 790.005 605.568 774.497 605.568H527.287C510.97 605.568 497.764 592.374 497.764 576.085V45.5964C497.764 29.3026 510.97 16.1138 527.287 16.1138H573.306V22.7082C573.306 30.7091 579.802 37.1964 587.807 37.1964H716.966C724.985 37.1964 731.476 30.7091 731.476 22.7082V16.1138H774.497C790.809 16.1138 804.009 29.3075 804.009 45.5964V576.08Z" fill="#14145E"/>
<path d="M774.443 392.074L766.253 446.542C766.579 448.645 766.871 450.801 766.525 452.956C758.559 502.417 718.324 615.014 712.671 624.577C710.153 628.85 704.242 684.958 704.242 684.958L707.831 742.527L521.599 746.888C521.599 746.888 519.101 700.62 519.695 698.249C521.059 692.808 531.513 652.75 510.711 594.028C505.866 580.343 495.378 464.028 495.378 464.028L526.429 361.584C528.923 354.765 534.045 349.383 540.482 346.506C542.226 345.723 544.061 345.124 545.97 344.74C546.608 344.604 547.265 344.496 547.918 344.414L536.786 385.815L528.801 415.526L514.251 469.625L538.759 407.706L553.055 343.747L595.462 134.959C597.034 127.221 603.17 121.376 610.717 119.999C611.842 119.795 612.991 119.688 614.16 119.688C624.799 119.688 633.243 128.35 633.243 138.731C633.243 139.398 633.208 140.079 633.135 140.76C628.13 188.133 616.784 301.64 618.941 336.632C619.131 339.601 619.409 342 619.798 343.747C620.12 345.183 620.802 346.623 621.814 348.069L638.492 300.336C641.603 291.444 649.379 285.385 658.222 284.134C661.231 283.706 664.362 283.833 667.474 284.592C678.605 287.298 686.216 297.26 686.216 308.415C686.216 309.563 686.143 310.726 685.972 311.899L682.277 337.776L677.524 371.02L691.455 331.166C694.567 322.265 702.343 316.216 711.19 314.965C714.2 314.537 717.326 314.659 720.442 315.423C731.564 318.128 739.184 328.086 739.184 339.231C739.184 340.389 739.101 341.557 738.931 342.73L735.425 367.287L734.456 374.038C738.196 369.103 743.523 365.823 749.303 364.878C752.059 364.431 754.912 364.513 757.746 365.2C767.898 367.672 774.745 377.22 774.745 388.136C774.745 389.436 774.647 390.75 774.453 392.069L774.443 392.074Z" fill="#FDB59E"/>
<path d="M658.212 284.144C649.37 285.395 641.593 291.454 638.482 300.345L621.804 348.078C620.792 346.638 620.11 345.192 619.789 343.757C619.399 342.009 619.122 339.605 618.932 336.641L631.616 300.35C635.512 289.201 646.735 282.519 658.212 284.149V284.144Z" fill="#F38F8F"/>
<path d="M711.176 314.975C702.323 316.226 694.552 322.275 691.44 331.176L677.509 371.03L682.262 337.785L684.57 331.176C688.465 320.027 699.689 313.345 711.176 314.975Z" fill="#F38F8F"/>
<path d="M749.293 364.883C743.513 365.827 738.181 369.107 734.446 374.042L735.415 367.292C739.637 365.014 744.467 364.09 749.298 364.883H749.293Z" fill="#F38F8F"/>
<path d="M553.045 343.757L538.749 407.715L514.242 469.635L547.908 344.414L553.045 343.757Z" fill="#F38F8F"/>
<path d="M665.034 367.594C665.034 367.594 679.043 383.995 677.514 415.507C677.514 415.507 674.422 395.222 667.557 394.599C660.686 393.976 671.574 384.579 665.039 367.589L665.034 367.594Z" fill="#F38F8F"/>
<path d="M717.389 391.553C717.389 391.553 726.392 405.837 721.659 430.083C721.659 430.083 721.552 414.018 716.298 412.762C711.044 411.506 720.539 405.452 717.389 391.553Z" fill="#F38F8F"/>
</g>
<path d="M803.931 45.5959V422.773C796.35 438.336 787.658 452.932 777.983 466.612C771.526 475.747 764.631 484.468 757.342 492.81C755.277 495.17 753.178 497.506 751.051 499.803C741.322 510.325 730.94 520.19 720.004 529.446C714.906 533.768 709.686 537.954 704.344 542.003C699.811 545.448 695.2 548.797 690.515 552.052C685.037 555.863 679.457 559.542 673.78 563.1C668.263 566.57 662.648 569.918 656.961 573.15C650.217 576.99 643.361 580.669 636.398 584.197C629.532 587.682 622.564 591.016 615.509 594.208C606.671 598.209 597.702 601.985 588.625 605.552H527.286C527.028 605.552 526.78 605.552 526.522 605.543C526.23 605.543 525.933 605.523 525.641 605.509C525.349 605.494 525.056 605.475 524.759 605.45C524.482 605.431 524.199 605.402 523.922 605.372C523.902 605.372 523.878 605.372 523.863 605.363C523.61 605.338 523.362 605.309 523.114 605.27C523.065 605.27 523.016 605.26 522.967 605.251C522.704 605.212 522.442 605.173 522.179 605.124C521.998 605.095 521.813 605.061 521.628 605.027C521.502 605.003 521.375 604.978 521.258 604.954C520.689 604.837 520.129 604.706 519.578 604.564C519.364 604.506 519.155 604.448 518.94 604.384C518.863 604.36 518.78 604.336 518.697 604.316C518.512 604.263 518.332 604.204 518.147 604.146C517.821 604.044 517.499 603.937 517.183 603.82C516.686 603.64 516.189 603.45 515.707 603.246C515.401 603.114 515.094 602.983 514.792 602.837C514.324 602.623 513.872 602.394 513.419 602.155C512.844 601.854 512.274 601.528 511.719 601.187C511.7 601.177 511.68 601.163 511.666 601.148C511.135 600.822 510.619 600.476 510.112 600.121C510.093 600.107 510.073 600.092 510.059 600.077C509.523 599.698 509.002 599.294 508.496 598.88C508.472 598.861 508.447 598.841 508.428 598.827C508.194 598.637 507.965 598.442 507.746 598.247C507.517 598.048 507.293 597.844 507.069 597.639C507.03 597.605 507.001 597.576 506.962 597.537C506.743 597.333 506.524 597.118 506.31 596.904C506.076 596.671 505.847 596.437 505.628 596.203C505.628 596.203 505.628 596.203 505.618 596.194C505.394 595.955 505.175 595.717 504.961 595.469C504.781 595.259 504.596 595.05 504.42 594.836C504.235 594.612 504.055 594.383 503.87 594.155C503.758 594.009 503.651 593.867 503.544 593.721C503.256 593.342 502.979 592.948 502.711 592.553C502.585 592.368 502.458 592.179 502.341 591.984C502.331 591.969 502.322 591.955 502.312 591.94C502.19 591.75 502.068 591.561 501.952 591.366C501.835 591.171 501.718 590.981 501.606 590.787C501.474 590.558 501.343 590.329 501.221 590.101C501.012 589.706 500.802 589.307 500.608 588.898C500.593 588.869 500.578 588.84 500.564 588.811C500.471 588.611 500.379 588.412 500.286 588.212C500.208 588.037 500.13 587.857 500.048 587.677C499.936 587.414 499.828 587.156 499.726 586.893C499.639 586.67 499.556 586.441 499.468 586.217C499.303 585.764 499.147 585.312 499.001 584.844C498.855 584.382 498.723 583.915 498.606 583.443C498.421 582.723 498.261 581.993 498.129 581.253C498.09 581.039 498.061 580.825 498.022 580.606C497.978 580.314 497.939 580.022 497.9 579.725C497.876 579.511 497.847 579.301 497.832 579.087C497.817 578.946 497.803 578.805 497.788 578.664C497.774 578.503 497.759 578.338 497.749 578.172C497.696 577.481 497.676 576.775 497.676 576.07V45.5959C497.676 44.5398 497.73 43.4935 497.842 42.4666C497.856 42.2914 497.881 42.1114 497.9 41.9362C497.925 41.7415 497.949 41.5468 497.978 41.3521C498.007 41.138 498.037 40.9239 498.076 40.7146C498.076 40.6951 498.076 40.6708 498.085 40.6562C498.11 40.5005 498.134 40.3447 498.168 40.189C498.192 40.0333 498.222 39.8824 498.256 39.7315C498.29 39.5466 498.329 39.3665 498.373 39.1816C498.402 39.0356 498.431 38.8896 498.47 38.7436C498.514 38.5684 498.553 38.3932 498.601 38.2228C498.66 37.9844 498.723 37.7508 498.791 37.522C498.855 37.2787 498.928 37.0451 499.001 36.8066C499.069 36.5973 499.137 36.3881 499.205 36.1788C499.366 35.7067 499.536 35.2444 499.717 34.7821C499.799 34.5582 499.892 34.344 499.979 34.125C500.457 33.0008 501.002 31.9058 501.611 30.8546C501.718 30.6697 501.825 30.4847 501.937 30.2998C502.044 30.1197 502.156 29.9397 502.273 29.7645C502.828 28.8884 503.432 28.0416 504.079 27.2337C504.221 27.0634 504.357 26.8882 504.498 26.7227C504.639 26.5524 504.781 26.3821 504.932 26.2166C505.078 26.0511 505.224 25.8808 505.375 25.7202C505.672 25.3941 505.978 25.0729 506.295 24.7566C506.451 24.6008 506.607 24.4451 506.767 24.2894C507.089 23.9828 507.42 23.681 507.751 23.3939C507.916 23.243 508.087 23.1019 508.257 22.9608C508.428 22.8148 508.603 22.6785 508.773 22.5374C508.944 22.4011 509.124 22.2648 509.299 22.1285C509.475 21.9923 509.655 21.8657 509.835 21.7343C510.01 21.6029 510.195 21.4715 510.38 21.3499C510.536 21.2428 510.687 21.1357 510.843 21.0335C511.262 20.7561 511.69 20.4885 512.123 20.2305C512.294 20.1283 512.474 20.0261 512.645 19.9288C513.813 19.2669 515.03 18.6829 516.287 18.1865C516.496 18.1038 516.71 18.0259 516.92 17.9432C517.134 17.8653 517.348 17.7874 517.562 17.7144C517.777 17.6414 517.991 17.5684 518.21 17.5003C518.424 17.4321 518.644 17.364 518.863 17.3008C519.082 17.2375 519.306 17.1742 519.525 17.1158C519.749 17.0623 519.968 16.999 520.192 16.9503C520.416 16.8968 520.64 16.8433 520.864 16.7946C521.093 16.7411 521.317 16.6973 521.546 16.6535C521.774 16.6048 522.003 16.5659 522.227 16.5269C522.456 16.488 522.685 16.4539 522.914 16.4199C523.143 16.3858 523.376 16.3566 523.605 16.3274C523.839 16.2982 524.073 16.2739 524.302 16.2544C524.779 16.2057 525.271 16.1717 525.758 16.1473C526.006 16.1327 526.254 16.123 526.507 16.1181C526.765 16.1181 527.014 16.1084 527.272 16.1084H573.219V22.7028C573.219 22.951 573.219 23.1944 573.238 23.4377V23.4474C573.253 23.6908 573.272 23.9244 573.292 24.1628V24.1823C573.316 24.4062 573.345 24.63 573.374 24.8491C573.374 24.8734 573.374 24.8929 573.384 24.9075C573.418 25.1362 573.457 25.3649 573.506 25.5888C573.555 25.8224 573.603 26.056 573.662 26.2799C573.662 26.2945 573.662 26.3091 573.672 26.3237C573.725 26.5378 573.788 26.7519 573.852 26.9612C573.915 27.1851 573.993 27.409 574.076 27.628C574.149 27.8372 574.232 28.0416 574.314 28.246C574.329 28.2801 574.343 28.3093 574.358 28.3434C574.436 28.538 574.524 28.723 574.616 28.9176C574.631 28.942 574.641 28.9663 574.65 28.9858C574.733 29.161 574.821 29.3362 574.913 29.5065C574.933 29.5406 574.952 29.5746 574.967 29.6136C575.064 29.7888 575.162 29.964 575.269 30.1343C575.381 30.329 575.502 30.5139 575.629 30.7086C575.653 30.7427 575.678 30.7719 575.692 30.8059C575.799 30.9617 575.911 31.1223 576.023 31.278C576.184 31.5019 576.359 31.716 576.53 31.9253C576.642 32.0615 576.754 32.1881 576.871 32.3195C576.91 32.3682 576.944 32.4071 576.988 32.4509C577.1 32.5726 577.212 32.6991 577.333 32.8159C577.82 33.322 578.351 33.7941 578.916 34.2224C579.096 34.3635 579.281 34.4949 579.471 34.6263C579.646 34.7529 579.831 34.8745 580.016 34.9865C580.041 35.0059 580.065 35.0205 580.084 35.0351C580.26 35.1422 580.44 35.2493 580.62 35.3515C580.635 35.3612 580.654 35.3709 580.669 35.3807C580.82 35.4634 580.971 35.5413 581.126 35.624C581.17 35.6483 581.214 35.6678 581.258 35.6873C581.467 35.7943 581.677 35.8917 581.891 35.9841C582.1 36.0766 582.319 36.1642 582.539 36.2469C582.714 36.3151 582.899 36.3832 583.079 36.4416C583.137 36.4659 583.201 36.4854 583.264 36.5C583.654 36.6265 584.048 36.7385 584.457 36.8309C584.491 36.8407 584.52 36.8504 584.559 36.8553C584.759 36.9039 584.963 36.938 585.163 36.9769C585.221 36.9915 585.285 37.0013 585.343 37.011C585.553 37.0451 585.762 37.0743 585.971 37.0986C586.215 37.1278 586.449 37.1522 586.697 37.1668C586.94 37.1862 587.179 37.1959 587.427 37.2008C587.549 37.2008 587.676 37.2008 587.797 37.2008H716.956C717.053 37.2008 717.155 37.2008 717.253 37.2008C717.384 37.2008 717.516 37.1911 717.642 37.1862C717.769 37.1862 717.896 37.1716 718.017 37.1619C718.11 37.1619 718.197 37.1473 718.29 37.1327C718.324 37.1327 718.353 37.1327 718.387 37.1229C718.645 37.0986 718.903 37.0645 719.157 37.0207C719.337 36.9964 719.522 36.9672 719.697 36.9283C719.78 36.9137 719.858 36.8942 719.936 36.8747C720.072 36.8504 720.204 36.8212 720.34 36.7823C720.505 36.7433 720.671 36.7044 720.832 36.6557C720.832 36.6557 720.841 36.6557 720.851 36.6557C721.041 36.6022 721.231 36.5438 721.421 36.4805C721.479 36.4611 721.538 36.4416 721.591 36.4221C721.752 36.3686 721.922 36.3102 722.078 36.2518C722.132 36.2323 722.176 36.2129 722.219 36.1983C722.409 36.1253 722.594 36.0425 722.779 35.9647C722.809 35.9501 722.833 35.9403 722.848 35.9306C723.013 35.8576 723.184 35.7749 723.344 35.6921C723.602 35.5656 723.851 35.4293 724.099 35.2882C724.265 35.1957 724.43 35.0984 724.591 34.9962C724.63 34.9719 724.659 34.9475 724.698 34.9281C724.854 34.8307 725.005 34.7285 725.156 34.6214C725.199 34.5922 725.238 34.5679 725.277 34.5387C725.423 34.4365 725.56 34.3343 725.701 34.2272C725.75 34.1932 725.794 34.1591 725.837 34.1202C725.993 33.9985 726.144 33.872 726.295 33.7503C726.47 33.5994 726.641 33.4486 726.806 33.288C726.836 33.2636 726.86 33.2344 726.889 33.2101C727.03 33.0787 727.162 32.9473 727.293 32.811C727.449 32.6504 727.605 32.4801 727.761 32.3098C727.902 32.154 728.038 31.9885 728.175 31.8231C728.311 31.6625 728.438 31.4873 728.564 31.3169C728.691 31.1515 728.817 30.9714 728.929 30.7962C729.051 30.621 729.168 30.4361 729.28 30.256C729.28 30.256 729.28 30.2463 729.29 30.2414C729.397 30.0662 729.504 29.8813 729.601 29.6963C729.704 29.5114 729.806 29.3216 729.898 29.1269C729.991 28.942 730.074 28.7619 730.161 28.5721C730.254 28.3628 730.341 28.1487 730.424 27.9346C730.483 27.7788 730.541 27.628 730.59 27.4722C730.604 27.4382 730.619 27.4041 730.629 27.37C730.653 27.3116 730.673 27.2435 730.692 27.1802C730.746 27.0245 730.794 26.859 730.838 26.7033V26.6935C730.887 26.5281 730.931 26.3529 730.97 26.1874C730.994 26.0998 731.018 26.0122 731.033 25.9197C731.062 25.7932 731.086 25.6715 731.111 25.5499C731.13 25.4671 731.145 25.3844 731.16 25.2919C731.184 25.1703 731.203 25.0486 731.218 24.9269C731.237 24.8393 731.247 24.7517 731.262 24.6641C731.262 24.6349 731.262 24.6106 731.271 24.5814C731.291 24.4208 731.31 24.2602 731.325 24.0996C731.349 23.9 731.364 23.6956 731.374 23.4912C731.374 23.4231 731.374 23.3501 731.383 23.282C731.383 23.1019 731.393 22.917 731.393 22.7369V16.1425H774.491C774.72 16.1425 774.954 16.1425 775.178 16.1522C775.431 16.1522 775.675 16.1668 775.928 16.1814C776.269 16.196 776.605 16.2203 776.936 16.2495C777.087 16.2593 777.228 16.2739 777.379 16.2885C777.642 16.3177 777.91 16.342 778.168 16.3809C778.416 16.415 778.655 16.4442 778.903 16.4831C779.146 16.5221 779.39 16.561 779.633 16.6048C779.882 16.6486 780.115 16.6924 780.359 16.7459C780.593 16.7946 780.826 16.8433 781.055 16.8968C781.07 16.8968 781.084 16.9065 781.099 16.9065C781.313 16.9601 781.528 17.0087 781.737 17.0623C781.786 17.0769 781.825 17.0915 781.873 17.1012C782.063 17.1547 782.248 17.2034 782.438 17.2569C782.467 17.2667 782.497 17.2764 782.526 17.2813C782.75 17.3446 782.974 17.4127 783.193 17.4808C783.427 17.549 783.656 17.6268 783.879 17.7047C784.065 17.7631 784.25 17.8312 784.435 17.8945C784.96 18.0843 785.481 18.2887 785.993 18.5077C786.407 18.678 786.811 18.8678 787.21 19.0625C787.639 19.2718 788.062 19.4859 788.476 19.7146C789.104 20.0553 789.718 20.4155 790.312 20.7999C790.511 20.9313 790.711 21.0627 790.906 21.1893C791.101 21.3255 791.295 21.4569 791.485 21.5932C791.68 21.7295 791.87 21.8657 792.06 22.0117C792.23 22.1383 792.406 22.2697 792.571 22.3962C792.776 22.5568 792.975 22.7223 793.175 22.8829C793.355 23.0338 793.54 23.1846 793.715 23.3404C793.876 23.4815 794.032 23.6129 794.188 23.754C794.383 23.9341 794.577 24.1142 794.762 24.2942C794.933 24.4548 795.103 24.6203 795.269 24.7858C795.595 25.1119 795.916 25.4525 796.233 25.7883C796.584 26.1728 796.915 26.567 797.241 26.9661C797.372 27.1218 797.499 27.2727 797.616 27.4333C797.728 27.5744 797.835 27.7107 797.942 27.8567C798.074 28.027 798.2 28.1974 798.322 28.3726C798.4 28.4796 798.478 28.5916 798.56 28.7035C798.804 29.0442 799.033 29.3897 799.257 29.745C799.388 29.9445 799.515 30.1441 799.632 30.3485C799.758 30.548 799.88 30.7524 799.997 30.9617C800.099 31.1271 800.192 31.3072 800.289 31.4775C801.112 32.9862 801.808 34.5679 802.363 36.2177C802.436 36.4319 802.514 36.6509 802.578 36.8699C802.631 37.0353 802.68 37.2106 802.733 37.3809C802.787 37.5512 802.831 37.7264 802.884 37.9016C802.904 37.9698 802.923 38.0428 802.938 38.1109C802.977 38.2666 803.016 38.4224 803.055 38.583C803.104 38.763 803.142 38.948 803.186 39.1329C803.225 39.2984 803.259 39.4687 803.293 39.6342C803.357 39.9359 803.415 40.2377 803.464 40.5443C803.503 40.7341 803.527 40.919 803.561 41.1137C803.561 41.1331 803.561 41.1526 803.571 41.1672C803.6 41.3716 803.629 41.5809 803.654 41.7853C803.707 42.1844 803.751 42.5834 803.785 42.9922C803.805 43.1528 803.819 43.3183 803.829 43.4838C803.883 44.1943 803.907 44.9146 803.907 45.6397L803.931 45.5959Z" fill="#29ABE2"/>
<path d="M720.004 529.452C714.906 533.774 709.686 537.959 704.344 542.008C699.811 545.454 695.2 548.802 690.516 552.058C685.038 555.869 679.458 559.548 673.78 563.106C668.263 566.576 662.649 569.924 656.961 573.155C650.217 576.995 643.361 580.674 636.398 584.203C629.533 587.687 622.565 591.021 615.509 594.214C606.671 598.214 597.702 601.991 588.625 605.558C587.554 605.977 586.478 606.395 585.407 606.809H544.29C541.797 606.809 539.407 606.366 537.191 605.558C529.283 602.667 523.64 595.08 523.64 586.174V550.087C523.64 538.689 532.886 529.447 544.29 529.447H720.004V529.452Z" fill="white"/>
<path d="M589.478 538.489H547.227C542.515 538.489 538.696 542.307 538.696 547.016V589.244C538.696 593.953 542.515 597.771 547.227 597.771H589.478C594.189 597.771 598.009 593.953 598.009 589.244V547.016C598.009 542.307 594.189 538.489 589.478 538.489Z" fill="#0071BC"/>
<path d="M704.345 542.008C699.811 545.453 695.2 548.802 690.516 552.058H616.103C613.328 552.058 611.078 549.804 611.078 547.035C611.078 545.648 611.643 544.388 612.549 543.482C613.454 542.572 614.711 542.008 616.103 542.008H704.345Z" fill="#B3B3B3"/>
<path d="M673.78 563.105C668.263 566.575 662.649 569.924 656.962 573.155H616.108C613.333 573.155 611.083 570.907 611.083 568.133C611.083 566.741 611.648 565.485 612.553 564.58C613.459 563.67 614.715 563.105 616.108 563.105H673.785H673.78Z" fill="#B3B3B3"/>
<path d="M636.399 584.207C629.533 587.692 622.565 591.025 615.509 594.218C613.016 593.926 611.078 591.804 611.078 589.234C611.078 587.847 611.643 586.587 612.549 585.682C613.454 584.772 614.711 584.207 616.103 584.207H636.394H636.399Z" fill="#B3B3B3"/>
<path d="M777.978 443.082V466.613C771.521 475.748 764.627 484.469 757.337 492.81C755.273 495.171 753.174 497.507 751.046 499.804H544.286C532.882 499.804 523.635 490.562 523.635 479.164V443.082C523.635 436.741 526.498 431.066 531.007 427.28C534.596 424.263 539.231 422.442 544.286 422.442H757.327C761.793 422.442 765.927 423.854 769.301 426.263C774.555 430 777.978 436.142 777.978 443.077V443.082Z" fill="white"/>
<path d="M589.478 431.484H547.227C542.515 431.484 538.696 435.302 538.696 440.011V482.24C538.696 486.949 542.515 490.766 547.227 490.766H589.478C594.189 490.766 598.009 486.949 598.009 482.24V440.011C598.009 435.302 594.189 431.484 589.478 431.484Z" fill="#0071BC"/>
<path d="M757.897 445.048H616.103C613.328 445.048 611.078 442.799 611.078 440.025C611.078 437.251 613.328 435.003 616.103 435.003H757.897C760.673 435.003 762.923 437.251 762.923 440.025C762.923 442.799 760.673 445.048 757.897 445.048Z" fill="#B3B3B3"/>
<path d="M757.897 466.15H616.103C613.328 466.15 611.078 463.902 611.078 461.128C611.078 458.354 613.328 456.105 616.103 456.105H757.897C760.673 456.105 762.923 458.354 762.923 461.128C762.923 463.902 760.673 466.15 757.897 466.15Z" fill="#B3B3B3"/>
<path d="M723.038 487.247H616.103C613.328 487.247 611.078 484.999 611.078 482.225C611.078 479.451 613.328 477.202 616.103 477.202H723.038C725.814 477.202 728.063 479.451 728.063 482.225C728.063 484.999 725.814 487.247 723.038 487.247Z" fill="#B3B3B3"/>
<path d="M757.327 315.438H544.29C532.885 315.438 523.64 324.678 523.64 336.077V372.164C523.64 383.563 532.885 392.804 544.29 392.804H757.327C768.733 392.804 777.978 383.563 777.978 372.164V336.077C777.978 324.678 768.733 315.438 757.327 315.438Z" fill="white"/>
<path d="M589.478 324.479H547.227C542.515 324.479 538.696 328.297 538.696 333.006V375.235C538.696 379.944 542.515 383.761 547.227 383.761H589.478C594.189 383.761 598.009 379.944 598.009 375.235V333.006C598.009 328.297 594.189 324.479 589.478 324.479Z" fill="#0071BC"/>
<path d="M757.897 327.993H616.103C613.328 327.993 611.078 330.242 611.078 333.016V333.021C611.078 335.794 613.328 338.043 616.103 338.043H757.897C760.673 338.043 762.923 335.794 762.923 333.021V333.016C762.923 330.242 760.673 327.993 757.897 327.993Z" fill="#B3B3B3"/>
<path d="M757.897 359.141H616.103C613.328 359.141 611.078 356.892 611.078 354.118C611.078 351.344 613.328 349.096 616.103 349.096H757.897C760.673 349.096 762.923 351.344 762.923 354.118C762.923 356.892 760.673 359.141 757.897 359.141Z" fill="#B3B3B3"/>
<path d="M723.038 380.242H616.103C613.328 380.242 611.078 377.994 611.078 375.22C611.078 372.446 613.328 370.197 616.103 370.197H723.038C725.814 370.197 728.063 372.446 728.063 375.22C728.063 377.994 725.814 380.242 723.038 380.242Z" fill="#B3B3B3"/>
<path d="M757.327 208.428H544.29C532.885 208.428 523.64 217.669 523.64 229.068V265.154C523.64 276.553 532.885 285.794 544.29 285.794H757.327C768.733 285.794 777.978 276.553 777.978 265.154V229.068C777.978 217.669 768.733 208.428 757.327 208.428Z" fill="white"/>
<path d="M589.478 217.47H547.227C542.515 217.47 538.696 221.287 538.696 225.996V268.225C538.696 272.934 542.515 276.751 547.227 276.751H589.478C594.189 276.751 598.009 272.934 598.009 268.225V225.996C598.009 221.287 594.189 217.47 589.478 217.47Z" fill="#0071BC"/>
<path d="M757.897 231.038H616.103C613.328 231.038 611.078 228.79 611.078 226.016C611.078 223.242 613.328 220.993 616.103 220.993H757.897C760.673 220.993 762.923 223.242 762.923 226.016C762.923 228.79 760.673 231.038 757.897 231.038Z" fill="#B3B3B3"/>
<path d="M757.897 252.136H616.103C613.328 252.136 611.078 249.887 611.078 247.113C611.078 244.339 613.328 242.091 616.103 242.091H757.897C760.673 242.091 762.923 244.339 762.923 247.113C762.923 249.887 760.673 252.136 757.897 252.136Z" fill="#B3B3B3"/>
<path d="M723.038 263.188H616.103C613.328 263.188 611.078 265.436 611.078 268.21V268.215C611.078 270.989 613.328 273.237 616.103 273.237H723.038C725.813 273.237 728.063 270.989 728.063 268.215V268.21C728.063 265.436 725.813 263.188 723.038 263.188Z" fill="#B3B3B3"/>
<path d="M792.021 115.959V156.032C792.021 168.69 781.752 178.95 769.092 178.95H532.521C519.861 178.95 509.592 168.69 509.592 156.032V115.959C509.592 103.301 519.861 93.042 532.521 93.042H769.092C781.752 93.042 792.021 103.301 792.021 115.959Z" fill="white"/>
<path d="M682.248 137.86C682.248 153.38 676.916 167.649 667.981 178.95H563.821C554.891 167.649 549.554 153.38 549.554 137.86C549.554 120.583 556.167 104.849 567.001 93.042H664.796C675.63 104.849 682.243 120.583 682.243 137.86H682.248Z" fill="#E6E6E6"/>
<path d="M582.704 103.082H535.784C530.553 103.082 526.313 107.32 526.313 112.548V159.444C526.313 164.671 530.553 168.909 535.784 168.909H582.704C587.935 168.909 592.175 164.671 592.175 159.444V112.548C592.175 107.32 587.935 103.082 582.704 103.082Z" fill="#0071BC"/>
<path d="M769.725 118.145H612.271C609.188 118.145 606.69 115.648 606.69 112.568C606.69 109.487 609.188 106.99 612.271 106.99H769.725C772.807 106.99 775.305 109.487 775.305 112.568C775.305 115.648 772.807 118.145 769.725 118.145Z" fill="#B3B3B3"/>
<path d="M769.725 141.574H612.271C609.188 141.574 606.69 139.077 606.69 135.996C606.69 132.916 609.188 130.419 612.271 130.419H769.725C772.807 130.419 775.305 132.916 775.305 135.996C775.305 139.077 772.807 141.574 769.725 141.574Z" fill="#B3B3B3"/>
<path d="M731.014 165.006H612.271C609.188 165.006 606.69 162.509 606.69 159.429C606.69 156.348 609.188 153.852 612.271 153.852H731.014C734.096 153.852 736.594 156.348 736.594 159.429C736.594 162.509 734.096 165.006 731.014 165.006Z" fill="#B3B3B3"/>
<path d="M820.122 161.176V45.5964C820.122 20.4208 799.695 0 774.492 0H527.282C510.005 0 494.969 9.59233 487.222 23.7302C483.663 30.2224 481.637 37.6734 481.637 45.5915V84.1993C479.743 84.7833 478.36 86.5548 478.36 88.6475V106.489C478.36 108.577 479.743 110.343 481.637 110.937V141.909C479.743 142.493 478.36 144.265 478.36 146.352V185.68C478.36 187.773 479.743 189.549 481.637 190.138V199.609C479.743 200.193 478.36 201.965 478.36 204.062V243.39C478.36 245.483 479.743 247.249 481.637 247.843V576.07C481.637 583.857 483.594 591.196 487.037 597.606C493.396 609.451 504.849 618.153 518.463 620.81C518.522 620.825 518.585 620.839 518.644 620.849C521.443 621.389 524.316 621.672 527.277 621.672H542.382C556.916 617.199 571.286 612.254 585.392 606.804C586.468 606.39 587.539 605.971 588.611 605.553H527.272C527.014 605.553 526.766 605.553 526.508 605.543C521.775 605.421 517.324 604.195 513.395 602.102C504.08 597.148 497.745 587.356 497.745 576.07V45.5964C497.745 30.3051 509.377 17.7441 524.302 16.2549C524.759 16.2111 525.222 16.177 525.69 16.1527C525.962 16.1381 526.235 16.1235 526.508 16.1186C526.766 16.1186 527.014 16.1089 527.272 16.1089H573.292V22.7033C573.292 30.5777 579.588 36.9872 587.418 37.1867C587.539 37.1867 587.666 37.1867 587.788 37.1867H716.946C717.044 37.1867 717.146 37.1867 717.243 37.1867C717.375 37.1867 717.506 37.177 717.633 37.1721C717.759 37.1721 717.886 37.1575 718.008 37.1478C718.1 37.1478 718.188 37.1332 718.28 37.1186C718.314 37.1186 718.344 37.1186 718.378 37.1088C722.117 36.7487 725.443 34.9626 727.795 32.3102C730.064 29.7552 731.447 26.3923 731.447 22.7033V16.1089H774.467C774.696 16.1089 774.93 16.1089 775.154 16.1186C775.407 16.1186 775.651 16.1332 775.904 16.1478C776.245 16.1624 776.581 16.1868 776.912 16.216C777.063 16.2257 777.204 16.2403 777.355 16.2549C792.299 17.7003 803.97 30.2759 803.97 45.5964V422.627C810.096 410.047 815.491 396.833 820.088 382.958V239.998C821.904 239.37 823.214 237.643 823.214 235.608V165.576C823.214 163.542 821.904 161.819 820.088 161.181L820.122 161.176Z" fill="#14145E"/>
<path style="mix-blend-mode:multiply" d="M832.996 330.787C829.904 349.139 825.57 366.508 820.122 382.953C815.525 396.833 810.13 410.041 804.009 422.627C803.985 422.675 803.96 422.724 803.936 422.773C796.355 438.341 787.663 452.932 777.983 466.617C771.526 475.747 764.631 484.473 757.342 492.81C755.277 495.175 753.178 497.506 751.051 499.808C741.317 510.325 730.94 520.195 720.004 529.447C714.901 533.768 709.686 537.954 704.349 542.008C699.816 545.448 695.209 548.797 690.52 552.053C685.047 555.863 679.462 559.542 673.784 563.105C668.267 566.57 662.653 569.918 656.961 573.15C650.222 576.99 643.361 580.669 636.403 584.197C629.532 587.687 622.564 591.016 615.513 594.213C613.95 594.919 612.378 595.62 610.8 596.315L598.174 319.797L629.391 127.279L833.001 330.782L832.996 330.787Z" fill="url(#paint0_linear_289_951)"/>
<path d="M774.735 388.141C774.735 389.441 774.638 390.75 774.443 392.069L769.301 426.262L766.253 446.532C766.579 448.635 766.871 450.791 766.52 452.952C764.777 463.79 761.481 477.655 757.337 492.805C755.272 495.166 753.174 497.502 751.046 499.799C741.317 510.321 730.936 520.185 719.999 529.442C714.901 533.764 709.681 537.949 704.339 541.998C699.806 545.444 695.195 548.792 690.511 552.048C685.033 555.859 679.452 559.538 673.775 563.095C668.258 566.565 662.644 569.914 656.956 573.145C650.212 576.985 643.356 580.664 636.393 584.193C629.527 587.677 622.559 591.011 615.504 594.204C606.666 598.204 597.697 601.981 588.62 605.548C587.549 605.966 586.473 606.385 585.402 606.799C571.295 612.249 556.926 617.194 542.391 621.667C534.97 623.954 527.501 626.115 520.002 628.164C519.549 625.764 519.043 623.307 518.478 620.805C517.139 614.853 515.474 608.624 513.428 602.141C513.428 602.127 513.419 602.112 513.414 602.093C512.576 599.44 511.676 596.749 510.707 594.014C507.308 584.431 501.153 524.531 497.769 489.481C497.744 489.218 497.715 488.961 497.696 488.703C496.288 474.107 495.378 464.014 495.378 464.014L497.696 456.368L497.769 456.12L523.644 370.748L526.425 361.569C528.684 355.393 533.1 350.39 538.7 347.368C539.28 347.051 539.874 346.759 540.477 346.487C542.216 345.703 544.056 345.105 545.965 344.72C546.608 344.584 547.26 344.472 547.913 344.394L539.012 377.493L536.777 385.8L535.438 390.789L514.247 469.61L523.639 445.875L531.012 427.26L538.754 407.696L542.114 392.667L544.232 383.197L553.05 343.737L556.965 324.46L558.801 315.418L564.824 285.774L566.66 276.732L578.702 217.45L580.532 208.403L586.522 178.925L589.059 166.432L592.18 151.073L595.457 134.945C597.03 127.207 603.16 121.362 610.707 119.979C611.832 119.775 612.981 119.668 614.155 119.668C621.751 119.668 628.232 124.087 631.309 130.394C632.546 132.92 633.238 135.748 633.238 138.716C633.238 139.383 633.199 140.064 633.126 140.746C633.097 141.013 633.072 141.286 633.043 141.554C632.649 145.272 632.22 149.389 631.757 153.828C631.397 157.351 631.017 161.084 630.623 164.982C630.17 169.43 629.707 174.093 629.23 178.93C628.31 188.235 627.356 198.178 626.406 208.408C626.026 212.554 625.642 216.75 625.267 220.969C624.97 224.303 624.678 227.656 624.385 231.014C624.064 234.703 623.752 238.392 623.446 242.066C623.168 245.429 622.895 248.782 622.632 252.111C622.335 255.829 622.053 259.518 621.775 263.164C621.522 266.556 621.284 269.909 621.055 273.208C620.758 277.491 620.48 281.691 620.227 285.77C619.555 296.656 619.063 306.721 618.82 315.413C618.693 320.007 618.644 324.222 618.669 327.969C618.688 331.215 618.776 334.111 618.932 336.612C618.966 337.094 618.995 337.566 619.034 338.019C619.214 340.345 619.467 342.263 619.789 343.727C620.11 345.163 620.787 346.609 621.805 348.049L625.311 338.019L628.821 327.969L633.209 315.413L638.487 300.321C638.555 300.117 638.633 299.912 638.716 299.713C638.73 299.659 638.75 299.615 638.769 299.562C638.769 299.552 638.769 299.538 638.784 299.528C638.808 299.465 638.837 299.401 638.857 299.343C638.92 299.163 638.998 298.978 639.076 298.803C639.11 298.72 639.144 298.637 639.183 298.554C639.358 298.136 639.553 297.727 639.758 297.328C639.811 297.221 639.865 297.109 639.923 297.002C640.167 296.53 640.425 296.072 640.702 295.625C640.995 295.143 641.306 294.671 641.632 294.213C641.978 293.732 642.334 293.259 642.713 292.807C642.821 292.671 642.933 292.544 643.045 292.413C643.059 292.398 643.069 292.383 643.083 292.369C643.171 292.271 643.254 292.169 643.346 292.072C643.444 291.965 643.541 291.858 643.639 291.751C643.751 291.629 643.863 291.507 643.979 291.391C644.101 291.259 644.223 291.133 644.345 291.016C644.544 290.821 644.744 290.627 644.944 290.442C645.148 290.252 645.353 290.067 645.562 289.887C645.762 289.716 645.956 289.546 646.161 289.381C646.258 289.303 646.361 289.22 646.463 289.142C646.609 289.025 646.76 288.909 646.911 288.797C647.164 288.607 647.417 288.422 647.68 288.242C647.709 288.218 647.734 288.198 647.768 288.183C647.948 288.052 648.133 287.93 648.323 287.814C648.459 287.726 648.596 287.638 648.732 287.551C648.883 287.458 649.029 287.371 649.18 287.288C649.258 287.234 649.341 287.191 649.428 287.142C649.681 286.996 649.93 286.86 650.188 286.723C650.261 286.68 650.339 286.646 650.412 286.607C650.524 286.548 650.636 286.49 650.748 286.441C650.811 286.397 650.884 286.368 650.952 286.339C651.016 286.3 651.084 286.276 651.147 286.242C651.24 286.193 651.332 286.154 651.425 286.115C651.449 286.096 651.478 286.086 651.498 286.081C651.653 286.013 651.804 285.935 651.965 285.872C652.048 285.828 652.131 285.799 652.218 285.765C652.286 285.731 652.359 285.706 652.428 285.677C652.603 285.604 652.788 285.531 652.963 285.468C653.207 285.375 653.445 285.288 653.689 285.205C653.874 285.142 654.054 285.078 654.244 285.02C654.434 284.962 654.624 284.898 654.819 284.845C655.013 284.791 655.203 284.738 655.398 284.689C655.554 284.645 655.714 284.606 655.87 284.567C656.031 284.524 656.201 284.49 656.367 284.451C656.567 284.402 656.771 284.363 656.976 284.324C657.18 284.28 657.385 284.246 657.594 284.212C657.799 284.173 658.008 284.144 658.212 284.115C661.217 283.687 664.348 283.818 667.464 284.572C668.73 284.879 669.947 285.278 671.116 285.77C680.227 289.561 686.206 298.506 686.206 308.395C686.206 309.544 686.133 310.712 685.958 311.88L685.456 315.413L683.659 327.969L682.262 337.756L682.223 338.019L680.645 349.066L679.209 359.116L677.631 370.164L677.509 370.996L677.802 370.164L681.658 359.116L685.169 349.066L689.03 338.019L691.431 331.152C691.528 330.874 691.63 330.597 691.738 330.324C691.801 330.159 691.869 329.994 691.942 329.828C691.996 329.682 692.059 329.541 692.117 329.4C692.117 329.4 692.117 329.385 692.127 329.38C692.22 329.161 692.322 328.942 692.424 328.723C692.522 328.519 692.619 328.315 692.726 328.115C692.75 328.066 692.78 328.018 692.799 327.969C692.809 327.95 692.819 327.93 692.828 327.915C692.921 327.731 693.023 327.546 693.125 327.361C693.184 327.249 693.252 327.132 693.315 327.02C693.705 326.339 694.128 325.677 694.581 325.039C694.742 324.806 694.912 324.582 695.078 324.358C695.248 324.134 695.424 323.915 695.599 323.696C695.769 323.492 695.94 323.287 696.115 323.088C696.5 322.65 696.904 322.221 697.318 321.813C697.503 321.628 697.698 321.443 697.892 321.263C698.043 321.121 698.194 320.985 698.35 320.854C698.365 320.839 698.374 320.829 698.389 320.82C698.516 320.708 698.647 320.596 698.774 320.489C699.066 320.236 699.363 319.997 699.67 319.764C699.801 319.661 699.933 319.564 700.064 319.472C700.2 319.369 700.332 319.272 700.468 319.18C700.697 319.019 700.926 318.863 701.15 318.712C701.384 318.557 701.617 318.416 701.851 318.27C702.323 317.978 702.815 317.7 703.312 317.447C703.551 317.325 703.789 317.204 704.028 317.092C704.281 316.97 704.529 316.858 704.782 316.746C704.929 316.683 705.07 316.62 705.216 316.566C705.362 316.508 705.503 316.449 705.649 316.391C705.649 316.391 705.652 316.391 705.659 316.391C706.078 316.226 706.501 316.07 706.93 315.934C707.018 315.9 707.11 315.875 707.198 315.846C707.431 315.773 707.67 315.7 707.899 315.637C708.162 315.559 708.434 315.486 708.702 315.423C708.722 315.423 708.741 315.413 708.756 315.408C709.004 315.35 709.248 315.286 709.496 315.238C709.589 315.218 709.676 315.199 709.769 315.184C709.973 315.14 710.183 315.101 710.387 315.062C710.411 315.062 710.436 315.053 710.455 315.048C710.684 315.009 710.918 314.975 711.142 314.941C714.151 314.512 717.272 314.634 720.393 315.398C720.408 315.398 720.418 315.398 720.432 315.408C727.551 317.15 733.234 321.866 736.394 327.964C737.986 331.035 738.936 334.451 739.106 338.014C739.131 338.408 739.14 338.802 739.14 339.206C739.14 340.365 739.058 341.537 738.882 342.705L737.977 349.066L736.545 359.116L735.381 367.263L734.412 374.013C738.152 369.078 743.479 365.798 749.259 364.854C752.02 364.401 754.868 364.489 757.697 365.175C766.481 367.312 772.792 374.753 774.331 383.786C774.574 385.197 774.701 386.642 774.701 388.112L774.735 388.141Z" fill="#FDB59E"/>
<path d="M658.212 284.144C649.37 285.395 641.593 291.454 638.482 300.345L621.804 348.078C620.792 346.638 620.11 345.192 619.789 343.757C619.399 342.009 619.122 339.605 618.932 336.641L631.616 300.35C635.512 289.201 646.735 282.519 658.212 284.149V284.144Z" fill="#F38F8F"/>
<path d="M711.176 314.975C702.323 316.226 694.552 322.275 691.44 331.176L677.509 371.03L682.262 337.785L684.57 331.176C688.465 320.027 699.689 313.345 711.176 314.975Z" fill="#F38F8F"/>
<path d="M749.293 364.883C743.513 365.827 738.181 369.107 734.446 374.042L735.415 367.292C739.637 365.014 744.467 364.09 749.298 364.883H749.293Z" fill="#F38F8F"/>
<path d="M553.045 343.757L538.749 407.715L514.242 469.635L547.908 344.414L553.045 343.757Z" fill="#F38F8F"/>
<path d="M665.034 367.594C665.034 367.594 679.043 383.995 677.514 415.507C677.514 415.507 674.422 395.222 667.557 394.599C660.686 393.976 671.574 384.579 665.039 367.589L665.034 367.594Z" fill="#F38F8F"/>
<path d="M717.389 391.553C717.389 391.553 726.392 405.837 721.659 430.083C721.659 430.083 721.552 414.018 716.298 412.762C711.044 411.506 720.539 405.452 717.389 391.553Z" fill="#F38F8F"/>
<path d="M140.854 298.082C139.997 297.61 139.179 297.075 138.38 296.544C137.581 296.009 136.807 295.469 136.052 294.914C134.533 293.814 133.072 292.69 131.651 291.57C130.234 290.446 128.836 289.332 127.424 288.3C126.017 287.268 124.61 286.305 123.236 285.487C121.878 284.679 120.495 284.027 119.434 283.779C119.166 283.706 118.942 283.681 118.732 283.652C118.542 283.647 118.362 283.633 118.245 283.652C118.119 283.667 118.026 283.681 117.944 283.715C117.856 283.735 117.783 283.788 117.685 283.847C117.496 283.983 117.218 284.261 116.945 284.718C116.921 284.752 116.853 284.869 116.799 284.966L116.629 285.268L116.288 285.867L115.616 287.064C114.725 288.665 113.878 290.266 113.103 291.862C112.714 292.66 112.354 293.454 112.022 294.237C111.691 295.021 111.389 295.795 111.156 296.525C110.922 297.25 110.742 297.96 110.679 298.481C110.644 298.739 110.644 298.943 110.644 299.055C110.654 299.153 110.659 299.138 110.596 299.016C110.537 298.9 110.382 298.71 110.274 298.647C110.26 298.627 110.226 298.617 110.211 298.608C110.206 298.598 110.196 298.598 110.187 298.598C110.196 298.598 110.206 298.598 110.211 298.612C110.221 298.622 110.26 298.627 110.279 298.637C110.401 298.676 110.596 298.744 110.883 298.778C111.01 298.807 111.18 298.812 111.326 298.831C111.497 298.841 111.652 298.856 111.837 298.861C113.274 298.909 115.032 298.724 116.78 298.476C120.32 297.965 124.001 297.172 127.697 296.452C131.397 295.722 135.127 294.967 138.886 294.32C140.776 293.994 142.577 295.264 142.904 297.152C143.215 298.963 142.051 300.691 140.294 301.119C136.651 302 133.009 302.89 129.338 303.805C127.502 304.268 125.652 304.711 123.782 305.139C121.907 305.567 120.018 305.976 118.056 306.331C116.079 306.672 114.072 306.993 111.73 307.012C111.438 307.012 111.127 307.003 110.825 306.993C110.503 306.969 110.201 306.959 109.856 306.915C109.203 306.847 108.473 306.711 107.694 306.463C107.494 306.394 107.304 306.336 107.095 306.248C106.885 306.161 106.676 306.068 106.471 305.971C106.257 305.859 106.038 305.737 105.829 305.611C105.614 305.479 105.395 305.319 105.186 305.168C104.334 304.526 103.569 303.586 103.107 302.613C102.634 301.64 102.43 300.691 102.337 299.849C102.26 299.021 102.284 298.282 102.347 297.6C102.483 296.242 102.771 295.113 103.082 294.033C103.399 292.957 103.764 291.965 104.154 291.001C104.538 290.037 104.947 289.108 105.371 288.198C106.213 286.378 107.104 284.63 108.02 282.917L108.711 281.637L109.062 281L109.237 280.683C109.296 280.576 109.344 280.484 109.447 280.318C110.119 279.146 111.049 277.924 112.349 276.897C113.644 275.875 115.334 275.14 116.945 274.911C117.759 274.775 118.533 274.766 119.283 274.795C120.013 274.843 120.729 274.936 121.381 275.082C124.016 275.666 126.056 276.746 127.911 277.9C129.756 279.068 131.373 280.377 132.868 281.759C134.358 283.146 135.746 284.591 137.021 286.11C138.292 287.633 139.437 289.249 140.449 290.947C140.961 291.794 141.428 292.67 141.862 293.571C142.295 294.476 142.68 295.391 143.001 296.398C143.244 297.157 142.821 297.97 142.061 298.213C141.667 298.34 141.263 298.286 140.927 298.101L140.868 298.067L140.854 298.082Z" fill="#0071BC"/>
<path d="M140.026 296.311C139.919 295.26 139.914 294.267 139.953 293.264C139.992 292.267 140.075 291.274 140.206 290.296C140.464 288.334 140.873 286.397 141.433 284.494C142.003 282.596 142.699 280.718 143.517 278.854C144.345 276.995 145.309 275.145 146.541 273.345C147.788 271.554 149.229 269.753 151.42 268.171C151.961 267.777 152.579 267.412 153.232 267.076C153.913 266.755 154.619 266.454 155.423 266.259C156.996 265.831 158.841 265.835 160.433 266.259C162.035 266.687 163.369 267.441 164.455 268.249C164.611 268.361 164.694 268.429 164.791 268.502L165.079 268.726L165.653 269.169L166.797 270.069C168.322 271.281 169.831 272.532 171.326 273.87C172.076 274.537 172.816 275.228 173.551 275.958C174.291 276.688 175.017 277.457 175.733 278.319C176.448 279.185 177.159 280.11 177.822 281.302C178.148 281.9 178.464 282.572 178.722 283.365C178.971 284.173 179.156 285.127 179.112 286.208C179.073 287.283 178.742 288.446 178.216 289.376C178.085 289.6 177.948 289.833 177.802 290.038C177.656 290.237 177.51 290.432 177.354 290.622C177.203 290.792 177.047 290.957 176.892 291.123C176.736 291.284 176.585 291.415 176.424 291.556C175.806 292.091 175.192 292.51 174.618 292.826C174.321 293.002 174.048 293.133 173.761 293.284C173.488 293.41 173.205 293.547 172.938 293.659C170.781 294.569 168.808 295.065 166.861 295.537C164.918 295.99 163.019 296.36 161.13 296.71C159.245 297.06 157.37 297.386 155.501 297.688C151.766 298.301 148.07 298.929 144.379 299.562C142.49 299.888 140.688 298.618 140.362 296.729C140.05 294.919 141.214 293.191 142.972 292.763C146.677 291.868 150.403 291.084 154.089 290.286C157.765 289.478 161.461 288.753 164.913 287.818C166.617 287.351 168.302 286.826 169.607 286.212C169.773 286.139 169.909 286.057 170.065 285.984C170.191 285.906 170.347 285.833 170.449 285.76C170.698 285.614 170.849 285.473 170.946 285.39C170.961 285.37 170.995 285.351 170.995 285.341C170.995 285.332 171.005 285.322 171.009 285.322C171 285.322 170.99 285.332 170.99 285.341C170.98 285.351 170.956 285.375 170.946 285.4C170.878 285.502 170.805 285.735 170.795 285.867C170.785 286.003 170.795 286.018 170.766 285.925C170.722 285.818 170.639 285.633 170.508 285.409C170.245 284.957 169.797 284.373 169.295 283.803C168.789 283.224 168.205 282.635 167.591 282.047C166.978 281.458 166.33 280.874 165.658 280.294C164.319 279.136 162.902 277.997 161.451 276.883L160.355 276.051L159.805 275.637L159.528 275.428C159.435 275.36 159.333 275.277 159.294 275.257C158.86 274.951 158.495 274.805 158.266 274.751C158.15 274.737 158.062 274.717 157.974 274.732C157.887 274.732 157.794 274.756 157.672 274.79C157.556 274.815 157.395 274.902 157.224 274.98C157.044 275.092 156.845 275.204 156.63 275.374C155.754 276.021 154.746 277.17 153.821 278.45C152.886 279.745 151.97 281.185 151.089 282.689C150.203 284.193 149.36 285.77 148.503 287.366C147.642 288.962 146.746 290.568 145.786 292.184C145.309 292.992 144.813 293.795 144.292 294.603C143.771 295.406 143.23 296.218 142.631 296.992L142.592 297.041C142.105 297.674 141.195 297.79 140.567 297.299C140.24 297.046 140.05 296.681 140.011 296.301L140.026 296.311Z" fill="#0071BC"/>
<path d="M201.015 304.523L90.1436 327.431L107.58 411.731L218.452 388.823L201.015 304.523Z" fill="#FFC388"/>
<path d="M202.039 284.815L81.3823 309.745L85.2495 328.442L205.906 303.512L202.039 284.815Z" fill="#FFC388"/>
<path d="M90.1299 327.439L201.004 304.536L203.039 314.386L90.1299 327.439Z" fill="#E5AE7C"/>
<path d="M149.63 295.29L133.646 298.593L155.02 401.928L171.004 398.626L149.63 295.29Z" fill="#0071BC"/>
<path d="M93.8524 352.352L97.1567 368.327L210.751 344.857L207.447 328.881L93.8524 352.352Z" fill="#0071BC"/>
<path d="M204.46 408.191L103.52 434.244L129.587 535.131L230.528 509.077L204.46 408.191Z" fill="#FFD4AE"/>
<path d="M300.791 376.666C300.226 375.673 299.734 374.641 299.267 373.629C298.799 372.612 298.356 371.599 297.942 370.587C297.1 368.567 296.33 366.557 295.6 364.572C294.874 362.586 294.159 360.625 293.384 358.741C292.615 356.858 291.797 355.038 290.93 353.393C290.068 351.758 289.095 350.268 288.189 349.373C287.965 349.139 287.756 348.974 287.566 348.818C287.381 348.697 287.21 348.57 287.079 348.521C286.942 348.458 286.84 348.419 286.738 348.404C286.64 348.37 286.533 348.38 286.397 348.38C286.124 348.404 285.681 348.512 285.131 348.794C285.082 348.808 284.951 348.886 284.834 348.95L284.478 349.144L283.772 349.534L282.37 350.317C280.51 351.368 278.684 352.449 276.946 353.568C276.074 354.128 275.227 354.697 274.423 355.276C273.615 355.855 272.846 356.444 272.164 357.028C271.487 357.607 270.878 358.206 270.499 358.688C270.309 358.926 270.182 359.126 270.114 359.243C270.06 359.345 270.08 359.335 270.09 359.175C270.104 359.019 270.06 358.741 269.997 358.61C269.997 358.581 269.968 358.547 269.958 358.537C269.958 358.527 269.948 358.518 269.939 358.513C269.948 358.518 269.953 358.527 269.953 358.542C269.953 358.556 269.992 358.586 270.002 358.61C270.099 358.722 270.25 358.907 270.513 359.116C270.62 359.218 270.786 359.33 270.922 359.442C271.088 359.554 271.234 359.666 271.414 359.783C272.816 360.708 274.677 361.593 276.571 362.411C280.408 364.061 284.556 365.511 288.676 367.049C292.805 368.577 296.983 370.096 301.117 371.74C303.201 372.568 304.214 374.923 303.386 377.006C302.592 378.997 300.382 380.009 298.371 379.367C294.207 378.023 290.039 376.69 285.822 375.366C283.714 374.709 281.601 374.023 279.478 373.308C277.355 372.592 275.217 371.848 273.045 371.006C270.869 370.139 268.678 369.239 266.331 367.832C266.038 367.662 265.736 367.453 265.439 367.263C265.133 367.039 264.841 366.849 264.524 366.596C263.915 366.134 263.273 365.55 262.644 364.83C262.489 364.64 262.333 364.465 262.177 364.251C262.021 364.036 261.87 363.817 261.724 363.598C261.578 363.355 261.437 363.102 261.305 362.849C261.174 362.591 261.052 362.294 260.935 362.017C260.483 360.858 260.288 359.457 260.419 358.206C260.541 356.95 260.916 355.88 261.335 354.984C261.758 354.113 262.235 353.388 262.713 352.75C263.672 351.48 264.651 350.531 265.62 349.65C266.589 348.774 267.558 348.005 268.531 347.285C269.505 346.56 270.474 345.884 271.448 345.236C273.396 343.942 275.349 342.74 277.311 341.591L278.781 340.739L279.517 340.321L279.887 340.112C280.008 340.043 280.116 339.98 280.315 339.873C281.703 339.114 283.368 338.462 285.292 338.233C287.205 337.999 289.333 338.306 291.081 339.056C291.977 339.416 292.747 339.878 293.482 340.365C294.183 340.856 294.835 341.382 295.395 341.927C297.665 344.117 299.038 346.433 300.182 348.711C301.307 350.994 302.12 353.286 302.768 355.573C303.405 357.861 303.902 360.143 304.248 362.435C304.584 364.728 304.74 367.029 304.71 369.341C304.701 370.495 304.637 371.653 304.516 372.816C304.394 373.979 304.223 375.128 303.926 376.325C303.702 377.23 302.787 377.78 301.886 377.556C301.419 377.439 301.049 377.143 300.825 376.758L300.786 376.69L300.791 376.666Z" fill="#0071BC"/>
<path d="M301.049 374.403C301.584 373.293 302.183 372.3 302.831 371.322C303.478 370.349 304.165 369.419 304.895 368.519C306.346 366.718 307.934 365.044 309.658 363.492C311.381 361.949 313.222 360.503 315.174 359.146C317.132 357.797 319.221 356.547 321.544 355.5C323.876 354.473 326.413 353.563 329.554 353.32C330.333 353.257 331.17 353.271 332.022 353.335C332.894 353.427 333.785 353.563 334.705 353.855C336.531 354.386 338.367 355.51 339.691 356.907C341.026 358.308 341.897 359.871 342.482 361.34C342.569 361.55 342.608 361.662 342.662 361.798L342.813 362.192L343.115 362.985L343.704 364.582C344.483 366.713 345.223 368.884 345.895 371.123C346.236 372.242 346.552 373.381 346.84 374.558C347.132 375.731 347.385 376.943 347.575 378.238C347.76 379.537 347.906 380.89 347.838 382.482C347.799 383.28 347.701 384.141 347.477 385.085C347.234 386.039 346.84 387.105 346.129 388.151C345.432 389.198 344.395 390.156 343.304 390.76C343.037 390.901 342.759 391.052 342.491 391.169C342.228 391.276 341.961 391.383 341.688 391.475C341.435 391.553 341.181 391.626 340.923 391.689C340.67 391.753 340.441 391.792 340.198 391.835C339.258 391.991 338.391 392.03 337.622 392.001C337.218 392.001 336.867 391.957 336.492 391.933C336.142 391.894 335.777 391.86 335.445 391.806C332.743 391.397 330.479 390.697 328.249 389.976C326.038 389.246 323.92 388.453 321.826 387.655C319.732 386.852 317.672 386.034 315.627 385.202C311.537 383.538 307.471 381.907 303.41 380.292C301.326 379.464 300.313 377.109 301.141 375.026C301.935 373.035 304.146 372.023 306.157 372.665C310.393 374.033 314.58 375.522 318.739 376.972C322.892 378.408 327.017 379.931 331.024 381.109C333.006 381.683 335.007 382.185 336.673 382.37C336.882 382.394 337.067 382.399 337.267 382.423C337.437 382.423 337.637 382.443 337.788 382.433C338.124 382.438 338.362 382.394 338.508 382.365C338.533 382.355 338.581 382.355 338.591 382.345C338.601 382.336 338.61 382.336 338.62 382.336C338.61 382.336 338.596 382.336 338.591 382.34C338.576 382.345 338.533 382.355 338.513 382.374C338.382 382.433 338.167 382.623 338.08 382.749C337.987 382.881 337.992 382.9 338.016 382.788C338.036 382.657 338.065 382.418 338.07 382.117C338.085 381.503 337.992 380.652 337.841 379.776C337.69 378.89 337.471 377.951 337.218 376.987C336.965 376.028 336.677 375.05 336.361 374.062C335.733 372.091 335.017 370.096 334.252 368.1L333.673 366.601L333.376 365.852L333.225 365.477C333.176 365.355 333.118 365.209 333.094 365.166C332.85 364.596 332.577 364.231 332.378 364.041C332.271 363.959 332.198 363.881 332.1 363.847C332.013 363.793 331.91 363.759 331.764 363.72C331.633 363.676 331.423 363.662 331.199 363.638C330.951 363.638 330.688 363.628 330.367 363.667C329.101 363.779 327.396 364.304 325.692 365.02C323.973 365.735 322.181 366.616 320.39 367.58C318.588 368.538 316.791 369.594 314.965 370.66C313.134 371.721 311.26 372.782 309.326 373.804C308.362 374.32 307.374 374.816 306.366 375.303C305.358 375.785 304.321 376.267 303.254 376.671L303.186 376.695C302.315 377.026 301.341 376.588 301.01 375.717C300.839 375.269 300.873 374.787 301.068 374.383L301.049 374.403Z" fill="#0071BC"/>
<path d="M356.759 419.731L232.388 375.003L198.344 469.566L322.715 514.294L356.759 419.731Z" fill="#FFA748"/>
<path d="M369.796 400.732L234.452 352.058L226.901 373.031L362.245 421.705L369.796 400.732Z" fill="#FFA748"/>
<path d="M232.377 375.001L356.749 419.731L352.771 430.779L232.377 375.001Z" fill="#CC833B"/>
<path d="M311.228 379.239L293.295 372.79L251.563 488.706L269.496 495.155L311.228 379.239Z" fill="#0071BC"/>
<path d="M220.903 402.092L214.45 420.016L341.873 465.841L348.325 447.918L220.903 402.092Z" fill="#0071BC"/>
<path d="M439.625 342.307H380.998C378.661 342.307 376.635 343.927 376.124 346.21L368.314 381.065L237.324 380.131C237.139 380.111 236.954 380.097 236.759 380.097C236.584 380.097 236.414 380.107 236.248 380.121L92.8909 379.094C92.8909 379.094 92.8666 379.094 92.8569 379.094C91.3474 379.094 89.9158 379.776 88.9663 380.953C88.0119 382.141 87.6467 383.698 87.9827 385.183L105.434 462.875C105.434 462.875 105.434 462.875 105.434 462.88L122.793 540.164C123.305 542.446 125.33 544.062 127.668 544.062L287.381 543.935C287.722 544.057 288.082 544.145 288.457 544.193C288.661 544.218 288.866 544.232 289.066 544.232C289.65 544.232 290.215 544.125 290.745 543.935L331.823 543.901L325.288 573.058H133.277C130.516 573.058 128.281 575.292 128.281 578.051C128.281 580.811 130.516 583.044 133.277 583.044H329.291C331.628 583.044 333.654 581.424 334.165 579.141L342.954 539.915C342.954 539.915 342.954 539.906 342.954 539.901L360.182 463.016C360.182 463.016 360.182 463.006 360.182 462.997L377.059 387.679C377.171 387.348 377.254 387.003 377.293 386.643L384.991 352.293H439.62C442.381 352.293 444.616 350.059 444.616 347.3C444.616 344.54 442.381 342.307 439.62 342.307H439.625ZM351.295 457.001L304.087 456.977L312.146 390.653L366.074 391.037L351.29 457.001H351.295ZM241.755 533.988V466.934L292.81 466.958L284.669 533.954L241.755 533.988ZM186.645 534.032L178.488 466.9L231.764 466.929V533.997L186.645 534.032ZM177.276 456.913L169.1 389.631L231.764 390.078V456.943L177.276 456.913ZM241.76 456.947V390.151L302.096 390.585L294.027 456.977L241.76 456.952V456.947ZM159.031 389.558L167.211 456.908L114.331 456.879L99.1139 389.129L159.031 389.558ZM116.575 466.871L168.429 466.895L176.585 534.036L131.67 534.07L116.575 466.866V466.871ZM294.743 533.949L302.885 466.968L349.065 466.992L334.068 533.92L294.743 533.949Z" fill="#7DA1BA"/>
<path d="M321.149 637.347C333.721 637.347 343.913 627.16 343.913 614.595C343.913 602.029 333.721 591.843 321.149 591.843C308.577 591.843 298.385 602.029 298.385 614.595C298.385 627.16 308.577 637.347 321.149 637.347Z" fill="black"/>
<path d="M321.149 630.402C312.429 630.402 305.334 623.312 305.334 614.595C305.334 605.879 312.429 598.788 321.149 598.788C329.87 598.788 336.965 605.879 336.965 614.595C336.965 623.312 329.87 630.402 321.149 630.402Z" fill="#7DA1BA"/>
<path d="M156.041 637.347C168.613 637.347 178.805 627.16 178.805 614.595C178.805 602.029 168.613 591.843 156.041 591.843C143.469 591.843 133.277 602.029 133.277 614.595C133.277 627.16 143.469 637.347 156.041 637.347Z" fill="black"/>
<path d="M156.041 630.402C147.32 630.402 140.226 623.312 140.226 614.595C140.226 605.879 147.32 598.788 156.041 598.788C164.762 598.788 171.857 605.879 171.857 614.595C171.857 623.312 164.762 630.402 156.041 630.402Z" fill="#7DA1BA"/>
<path d="M463.153 337.795H413.837C409.042 337.795 405.155 341.68 405.155 346.472V347.514C405.155 352.306 409.042 356.191 413.837 356.191H463.153C467.948 356.191 471.835 352.306 471.835 347.514V346.472C471.835 341.68 467.948 337.795 463.153 337.795Z" fill="black"/>
<path d="M213.627 173.691C236.045 151.285 236.045 114.958 213.627 92.5516C191.21 70.1457 154.863 70.1457 132.445 92.5516C110.028 114.958 110.028 151.285 132.445 173.691C154.863 196.096 191.21 196.096 213.627 173.691Z" fill="#0071BC"/>
<path d="M219.897 84.3497C220.286 84.3497 220.681 84.1988 220.978 83.9019L241.332 63.559C241.93 62.9604 241.93 61.9919 241.332 61.3933C240.733 60.7947 239.764 60.7947 239.165 61.3933L218.811 81.7362C218.212 82.3348 218.212 83.3033 218.811 83.9019C219.108 84.1988 219.502 84.3497 219.892 84.3497H219.897Z" fill="#FFA748"/>
<path d="M223.178 92.2682H251.961C252.808 92.2682 253.49 91.582 253.49 90.7401C253.49 89.8981 252.803 89.2119 251.961 89.2119H223.178C222.331 89.2119 221.649 89.8981 221.649 90.7401C221.649 91.582 222.336 92.2682 223.178 92.2682Z" fill="#FFA748"/>
<path d="M211.974 81.0697C212.822 81.0697 213.503 80.3834 213.503 79.5415V50.7742C213.503 49.9274 212.817 49.2461 211.974 49.2461C211.132 49.2461 210.445 49.9323 210.445 50.7742V79.5415C210.445 80.3883 211.132 81.0697 211.974 81.0697Z" fill="#FFA748"/>
<path d="M201.189 139.184H144.875C141.525 139.184 138.813 136.473 138.813 133.125C138.813 129.776 141.525 127.065 144.875 127.065H201.189C204.539 127.065 207.251 129.776 207.251 133.125C207.251 136.473 204.539 139.184 201.189 139.184Z" fill="white"/>
<path d="M179.097 104.98V161.264C179.097 164.612 176.385 167.323 173.034 167.323C169.684 167.323 166.972 164.612 166.972 161.264V104.98C166.972 101.632 169.684 98.9209 173.034 98.9209C176.385 98.9209 179.097 101.632 179.097 104.98Z" fill="white"/>
<path d="M430.436 293.011H301.516C299.271 293.011 297.45 291.191 297.45 288.948C297.45 286.704 299.271 284.884 301.516 284.884H430.436C432.681 284.884 434.502 286.704 434.502 288.948C434.502 291.191 432.681 293.011 430.436 293.011Z" fill="white"/>
<path d="M346.864 307.022H257.386C255.14 307.022 253.32 308.841 253.32 311.084C253.32 313.327 255.14 315.145 257.386 315.145H346.864C349.11 315.145 350.93 313.327 350.93 311.084C350.93 308.841 349.11 307.022 346.864 307.022Z" fill="white"/>
<path d="M275.232 293.011H272.13C269.885 293.011 268.064 291.191 268.064 288.948C268.064 286.704 269.885 284.884 272.13 284.884H275.232C277.476 284.884 279.297 286.704 279.297 288.948C279.297 291.191 277.476 293.011 275.232 293.011Z" fill="white"/>
<path d="M376.523 307.022H373.426C371.181 307.022 369.36 308.841 369.36 311.084C369.36 313.327 371.181 315.145 373.426 315.145H376.523C378.769 315.145 380.589 313.327 380.589 311.084C380.589 308.841 378.769 307.022 376.523 307.022Z" fill="white"/>
<path d="M74.6065 525.023L82.8989 523.154L74.6065 521.285C69.3184 520.093 65.1893 515.966 63.9963 510.681L62.1265 502.393L60.2567 510.681C59.0637 515.966 54.9345 520.093 49.6464 521.285L41.354 523.154L49.6464 525.023C54.9345 526.215 59.0637 530.342 60.2567 535.627L62.1265 543.916L63.9963 535.627C65.1893 530.342 69.3184 526.215 74.6065 525.023Z" fill="white"/>
<path d="M425.64 419.75L431.819 418.358L425.64 416.966C421.701 416.076 418.623 413.005 417.737 409.067L416.344 402.892L414.952 409.067C414.061 413.005 410.988 416.08 407.049 416.966L400.87 418.358L407.049 419.75C410.988 420.641 414.065 423.711 414.952 427.649L416.344 433.825L417.737 427.649C418.628 423.711 421.701 420.636 425.64 419.75Z" fill="white"/>
<path d="M494.935 130.838L491.073 127.781C489.754 126.798 488.449 125.781 487.105 124.817L485.074 123.382L484.057 122.662L483.02 121.97L480.936 120.579C480.239 120.111 479.519 119.688 478.812 119.235C475.979 117.43 473.013 115.809 470.004 114.198L467.71 113.055L466.556 112.485L465.383 111.95C464.599 111.595 463.815 111.23 463.021 110.884L460.616 109.891C454.169 107.283 447.367 105.034 440.145 103.384C436.532 102.572 432.817 101.924 429.014 101.467C425.211 101.034 421.311 100.79 417.376 100.854C409.503 100.951 401.434 102.148 393.78 104.684C386.135 107.215 378.914 110.981 372.569 115.833C370.977 117.04 369.438 118.316 367.953 119.654C366.463 120.987 365.031 122.389 363.644 123.854C362.767 124.779 361.92 125.732 361.082 126.715L343.197 111.93C343.197 111.93 330.464 120.184 322.664 207.348C346.426 197.293 412.585 169.295 412.585 169.295L394.822 154.612L394.968 154.47C395.825 153.638 396.706 152.806 397.588 151.974C398.464 151.137 399.355 150.309 400.246 149.477C402.028 147.813 403.825 146.163 405.651 144.518C407.472 142.863 409.332 141.228 411.251 139.612C415.098 136.405 419.212 133.237 423.892 130.58C426.229 129.256 428.698 128.054 431.293 127.056C433.888 126.039 436.605 125.226 439.415 124.618C445.034 123.426 451.014 123.153 456.993 123.795L459.238 124.058C459.988 124.16 460.733 124.287 461.488 124.399L462.617 124.574L463.742 124.783L466.001 125.212C469.001 125.859 472.015 126.608 474.995 127.543C486.959 131.183 498.601 136.897 509.465 143.851C504.824 139.364 500.013 134.994 494.945 130.842L494.935 130.838Z" fill="#00A99D"/>
<path d="M748.266 15.8945H559.336V51.4217H748.266V15.8945Z" fill="#29ABE2"/>
</g>
<defs>
<filter id="filter0_d_289_951" x="0" y="0" width="842.603" height="668.069" filterUnits="userSpaceOnUse" color-interpolation-filters="sRGB">
<feFlood flood-opacity="0" result="BackgroundImageFix"/>
<feColorMatrix in="SourceAlpha" type="matrix" values="0 0 0 0 0 0 0 0 0 0 0 0 0 0 0 0 0 0 127 0" result="hardAlpha"/>
<feOffset dy="4"/>
<feGaussianBlur stdDeviation="2"/>
<feComposite in2="hardAlpha" operator="out"/>
<feColorMatrix type="matrix" values="0 0 0 0 0 0 0 0 0 0 0 0 0 0 0 0 0 0 0.25 0"/>
<feBlend mode="normal" in2="BackgroundImageFix" result="effect1_dropShadow_289_951"/>
<feBlend mode="normal" in="SourceGraphic" in2="effect1_dropShadow_289_951" result="shape"/>
</filter>
<linearGradient id="paint0_linear_289_951" x1="380.345" y1="122.189" x2="844.515" y2="586.604" gradientUnits="userSpaceOnUse">
<stop/>
<stop offset="0.12" stop-color="#383838"/>
<stop offset="0.24" stop-color="#6C6C6C"/>
<stop offset="0.37" stop-color="#999999"/>
<stop offset="0.5" stop-color="#BEBEBE"/>
<stop offset="0.62" stop-color="#DADADA"/>
<stop offset="0.75" stop-color="#EEEEEE"/>
<stop offset="0.88" stop-color="#FAFAFA"/>
<stop offset="1" stop-color="white"/>
</linearGradient>
</defs>
</svg>
