<svg width="843" height="669" viewBox="0 0 843 669" fill="none" xmlns="http://www.w3.org/2000/svg">
<g filter="url(#filter0_d_231_951)">
<path d="M70.1868 246.943C72.9575 248.613 75.9862 250.009 79.1269 251.085C99.7338 258.166 120.633 250.511 140.665 245.026C193.677 230.508 251.057 211.231 293.221 174.653C297.569 170.881 301.737 166.9 305.608 162.642C365.574 96.6683 86.2215 165.713 59.2893 213.927C51.4108 228.036 58.5638 239.935 70.1868 246.943Z" fill="#BBF1FF"/>
<mask id="mask0_231_951" style="mask-type:luminance" maskUnits="userSpaceOnUse" x="4" y="1" width="835" height="660">
<path d="M820.484 383.066C815.887 396.941 810.487 410.154 804.366 422.734C804.342 422.788 804.317 422.837 804.293 422.885C796.712 438.449 788.02 453.044 778.345 466.725C771.888 475.86 764.993 484.581 757.704 492.922C755.639 495.283 753.54 497.619 751.412 499.916C741.684 510.438 731.302 520.303 720.366 529.559C715.268 533.881 710.048 538.066 704.706 542.115C700.173 545.561 695.562 548.909 690.877 552.165C685.399 555.976 679.819 559.655 674.141 563.213C668.625 566.683 663.01 570.031 657.323 573.263C650.579 577.102 643.723 580.782 636.76 584.31C629.894 587.795 622.926 591.128 615.87 594.321C607.033 598.321 598.063 602.098 588.987 605.665C587.916 606.084 586.84 606.502 585.768 606.916C571.662 612.367 557.293 617.311 542.758 621.784C535.337 624.071 527.867 626.232 520.369 628.281C406.953 659.233 286.525 663.404 201.926 658.396C146.864 655.14 97.0701 639.596 59.3233 598C26.2899 561.597 9.57357 513.329 5.59535 464.885C1.77781 418.32 5.47362 363.078 36.1162 325.458C68.5701 285.619 124.397 277.394 171.166 264.887C216.884 252.662 261.18 234.669 301.196 209.26C321.458 196.397 333.855 183.656 346.69 163.401C359.433 143.292 369.897 121.615 384.724 102.883C412.436 67.8718 446.501 38.3794 488.241 21.4286C564.485 -9.53356 654.966 -4.29696 728.137 32.3836C728.157 32.3933 728.176 32.4031 728.191 32.4128C758.648 50.2494 784.986 75.7656 804.303 109.604C804.332 109.648 804.356 109.687 804.376 109.735C810.487 120.442 815.887 131.981 820.493 144.367C829.891 169.645 835.987 198.466 838.003 231.005C841.587 288.89 835.014 339.27 820.493 383.056L820.484 383.066Z" fill="white"/>
</mask>
<g mask="url(#mask0_231_951)">
<path d="M848 -25H3V672.593H848V-25Z" fill="#BBF1FF"/>
<path d="M804.293 45.7082V576.192C804.293 576.985 804.269 577.764 804.196 578.538C803.003 593.732 790.289 605.679 774.78 605.679H527.57C511.253 605.679 498.048 592.486 498.048 576.197V45.7082C498.048 29.4144 511.253 16.2256 527.57 16.2256H573.59V22.82C573.59 30.8209 580.086 37.3083 588.091 37.3083H717.249C725.269 37.3083 731.76 30.8209 731.76 22.82V16.2256H774.78C791.092 16.2256 804.293 29.4193 804.293 45.7082Z" fill="#FFA748"/>
<mask id="mask1_231_951" style="mask-type:luminance" maskUnits="userSpaceOnUse" x="498" y="16" width="307" height="590">
<path d="M804.293 45.7082V576.192C804.293 576.985 804.269 577.764 804.196 578.538C803.003 593.732 790.289 605.679 774.78 605.679H527.57C511.253 605.679 498.048 592.486 498.048 576.197V45.7082C498.048 29.4144 511.253 16.2256 527.57 16.2256H573.59V22.82C573.59 30.8209 580.086 37.3083 588.091 37.3083H717.249C725.269 37.3083 731.76 30.8209 731.76 22.82V16.2256H774.78C791.092 16.2256 804.293 29.4193 804.293 45.7082Z" fill="white"/>
</mask>
<g mask="url(#mask1_231_951)">
<path d="M757.689 529.559H544.652C533.247 529.559 524.001 538.799 524.001 550.198V586.285C524.001 597.684 533.247 606.925 544.652 606.925H757.689C769.094 606.925 778.34 597.684 778.34 586.285V550.198C778.34 538.799 769.094 529.559 757.689 529.559Z" fill="white"/>
<path d="M589.839 538.601H547.588C542.877 538.601 539.057 542.418 539.057 547.127V589.356C539.057 594.065 542.877 597.882 547.588 597.882H589.839C594.551 597.882 598.37 594.065 598.37 589.356V547.127C598.37 542.418 594.551 538.601 589.839 538.601Z" fill="#0071BC"/>
<path d="M758.259 552.169H616.465C613.689 552.169 611.439 549.921 611.439 547.146C611.439 544.372 613.689 542.124 616.465 542.124H758.259C761.034 542.124 763.284 544.372 763.284 547.146C763.284 549.921 761.034 552.169 758.259 552.169Z" fill="#B3B3B3"/>
<path d="M758.259 573.267H616.465C613.689 573.267 611.439 571.018 611.439 568.244C611.439 565.47 613.689 563.222 616.465 563.222H758.259C761.034 563.222 763.284 565.47 763.284 568.244C763.284 571.018 761.034 573.267 758.259 573.267Z" fill="#B3B3B3"/>
<path d="M723.399 594.368H616.465C613.689 594.368 611.439 592.12 611.439 589.346C611.439 586.572 613.689 584.323 616.465 584.323H723.399C726.175 584.323 728.425 586.572 728.425 589.346C728.425 592.12 726.175 594.368 723.399 594.368Z" fill="#B3B3B3"/>
<path d="M757.689 422.555H544.652C533.247 422.555 524.001 431.795 524.001 443.195V479.281C524.001 490.68 533.247 499.921 544.652 499.921H757.689C769.094 499.921 778.34 490.68 778.34 479.281V443.195C778.34 431.795 769.094 422.555 757.689 422.555Z" fill="white"/>
<path d="M589.839 431.597H547.588C542.877 431.597 539.057 435.414 539.057 440.123V482.352C539.057 487.061 542.877 490.878 547.588 490.878H589.839C594.551 490.878 598.37 487.061 598.37 482.352V440.123C598.37 435.414 594.551 431.597 589.839 431.597Z" fill="#0071BC"/>
<path d="M758.259 445.16H616.465C613.689 445.16 611.439 442.912 611.439 440.138C611.439 437.364 613.689 435.115 616.465 435.115H758.259C761.034 435.115 763.284 437.364 763.284 440.138C763.284 442.912 761.034 445.16 758.259 445.16Z" fill="#B3B3B3"/>
<path d="M758.259 466.263H616.465C613.689 466.263 611.439 464.014 611.439 461.24C611.439 458.466 613.689 456.218 616.465 456.218H758.259C761.034 456.218 763.284 458.466 763.284 461.24C763.284 464.014 761.034 466.263 758.259 466.263Z" fill="#B3B3B3"/>
<path d="M723.399 487.359H616.465C613.689 487.359 611.439 485.111 611.439 482.337C611.439 479.563 613.689 477.314 616.465 477.314H723.399C726.175 477.314 728.425 479.563 728.425 482.337C728.425 485.111 726.175 487.359 723.399 487.359Z" fill="#B3B3B3"/>
<path d="M757.689 315.55H544.652C533.247 315.55 524.001 324.791 524.001 336.19V372.276C524.001 383.675 533.247 392.916 544.652 392.916H757.689C769.094 392.916 778.34 383.675 778.34 372.276V336.19C778.34 324.791 769.094 315.55 757.689 315.55Z" fill="white"/>
<path d="M589.839 324.592H547.588C542.877 324.592 539.057 328.409 539.057 333.118V375.347C539.057 380.056 542.877 383.873 547.588 383.873H589.839C594.551 383.873 598.37 380.056 598.37 375.347V333.118C598.37 328.409 594.551 324.592 589.839 324.592Z" fill="#0071BC"/>
<path d="M758.259 328.105H616.465C613.689 328.105 611.439 330.354 611.439 333.128V333.133C611.439 335.907 613.689 338.155 616.465 338.155H758.259C761.034 338.155 763.284 335.907 763.284 333.133V333.128C763.284 330.354 761.034 328.105 758.259 328.105Z" fill="#B3B3B3"/>
<path d="M758.259 359.253H616.465C613.689 359.253 611.439 357.005 611.439 354.23C611.439 351.456 613.689 349.208 616.465 349.208H758.259C761.034 349.208 763.284 351.456 763.284 354.23C763.284 357.005 761.034 359.253 758.259 359.253Z" fill="#B3B3B3"/>
<path d="M723.399 380.354H616.465C613.689 380.354 611.439 378.106 611.439 375.332C611.439 372.558 613.689 370.31 616.465 370.31H723.399C726.175 370.31 728.425 372.558 728.425 375.332C728.425 378.106 726.175 380.354 723.399 380.354Z" fill="#B3B3B3"/>
<path d="M757.689 208.54H544.652C533.247 208.54 524.001 217.781 524.001 229.18V265.267C524.001 276.666 533.247 285.906 544.652 285.906H757.689C769.094 285.906 778.34 276.666 778.34 265.267V229.18C778.34 217.781 769.094 208.54 757.689 208.54Z" fill="white"/>
<path d="M589.839 217.582H547.588C542.877 217.582 539.057 221.399 539.057 226.109V268.337C539.057 273.046 542.877 276.864 547.588 276.864H589.839C594.551 276.864 598.37 273.046 598.37 268.337V226.109C598.37 221.399 594.551 217.582 589.839 217.582Z" fill="#0071BC"/>
<path d="M758.259 231.15H616.465C613.689 231.15 611.439 228.902 611.439 226.128C611.439 223.354 613.689 221.105 616.465 221.105H758.259C761.034 221.105 763.284 223.354 763.284 226.128C763.284 228.902 761.034 231.15 758.259 231.15Z" fill="#B3B3B3"/>
<path d="M758.259 252.248H616.465C613.689 252.248 611.439 250 611.439 247.226C611.439 244.452 613.689 242.203 616.465 242.203H758.259C761.034 242.203 763.284 244.452 763.284 247.226C763.284 250 761.034 252.248 758.259 252.248Z" fill="#B3B3B3"/>
<path d="M723.399 263.3H616.465C613.689 263.3 611.439 265.548 611.439 268.322V268.327C611.439 271.101 613.689 273.35 616.465 273.35H723.399C726.175 273.35 728.425 271.101 728.425 268.327V268.322C728.425 265.548 726.175 263.3 723.399 263.3Z" fill="#B3B3B3"/>
<path d="M792.383 116.072V156.144C792.383 168.803 782.113 179.062 769.453 179.062H532.883C520.222 179.062 509.953 168.803 509.953 156.144V116.072C509.953 103.413 520.222 93.1543 532.883 93.1543H769.453C782.113 93.1543 792.383 103.413 792.383 116.072Z" fill="white"/>
<path d="M682.609 137.972C682.609 153.492 677.277 167.761 668.342 179.062H564.183C555.252 167.761 549.916 153.492 549.916 137.972C549.916 120.695 556.528 104.961 567.362 93.1543H665.157C675.992 104.961 682.604 120.695 682.604 137.972H682.609Z" fill="#E6E6E6"/>
<path d="M583.066 103.194H536.145C530.915 103.194 526.674 107.432 526.674 112.66V159.556C526.674 164.784 530.915 169.022 536.145 169.022H583.066C588.296 169.022 592.537 164.784 592.537 159.556V112.66C592.537 107.432 588.296 103.194 583.066 103.194Z" fill="#0071BC"/>
<path d="M770.086 118.257H612.632C609.55 118.257 607.052 115.76 607.052 112.68C607.052 109.599 609.55 107.103 612.632 107.103H770.086C773.168 107.103 775.666 109.599 775.666 112.68C775.666 115.76 773.168 118.257 770.086 118.257Z" fill="#B3B3B3"/>
<path d="M770.086 141.686H612.632C609.55 141.686 607.052 139.189 607.052 136.109C607.052 133.028 609.55 130.531 612.632 130.531H770.086C773.168 130.531 775.666 133.028 775.666 136.109C775.666 139.189 773.168 141.686 770.086 141.686Z" fill="#B3B3B3"/>
<path d="M731.375 165.118H612.632C609.55 165.118 607.052 162.622 607.052 159.541C607.052 156.46 609.55 153.964 612.632 153.964H731.375C734.457 153.964 736.955 156.46 736.955 159.541C736.955 162.622 734.457 165.118 731.375 165.118Z" fill="#B3B3B3"/>
</g>
<path d="M820.489 161.289V45.7087C820.489 20.5331 800.057 0.112305 774.858 0.112305H527.648C502.445 0.112305 482.008 20.5331 482.008 45.7087V84.3165C480.114 84.9005 478.736 86.672 478.736 88.7647V106.601C478.736 108.689 480.114 110.456 482.008 111.054V142.026C480.114 142.61 478.736 144.382 478.736 146.47V185.802C478.736 187.895 480.114 189.672 482.008 190.26V199.731C480.114 200.315 478.736 202.091 478.736 204.184V243.512C478.736 245.605 480.114 247.372 482.008 247.97V576.197C482.008 583.979 483.971 591.318 487.413 597.732C493.802 609.632 505.328 618.363 519.025 620.981C521.825 621.521 524.693 621.803 527.653 621.803H774.863C799.278 621.803 819.203 602.653 820.435 578.548C820.474 577.769 820.493 576.981 820.493 576.202V240.12C822.305 239.492 823.615 237.76 823.615 235.73V165.693C823.615 163.664 822.305 161.936 820.493 161.298L820.489 161.289ZM804.371 576.192C804.371 576.986 804.347 577.764 804.274 578.538C803.081 593.732 790.367 605.68 774.858 605.68H527.648C511.331 605.68 498.126 592.486 498.126 576.197V45.7087C498.126 29.4149 511.331 16.2261 527.648 16.2261H573.668V22.8205C573.668 30.8214 580.164 37.3087 588.169 37.3087H717.327C725.347 37.3087 731.838 30.8214 731.838 22.8205V16.2261H774.858C791.171 16.2261 804.371 29.4198 804.371 45.7087V576.192Z" fill="#14145E"/>
<path d="M774.805 392.186L766.614 446.654C766.941 448.757 767.233 450.913 766.887 453.069C758.921 502.529 718.686 615.126 713.033 624.689C710.515 628.962 704.604 685.071 704.604 685.071L708.192 742.639L521.961 747C521.961 747 519.463 700.732 520.057 698.362C521.42 692.921 531.875 652.863 511.073 594.141C506.228 580.455 495.74 464.141 495.74 464.141L526.791 361.696C529.284 354.878 534.407 349.495 540.844 346.619C542.587 345.835 544.423 345.237 546.332 344.852C546.97 344.716 547.627 344.609 548.28 344.526L537.148 385.927L529.163 415.639L514.613 469.737L539.12 407.818L553.417 343.859L595.823 135.072C597.396 127.334 603.532 121.489 611.079 120.111C612.204 119.907 613.353 119.8 614.522 119.8C625.161 119.8 633.604 128.463 633.604 138.843C633.604 139.51 633.57 140.191 633.497 140.873C628.492 188.246 617.146 301.752 619.303 336.744C619.493 339.713 619.771 342.112 620.16 343.859C620.482 345.295 621.163 346.736 622.176 348.181L638.854 300.448C641.965 291.557 649.741 285.497 658.584 284.247C661.593 283.818 664.724 283.945 667.836 284.704C678.967 287.41 686.578 297.372 686.578 308.527C686.578 309.675 686.505 310.839 686.334 312.011L682.638 337.888L677.886 371.132L691.817 331.279C694.928 322.378 702.705 316.328 711.552 315.077C714.562 314.649 717.688 314.771 720.804 315.535C731.925 318.241 739.546 328.198 739.546 339.343C739.546 340.501 739.463 341.669 739.293 342.842L735.787 367.4L734.818 374.15C738.557 369.215 743.884 365.935 749.664 364.991C752.42 364.543 755.274 364.626 758.108 365.312C768.26 367.784 775.106 377.333 775.106 388.249C775.106 389.548 775.009 390.862 774.814 392.181L774.805 392.186Z" fill="#FDB59E"/>
<path d="M658.574 284.256C649.731 285.507 641.955 291.566 638.844 300.458L622.166 348.191C621.153 346.75 620.472 345.305 620.15 343.869C619.761 342.122 619.483 339.718 619.293 336.754L631.978 300.463C635.873 289.313 647.097 282.631 658.574 284.261V284.256Z" fill="#F38F8F"/>
<path d="M711.537 315.087C702.685 316.338 694.914 322.387 691.802 331.289L677.871 371.142L682.624 337.898L684.932 331.289C688.827 320.139 700.051 313.457 711.537 315.087Z" fill="#F38F8F"/>
<path d="M749.655 364.995C743.875 365.939 738.543 369.22 734.808 374.154L735.777 367.404C739.999 365.127 744.829 364.202 749.659 364.995H749.655Z" fill="#F38F8F"/>
<path d="M553.407 343.869L539.111 407.828L514.604 469.747L548.27 344.526L553.407 343.869Z" fill="#F38F8F"/>
<path d="M665.396 367.706C665.396 367.706 679.405 384.107 677.876 415.619C677.876 415.619 674.784 395.334 667.918 394.712C661.048 394.089 671.935 384.691 665.401 367.701L665.396 367.706Z" fill="#F38F8F"/>
<path d="M717.751 391.665C717.751 391.665 726.754 405.949 722.021 430.195C722.021 430.195 721.914 414.13 716.66 412.874C711.406 411.619 720.901 405.564 717.751 391.665Z" fill="#F38F8F"/>
</g>
<path d="M804.293 45.7082V422.885C796.712 438.449 788.02 453.044 778.345 466.724C771.888 475.859 764.993 484.58 757.704 492.922C755.639 495.282 753.54 497.618 751.412 499.915C741.684 510.437 731.302 520.302 720.366 529.559C715.268 533.88 710.048 538.066 704.706 542.115C700.173 545.561 695.562 548.909 690.877 552.165C685.399 555.975 679.819 559.655 674.141 563.212C668.625 566.682 663.01 570.031 657.323 573.262C650.579 577.102 643.723 580.781 636.76 584.31C629.894 587.794 622.926 591.128 615.87 594.32C607.033 598.321 598.063 602.097 588.987 605.665H527.648C527.39 605.665 527.142 605.665 526.884 605.655C526.592 605.655 526.295 605.636 526.002 605.621C525.71 605.606 525.418 605.587 525.121 605.563C524.844 605.543 524.561 605.514 524.284 605.485C524.264 605.485 524.24 605.485 524.225 605.475C523.972 605.451 523.724 605.421 523.475 605.383C523.427 605.383 523.378 605.373 523.329 605.363C523.066 605.324 522.803 605.285 522.54 605.236C522.36 605.207 522.175 605.173 521.99 605.139C521.864 605.115 521.737 605.09 521.62 605.066C521.05 604.949 520.49 604.818 519.94 604.677C519.726 604.618 519.517 604.56 519.302 604.497C519.224 604.472 519.142 604.448 519.059 604.429C518.874 604.375 518.694 604.317 518.509 604.258C518.182 604.156 517.861 604.049 517.544 603.932C517.048 603.752 516.551 603.562 516.069 603.358C515.762 603.227 515.456 603.095 515.154 602.949C514.686 602.735 514.233 602.506 513.781 602.268C513.206 601.966 512.636 601.64 512.081 601.299C512.062 601.29 512.042 601.275 512.028 601.26C511.497 600.934 510.981 600.589 510.474 600.233C510.455 600.219 510.435 600.204 510.421 600.19C509.885 599.81 509.364 599.406 508.858 598.992C508.833 598.973 508.809 598.954 508.789 598.939C508.556 598.749 508.327 598.554 508.108 598.36C507.879 598.16 507.655 597.956 507.431 597.751C507.392 597.717 507.363 597.688 507.324 597.649C507.105 597.445 506.886 597.231 506.671 597.017C506.438 596.783 506.209 596.549 505.99 596.316C505.99 596.316 505.99 596.316 505.98 596.306C505.756 596.068 505.537 595.829 505.323 595.581C505.142 595.372 504.957 595.162 504.782 594.948C504.597 594.724 504.417 594.496 504.232 594.267C504.12 594.121 504.013 593.98 503.906 593.834C503.618 593.454 503.341 593.06 503.073 592.666C502.946 592.481 502.82 592.291 502.703 592.096C502.693 592.082 502.683 592.067 502.674 592.052C502.552 591.863 502.43 591.673 502.313 591.478C502.196 591.284 502.08 591.094 501.968 590.899C501.836 590.67 501.705 590.442 501.583 590.213C501.374 589.819 501.164 589.42 500.969 589.011C500.955 588.982 500.94 588.952 500.926 588.923C500.833 588.724 500.741 588.524 500.648 588.325C500.57 588.149 500.492 587.969 500.409 587.789C500.297 587.526 500.19 587.268 500.088 587.006C500 586.782 499.918 586.553 499.83 586.329C499.664 585.877 499.509 585.424 499.363 584.957C499.216 584.494 499.085 584.027 498.968 583.555C498.783 582.835 498.622 582.105 498.491 581.365C498.452 581.151 498.423 580.937 498.384 580.718C498.34 580.426 498.301 580.134 498.262 579.837C498.238 579.623 498.208 579.414 498.194 579.199C498.179 579.058 498.165 578.917 498.15 578.776C498.135 578.615 498.121 578.45 498.111 578.284C498.058 577.593 498.038 576.888 498.038 576.182V45.7082C498.038 44.6522 498.092 43.6058 498.204 42.5789C498.218 42.4037 498.243 42.2237 498.262 42.0485C498.286 41.8538 498.311 41.6591 498.34 41.4644C498.369 41.2503 498.398 41.0362 498.437 40.8269C498.437 40.8074 498.437 40.7831 498.447 40.7685C498.471 40.6128 498.496 40.457 498.53 40.3013C498.554 40.1456 498.583 39.9947 498.618 39.8438C498.652 39.6589 498.691 39.4788 498.734 39.2939C498.764 39.1479 498.793 39.0019 498.832 38.8559C498.876 38.6807 498.915 38.5055 498.963 38.3351C499.022 38.0967 499.085 37.8631 499.153 37.6343C499.216 37.391 499.289 37.1574 499.363 36.9189C499.431 36.7097 499.499 36.5004 499.567 36.2911C499.728 35.819 499.898 35.3567 500.078 34.8944C500.161 34.6705 500.254 34.4564 500.341 34.2373C500.818 33.1131 501.364 32.0181 501.972 30.9669C502.08 30.782 502.187 30.597 502.299 30.4121C502.406 30.232 502.518 30.052 502.635 29.8768C503.19 29.0007 503.794 28.1539 504.441 27.3461C504.582 27.1757 504.719 27.0005 504.86 26.835C505.001 26.6647 505.142 26.4944 505.293 26.3289C505.439 26.1634 505.585 25.9931 505.736 25.8325C506.033 25.5064 506.34 25.1852 506.657 24.8689C506.813 24.7132 506.968 24.5574 507.129 24.4017C507.45 24.0951 507.782 23.7933 508.113 23.5062C508.278 23.3553 508.449 23.2142 508.619 23.0731C508.79 22.9271 508.965 22.7908 509.135 22.6497C509.306 22.5134 509.486 22.3771 509.661 22.2409C509.836 22.1046 510.017 21.9781 510.197 21.8466C510.372 21.7152 510.557 21.5838 510.742 21.4622C510.898 21.3551 511.049 21.248 511.205 21.1458C511.623 20.8684 512.052 20.6008 512.485 20.3428C512.656 20.2406 512.836 20.1384 513.006 20.0411C514.175 19.3792 515.392 18.7952 516.649 18.2988C516.858 18.2161 517.072 18.1382 517.282 18.0555C517.496 17.9776 517.71 17.8997 517.924 17.8267C518.139 17.7537 518.353 17.6807 518.572 17.6126C518.786 17.5445 519.005 17.4763 519.224 17.4131C519.444 17.3498 519.668 17.2865 519.887 17.2281C520.111 17.1746 520.33 17.1113 520.554 17.0626C520.778 17.0091 521.002 16.9556 521.226 16.9069C521.455 16.8534 521.679 16.8096 521.907 16.7658C522.136 16.7171 522.365 16.6782 522.589 16.6392C522.818 16.6003 523.047 16.5662 523.276 16.5322C523.505 16.4981 523.738 16.4689 523.967 16.4397C524.201 16.4105 524.435 16.3862 524.663 16.3667C525.141 16.318 525.632 16.284 526.119 16.2596C526.368 16.245 526.616 16.2353 526.869 16.2304C527.127 16.2304 527.376 16.2207 527.634 16.2207H573.581V22.8151C573.581 23.0633 573.58 23.3067 573.6 23.55V23.5597C573.615 23.8031 573.634 24.0367 573.654 24.2751V24.2946C573.678 24.5185 573.707 24.7424 573.736 24.9614C573.736 24.9857 573.736 25.0052 573.746 25.0198C573.78 25.2485 573.819 25.4772 573.868 25.7011C573.916 25.9347 573.965 26.1683 574.024 26.3922C574.024 26.4068 574.024 26.4214 574.033 26.436C574.087 26.6501 574.15 26.8642 574.213 27.0735C574.277 27.2974 574.355 27.5213 574.438 27.7403C574.511 27.9495 574.593 28.1539 574.676 28.3583C574.691 28.3924 574.705 28.4216 574.72 28.4557C574.798 28.6503 574.885 28.8353 574.978 29.0299C574.993 29.0543 575.002 29.0786 575.012 29.0981C575.095 29.2733 575.183 29.4485 575.275 29.6188C575.295 29.6529 575.314 29.687 575.329 29.7259C575.426 29.9011 575.523 30.0763 575.63 30.2466C575.742 30.4413 575.864 30.6262 575.991 30.8209C576.015 30.855 576.039 30.8842 576.054 30.9182C576.161 31.074 576.273 31.2346 576.385 31.3903C576.546 31.6142 576.721 31.8283 576.892 32.0376C577.004 32.1739 577.116 32.3004 577.232 32.4318C577.271 32.4805 577.306 32.5194 577.349 32.5632C577.461 32.6849 577.573 32.8114 577.695 32.9282C578.182 33.4343 578.713 33.9064 579.278 34.3347C579.458 34.4758 579.643 34.6072 579.833 34.7386C580.008 34.8652 580.193 34.9868 580.378 35.0988C580.402 35.1182 580.427 35.1328 580.446 35.1474C580.622 35.2545 580.802 35.3616 580.982 35.4638C580.996 35.4735 581.016 35.4832 581.031 35.493C581.181 35.5757 581.332 35.6536 581.488 35.7363C581.532 35.7606 581.576 35.7801 581.62 35.7996C581.829 35.9066 582.038 36.004 582.253 36.0964C582.462 36.1889 582.681 36.2765 582.9 36.3592C583.076 36.4274 583.261 36.4955 583.441 36.5539C583.499 36.5782 583.563 36.5977 583.626 36.6123C584.015 36.7388 584.41 36.8508 584.819 36.9433C584.853 36.953 584.882 36.9627 584.921 36.9676C585.121 37.0163 585.325 37.0503 585.525 37.0893C585.583 37.1039 585.647 37.1136 585.705 37.1233C585.914 37.1574 586.124 37.1866 586.333 37.2109C586.577 37.2401 586.81 37.2645 587.059 37.2791C587.302 37.2985 587.541 37.3083 587.789 37.3131C587.911 37.3131 588.037 37.3131 588.159 37.3131H717.318C717.415 37.3131 717.517 37.3131 717.615 37.3131C717.746 37.3131 717.878 37.3034 718.004 37.2985C718.131 37.2985 718.257 37.2839 718.379 37.2742C718.472 37.2742 718.559 37.2596 718.652 37.245C718.686 37.245 718.715 37.245 718.749 37.2353C719.007 37.2109 719.265 37.1769 719.518 37.1331C719.699 37.1087 719.884 37.0795 720.059 37.0406C720.142 37.026 720.22 37.0065 720.298 36.9871C720.434 36.9627 720.565 36.9335 720.702 36.8946C720.867 36.8556 721.033 36.8167 721.193 36.768C721.193 36.768 721.203 36.768 721.213 36.768C721.403 36.7145 721.593 36.6561 721.783 36.5928C721.841 36.5734 721.9 36.5539 721.953 36.5344C722.114 36.4809 722.284 36.4225 722.44 36.3641C722.494 36.3446 722.537 36.3252 722.581 36.3106C722.771 36.2376 722.956 36.1548 723.141 36.077C723.17 36.0624 723.195 36.0526 723.209 36.0429C723.375 35.9699 723.545 35.8872 723.706 35.8044C723.964 35.6779 724.212 35.5416 724.461 35.4005C724.626 35.308 724.792 35.2107 724.953 35.1085C724.992 35.0842 725.021 35.0598 725.06 35.0404C725.216 34.943 725.366 34.8408 725.517 34.7338C725.561 34.7046 725.6 34.6802 725.639 34.651C725.785 34.5488 725.922 34.4466 726.063 34.3396C726.111 34.3055 726.155 34.2714 726.199 34.2325C726.355 34.1108 726.506 33.9843 726.657 33.8626C726.832 33.7117 727.003 33.5609 727.168 33.4003C727.197 33.3759 727.222 33.3467 727.251 33.3224C727.392 33.191 727.524 33.0596 727.655 32.9233C727.811 32.7627 727.967 32.5924 728.123 32.4221C728.264 32.2663 728.4 32.1009 728.536 31.9354C728.673 31.7748 728.799 31.5996 728.926 31.4292C729.053 31.2638 729.179 31.0837 729.291 30.9085C729.413 30.7333 729.53 30.5484 729.642 30.3683C729.642 30.3683 729.642 30.3586 729.652 30.3537C729.759 30.1785 729.866 29.9936 729.963 29.8086C730.065 29.6237 730.168 29.4339 730.26 29.2392C730.353 29.0543 730.435 28.8742 730.523 28.6844C730.616 28.4751 730.703 28.261 730.786 28.0469C730.844 27.8911 730.903 27.7403 730.952 27.5845C730.966 27.5505 730.981 27.5164 730.991 27.4823C731.015 27.4239 731.034 27.3558 731.054 27.2925C731.107 27.1368 731.156 26.9713 731.2 26.8156V26.8058C731.249 26.6404 731.292 26.4652 731.331 26.2997C731.356 26.2121 731.38 26.1245 731.395 26.032C731.424 25.9055 731.448 25.7838 731.473 25.6622C731.492 25.5794 731.507 25.4967 731.521 25.4042C731.546 25.2826 731.565 25.1609 731.58 25.0392C731.599 24.9516 731.609 24.864 731.624 24.7764C731.624 24.7472 731.624 24.7229 731.633 24.6937C731.653 24.5331 731.672 24.3725 731.687 24.2119C731.711 24.0123 731.726 23.8079 731.736 23.6035C731.736 23.5354 731.736 23.4624 731.745 23.3943C731.745 23.2142 731.755 23.0293 731.755 22.8492V16.2548H774.853C775.082 16.2548 775.316 16.2548 775.54 16.2645C775.793 16.2645 776.036 16.2791 776.29 16.2937C776.631 16.3083 776.967 16.3326 777.298 16.3618C777.449 16.3716 777.59 16.3862 777.741 16.4008C778.004 16.43 778.271 16.4543 778.53 16.4932C778.778 16.5273 779.017 16.5565 779.265 16.5954C779.508 16.6344 779.752 16.6733 779.995 16.7171C780.244 16.7609 780.477 16.8047 780.721 16.8582C780.954 16.9069 781.188 16.9556 781.417 17.0091C781.432 17.0091 781.446 17.0188 781.461 17.0188C781.675 17.0724 781.889 17.1211 782.099 17.1746C782.147 17.1892 782.186 17.2038 782.235 17.2135C782.425 17.2671 782.61 17.3157 782.8 17.3693C782.829 17.379 782.858 17.3887 782.888 17.3936C783.112 17.4569 783.336 17.525 783.555 17.5931C783.788 17.6613 784.017 17.7391 784.241 17.817C784.426 17.8754 784.611 17.9435 784.796 18.0068C785.322 18.1966 785.843 18.401 786.355 18.62C786.768 18.7903 787.173 18.9801 787.572 19.1748C788 19.3841 788.424 19.5982 788.838 19.827C789.466 20.1676 790.08 20.5278 790.674 20.9122C790.873 21.0436 791.073 21.175 791.268 21.3016C791.462 21.4378 791.657 21.5692 791.847 21.7055C792.042 21.8418 792.232 21.978 792.422 22.1241C792.592 22.2506 792.767 22.382 792.933 22.5085C793.138 22.6691 793.337 22.8346 793.537 22.9952C793.717 23.1461 793.902 23.2969 794.077 23.4527C794.238 23.5938 794.394 23.7252 794.55 23.8663C794.744 24.0464 794.939 24.2265 795.124 24.4065C795.295 24.5671 795.465 24.7326 795.631 24.8981C795.957 25.2242 796.278 25.5648 796.595 25.9006C796.945 26.2851 797.276 26.6793 797.603 27.0784C797.734 27.2341 797.861 27.385 797.978 27.5456C798.09 27.6867 798.197 27.823 798.304 27.969C798.435 28.1393 798.562 28.3097 798.684 28.4849C798.762 28.5919 798.839 28.7039 798.922 28.8158C799.166 29.1565 799.395 29.502 799.619 29.8573C799.75 30.0568 799.877 30.2564 799.993 30.4608C800.12 30.6603 800.242 30.8647 800.359 31.074C800.461 31.2394 800.553 31.4195 800.651 31.5898C801.474 33.0985 802.17 34.6802 802.725 36.33C802.798 36.5442 802.876 36.7632 802.939 36.9822C802.993 37.1477 803.042 37.3229 803.095 37.4932C803.149 37.6635 803.193 37.8387 803.246 38.0139C803.266 38.0821 803.285 38.1551 803.3 38.2232C803.339 38.3789 803.378 38.5347 803.417 38.6953C803.465 38.8753 803.504 39.0603 803.548 39.2452C803.587 39.4107 803.621 39.581 803.655 39.7465C803.719 40.0482 803.777 40.35 803.826 40.6566C803.865 40.8464 803.889 41.0313 803.923 41.226C803.923 41.2454 803.923 41.2649 803.933 41.2795C803.962 41.4839 803.991 41.6932 804.016 41.8976C804.069 42.2967 804.113 42.6957 804.147 43.1045C804.167 43.2651 804.181 43.4306 804.191 43.5961C804.244 44.3066 804.269 45.0269 804.269 45.752L804.293 45.7082Z" fill="#29ABE2"/>
<path d="M720.366 529.564C715.268 533.886 710.048 538.072 704.706 542.121C700.173 545.566 695.562 548.915 690.878 552.17C685.4 555.981 679.819 559.66 674.142 563.218C668.625 566.688 663.01 570.036 657.323 573.268C650.579 577.108 643.723 580.787 636.76 584.315C629.894 587.8 622.926 591.133 615.871 594.326C607.033 598.326 598.064 602.103 588.987 605.67C587.916 606.089 586.84 606.507 585.769 606.921H544.652C542.159 606.921 539.768 606.478 537.553 605.67C529.645 602.78 524.001 595.192 524.001 586.286V550.199C524.001 538.802 533.248 529.56 544.652 529.56H720.366V529.564Z" fill="white"/>
<path d="M589.84 538.602H547.589C542.877 538.602 539.058 542.419 539.058 547.128V589.357C539.058 594.066 542.877 597.883 547.589 597.883H589.84C594.551 597.883 598.371 594.066 598.371 589.357V547.128C598.371 542.419 594.551 538.602 589.84 538.602Z" fill="#0071BC"/>
<path d="M704.707 542.12C700.173 545.566 695.562 548.914 690.878 552.17H616.465C613.69 552.17 611.44 549.917 611.44 547.147C611.44 545.76 612.005 544.5 612.91 543.595C613.816 542.685 615.072 542.12 616.465 542.12H704.707Z" fill="#B3B3B3"/>
<path d="M674.142 563.218C668.625 566.688 663.011 570.036 657.323 573.268H616.47C613.694 573.268 611.445 571.019 611.445 568.245C611.445 566.853 612.01 565.598 612.915 564.692C613.821 563.782 615.077 563.218 616.47 563.218H674.147H674.142Z" fill="#B3B3B3"/>
<path d="M636.76 584.319C629.895 587.804 622.927 591.138 615.871 594.33C613.378 594.038 611.44 591.916 611.44 589.347C611.44 587.96 612.005 586.699 612.91 585.794C613.816 584.884 615.072 584.319 616.465 584.319H636.755H636.76Z" fill="#B3B3B3"/>
<path d="M778.34 443.195V466.725C771.883 475.86 764.988 484.581 757.699 492.923C755.634 495.283 753.536 497.619 751.408 499.916H544.647C533.243 499.916 523.997 490.674 523.997 479.276V443.195C523.997 436.853 526.86 431.179 531.369 427.392C534.957 424.375 539.593 422.555 544.647 422.555H757.689C762.154 422.555 766.288 423.966 769.663 426.375C774.917 430.113 778.34 436.255 778.34 443.19V443.195Z" fill="white"/>
<path d="M589.84 431.597H547.589C542.877 431.597 539.058 435.414 539.058 440.123V482.352C539.058 487.061 542.877 490.878 547.589 490.878H589.84C594.551 490.878 598.371 487.061 598.371 482.352V440.123C598.371 435.414 594.551 431.597 589.84 431.597Z" fill="#0071BC"/>
<path d="M758.259 445.16H616.465C613.69 445.16 611.44 442.912 611.44 440.138C611.44 437.364 613.69 435.115 616.465 435.115H758.259C761.035 435.115 763.284 437.364 763.284 440.138C763.284 442.912 761.035 445.16 758.259 445.16Z" fill="#B3B3B3"/>
<path d="M758.259 466.263H616.465C613.69 466.263 611.44 464.014 611.44 461.24C611.44 458.466 613.69 456.218 616.465 456.218H758.259C761.035 456.218 763.284 458.466 763.284 461.24C763.284 464.014 761.035 466.263 758.259 466.263Z" fill="#B3B3B3"/>
<path d="M723.4 487.359H616.465C613.69 487.359 611.44 485.111 611.44 482.337C611.44 479.563 613.69 477.314 616.465 477.314H723.4C726.175 477.314 728.425 479.563 728.425 482.337C728.425 485.111 726.175 487.359 723.4 487.359Z" fill="#B3B3B3"/>
<path d="M757.689 315.55H544.652C533.247 315.55 524.001 324.791 524.001 336.19V372.276C524.001 383.675 533.247 392.916 544.652 392.916H757.689C769.094 392.916 778.34 383.675 778.34 372.276V336.19C778.34 324.791 769.094 315.55 757.689 315.55Z" fill="white"/>
<path d="M589.84 324.592H547.589C542.877 324.592 539.058 328.409 539.058 333.118V375.347C539.058 380.056 542.877 383.873 547.589 383.873H589.84C594.551 383.873 598.371 380.056 598.371 375.347V333.118C598.371 328.409 594.551 324.592 589.84 324.592Z" fill="#0071BC"/>
<path d="M758.259 328.105H616.465C613.69 328.105 611.44 330.354 611.44 333.128V333.133C611.44 335.907 613.69 338.155 616.465 338.155H758.259C761.035 338.155 763.284 335.907 763.284 333.133V333.128C763.284 330.354 761.035 328.105 758.259 328.105Z" fill="#B3B3B3"/>
<path d="M758.259 359.253H616.465C613.69 359.253 611.44 357.005 611.44 354.23C611.44 351.456 613.69 349.208 616.465 349.208H758.259C761.035 349.208 763.284 351.456 763.284 354.23C763.284 357.005 761.035 359.253 758.259 359.253Z" fill="#B3B3B3"/>
<path d="M723.4 380.354H616.465C613.69 380.354 611.44 378.106 611.44 375.332C611.44 372.558 613.69 370.31 616.465 370.31H723.4C726.175 370.31 728.425 372.558 728.425 375.332C728.425 378.106 726.175 380.354 723.4 380.354Z" fill="#B3B3B3"/>
<path d="M757.689 208.54H544.652C533.247 208.54 524.001 217.781 524.001 229.18V265.267C524.001 276.666 533.247 285.906 544.652 285.906H757.689C769.094 285.906 778.34 276.666 778.34 265.267V229.18C778.34 217.781 769.094 208.54 757.689 208.54Z" fill="white"/>
<path d="M589.84 217.582H547.589C542.877 217.582 539.058 221.399 539.058 226.109V268.337C539.058 273.046 542.877 276.864 547.589 276.864H589.84C594.551 276.864 598.371 273.046 598.371 268.337V226.109C598.371 221.399 594.551 217.582 589.84 217.582Z" fill="#0071BC"/>
<path d="M758.259 231.15H616.465C613.69 231.15 611.44 228.902 611.44 226.128C611.44 223.354 613.69 221.105 616.465 221.105H758.259C761.035 221.105 763.284 223.354 763.284 226.128C763.284 228.902 761.035 231.15 758.259 231.15Z" fill="#B3B3B3"/>
<path d="M758.259 252.248H616.465C613.69 252.248 611.44 250 611.44 247.226C611.44 244.452 613.69 242.203 616.465 242.203H758.259C761.035 242.203 763.284 244.452 763.284 247.226C763.284 250 761.035 252.248 758.259 252.248Z" fill="#B3B3B3"/>
<path d="M723.4 263.3H616.465C613.69 263.3 611.44 265.548 611.44 268.322V268.327C611.44 271.101 613.69 273.35 616.465 273.35H723.4C726.175 273.35 728.425 271.101 728.425 268.327V268.322C728.425 265.548 726.175 263.3 723.4 263.3Z" fill="#B3B3B3"/>
<path d="M792.383 116.072V156.144C792.383 168.803 782.114 179.062 769.454 179.062H532.883C520.223 179.062 509.954 168.803 509.954 156.144V116.072C509.954 103.413 520.223 93.1543 532.883 93.1543H769.454C782.114 93.1543 792.383 103.413 792.383 116.072Z" fill="white"/>
<path d="M682.609 137.972C682.609 153.492 677.278 167.761 668.342 179.062H564.183C555.253 167.761 549.916 153.492 549.916 137.972C549.916 120.695 556.529 104.961 567.363 93.1543H665.158C675.992 104.961 682.605 120.695 682.605 137.972H682.609Z" fill="#E6E6E6"/>
<path d="M583.066 103.194H536.146C530.915 103.194 526.675 107.432 526.675 112.66V159.556C526.675 164.784 530.915 169.022 536.146 169.022H583.066C588.297 169.022 592.537 164.784 592.537 159.556V112.66C592.537 107.432 588.297 103.194 583.066 103.194Z" fill="#0071BC"/>
<path d="M770.086 118.257H612.632C609.55 118.257 607.052 115.76 607.052 112.68C607.052 109.599 609.55 107.103 612.632 107.103H770.086C773.169 107.103 775.667 109.599 775.667 112.68C775.667 115.76 773.169 118.257 770.086 118.257Z" fill="#B3B3B3"/>
<path d="M770.086 141.686H612.632C609.55 141.686 607.052 139.189 607.052 136.109C607.052 133.028 609.55 130.531 612.632 130.531H770.086C773.169 130.531 775.667 133.028 775.667 136.109C775.667 139.189 773.169 141.686 770.086 141.686Z" fill="#B3B3B3"/>
<path d="M731.375 165.118H612.632C609.55 165.118 607.052 162.622 607.052 159.541C607.052 156.46 609.55 153.964 612.632 153.964H731.375C734.458 153.964 736.956 156.46 736.956 159.541C736.956 162.622 734.458 165.118 731.375 165.118Z" fill="#B3B3B3"/>
<path d="M820.484 161.289V45.7087C820.484 20.5331 800.057 0.112305 774.853 0.112305H527.644C510.367 0.112305 495.331 9.70463 487.584 23.8425C484.024 30.3347 481.999 37.7857 481.999 45.7038V84.3116C480.105 84.8956 478.722 86.6671 478.722 88.7598V106.601C478.722 108.689 480.105 110.456 481.999 111.049V142.021C480.105 142.605 478.722 144.377 478.722 146.465V185.793C478.722 187.885 480.105 189.662 481.999 190.251V199.721C480.105 200.305 478.722 202.077 478.722 204.174V243.502C478.722 245.595 480.105 247.362 481.999 247.955V576.183C481.999 583.969 483.956 591.308 487.399 597.718C493.758 609.563 505.211 618.265 518.825 620.922C518.884 620.937 518.947 620.952 519.005 620.961C521.805 621.502 524.678 621.784 527.639 621.784H542.743C557.278 617.311 571.648 612.367 585.754 606.916C586.83 606.502 587.901 606.084 588.973 605.665H527.634C527.376 605.665 527.127 605.665 526.869 605.655C522.136 605.534 517.686 604.307 513.756 602.215C504.441 597.26 498.106 587.469 498.106 576.183V45.7087C498.106 30.4174 509.739 17.8564 524.664 16.3672C525.121 16.3234 525.584 16.2893 526.051 16.265C526.324 16.2504 526.597 16.2358 526.869 16.2309C527.127 16.2309 527.376 16.2212 527.634 16.2212H573.654V22.8156C573.654 30.69 579.95 37.0995 587.78 37.299C587.901 37.299 588.028 37.299 588.15 37.299H717.308C717.405 37.299 717.508 37.299 717.605 37.299C717.736 37.299 717.868 37.2893 717.995 37.2844C718.121 37.2844 718.248 37.2698 718.37 37.2601C718.462 37.2601 718.55 37.2455 718.642 37.2309C718.676 37.2309 718.705 37.2309 718.74 37.2211C722.479 36.861 725.805 35.0749 728.157 32.4225C730.426 29.8675 731.809 26.5046 731.809 22.8156V16.2212H774.829C775.058 16.2212 775.292 16.2212 775.516 16.2309C775.769 16.2309 776.012 16.2455 776.266 16.2601C776.606 16.2747 776.942 16.2991 777.273 16.3283C777.424 16.338 777.566 16.3526 777.717 16.3672C792.661 17.8126 804.332 30.3882 804.332 45.7087V422.739C810.458 410.159 815.853 396.946 820.45 383.071V240.11C822.266 239.483 823.576 237.755 823.576 235.721V165.688C823.576 163.654 822.266 161.931 820.45 161.294L820.484 161.289Z" fill="#14145E"/>
<path style="mix-blend-mode:multiply" d="M833.358 330.899C830.266 349.251 825.932 366.621 820.483 383.065C815.887 396.945 810.492 410.154 804.371 422.739C804.347 422.788 804.322 422.836 804.298 422.885C796.716 438.454 788.025 453.044 778.345 466.729C771.888 475.859 764.993 484.585 757.704 492.922C755.639 495.287 753.54 497.618 751.412 499.92C741.679 510.437 731.302 520.307 720.366 529.559C715.263 533.881 710.048 538.066 704.711 542.12C700.178 545.561 695.571 548.909 690.882 552.165C685.409 555.975 679.824 559.655 674.146 563.217C668.629 566.682 663.015 570.031 657.323 573.262C650.584 577.102 643.723 580.781 636.765 584.31C629.894 587.799 622.926 591.128 615.875 594.325C614.312 595.031 612.739 595.732 611.162 596.428L598.536 319.91L629.753 127.392L833.363 330.894L833.358 330.899Z" fill="url(#paint0_linear_231_951)"/>
<path d="M775.097 388.254C775.097 389.553 774.999 390.862 774.805 392.181L769.663 426.375L766.614 446.645C766.941 448.747 767.233 450.903 766.882 453.064C765.139 463.902 761.843 477.767 757.699 492.917C755.634 495.278 753.535 497.614 751.408 499.911C741.679 510.433 731.297 520.298 720.361 529.554C715.263 533.876 710.043 538.061 704.701 542.11C700.168 545.556 695.557 548.904 690.872 552.16C685.394 555.971 679.814 559.65 674.137 563.208C668.62 566.678 663.005 570.026 657.318 573.258C650.574 577.097 643.718 580.777 636.755 584.305C629.889 587.79 622.921 591.123 615.866 594.316C607.028 598.316 598.059 602.093 588.982 605.66C587.911 606.079 586.835 606.497 585.764 606.911C571.657 612.362 557.288 617.306 542.753 621.779C535.332 624.066 527.863 626.227 520.364 628.276C519.911 625.877 519.405 623.419 518.84 620.917C517.501 614.965 515.835 608.736 513.79 602.254C513.79 602.239 513.781 602.224 513.776 602.205C512.938 599.552 512.037 596.861 511.068 594.126C507.67 584.543 501.515 524.644 498.131 489.594C498.106 489.331 498.077 489.073 498.058 488.815C496.65 474.22 495.74 464.126 495.74 464.126L498.058 456.48L498.131 456.232L524.006 370.86L526.786 361.681C529.046 355.505 533.462 350.502 539.062 347.48C539.641 347.164 540.236 346.872 540.839 346.599C542.578 345.816 544.418 345.217 546.327 344.833C546.97 344.696 547.622 344.584 548.275 344.507L539.374 377.605L537.139 385.913L535.8 390.901L514.608 469.723L524.001 445.988L531.373 427.372L539.116 407.808L542.475 392.78L544.594 383.309L553.412 343.85L557.327 324.572L559.162 315.53L565.186 285.887L567.022 276.844L579.063 217.563L580.894 208.515L586.883 179.038L589.42 166.545L592.542 151.185L595.819 135.057C597.391 127.319 603.522 121.474 611.069 120.092C612.194 119.887 613.343 119.78 614.517 119.78C622.113 119.78 628.594 124.199 631.671 130.507C632.908 133.032 633.6 135.86 633.6 138.829C633.6 139.495 633.561 140.177 633.488 140.858C633.458 141.126 633.434 141.398 633.405 141.666C633.01 145.384 632.582 149.501 632.119 153.94C631.759 157.463 631.379 161.196 630.985 165.094C630.532 169.543 630.069 174.205 629.592 179.042C628.672 188.348 627.717 198.29 626.768 208.52C626.388 212.667 626.003 216.862 625.629 221.081C625.332 224.415 625.039 227.768 624.747 231.126C624.426 234.815 624.114 238.504 623.807 242.179C623.53 245.542 623.257 248.895 622.994 252.224C622.697 255.942 622.415 259.631 622.137 263.276C621.884 266.668 621.645 270.021 621.417 273.321C621.12 277.604 620.842 281.804 620.589 285.882C619.917 296.769 619.425 306.833 619.182 315.525C619.055 320.119 619.006 324.334 619.031 328.081C619.05 331.327 619.138 334.223 619.294 336.725C619.328 337.206 619.357 337.678 619.396 338.131C619.576 340.457 619.829 342.375 620.151 343.84C620.472 345.275 621.149 346.721 622.166 348.161L625.672 338.131L629.183 328.081L633.57 315.525L638.849 300.433C638.917 300.229 638.995 300.025 639.078 299.825C639.092 299.772 639.112 299.728 639.131 299.674C639.131 299.664 639.131 299.65 639.146 299.64C639.17 299.577 639.199 299.514 639.219 299.455C639.282 299.275 639.36 299.09 639.438 298.915C639.472 298.832 639.506 298.749 639.545 298.667C639.72 298.248 639.915 297.839 640.12 297.44C640.173 297.333 640.227 297.221 640.285 297.114C640.529 296.642 640.787 296.185 641.064 295.737C641.356 295.255 641.668 294.783 641.994 294.326C642.34 293.844 642.695 293.372 643.075 292.919C643.182 292.783 643.294 292.656 643.406 292.525C643.421 292.51 643.431 292.496 643.445 292.481C643.533 292.384 643.616 292.282 643.708 292.184C643.806 292.077 643.903 291.97 644 291.863C644.112 291.741 644.224 291.62 644.341 291.503C644.463 291.372 644.585 291.245 644.706 291.128C644.906 290.934 645.106 290.739 645.305 290.554C645.51 290.364 645.714 290.179 645.924 289.999C646.123 289.829 646.318 289.658 646.523 289.493C646.62 289.415 646.722 289.332 646.825 289.254C646.971 289.138 647.122 289.021 647.273 288.909C647.526 288.719 647.779 288.534 648.042 288.354C648.071 288.33 648.096 288.31 648.13 288.296C648.31 288.164 648.495 288.043 648.685 287.926C648.821 287.838 648.957 287.751 649.094 287.663C649.245 287.571 649.391 287.483 649.542 287.4C649.62 287.347 649.702 287.303 649.79 287.254C650.043 287.108 650.292 286.972 650.55 286.836C650.623 286.792 650.701 286.758 650.774 286.719C650.886 286.661 650.998 286.602 651.11 286.553C651.173 286.51 651.246 286.48 651.314 286.451C651.377 286.412 651.446 286.388 651.509 286.354C651.601 286.305 651.694 286.266 651.786 286.227C651.811 286.208 651.84 286.198 651.859 286.193C652.015 286.125 652.166 286.047 652.327 285.984C652.41 285.94 652.492 285.911 652.58 285.877C652.648 285.843 652.721 285.819 652.789 285.789C652.965 285.716 653.15 285.643 653.325 285.58C653.569 285.488 653.807 285.4 654.051 285.317C654.236 285.254 654.416 285.191 654.606 285.132C654.796 285.074 654.986 285.011 655.18 284.957C655.375 284.904 655.565 284.85 655.76 284.801C655.916 284.758 656.076 284.719 656.232 284.68C656.393 284.636 656.563 284.602 656.729 284.563C656.928 284.514 657.133 284.475 657.337 284.436C657.542 284.393 657.746 284.359 657.956 284.325C658.16 284.286 658.37 284.256 658.574 284.227C661.579 283.799 664.71 283.93 667.826 284.685C669.092 284.991 670.309 285.39 671.478 285.882C680.588 289.673 686.568 298.618 686.568 308.507C686.568 309.656 686.495 310.824 686.32 311.992L685.818 315.525L684.021 328.081L682.624 337.868L682.585 338.131L681.007 349.179L679.571 359.228L677.993 370.276L677.871 371.108L678.163 370.276L682.02 359.228L685.531 349.179L689.392 338.131L691.793 331.264C691.89 330.987 691.992 330.709 692.099 330.437C692.163 330.271 692.231 330.106 692.304 329.94C692.357 329.794 692.421 329.653 692.479 329.512C692.479 329.512 692.479 329.498 692.489 329.493C692.581 329.274 692.684 329.055 692.786 328.836C692.883 328.631 692.981 328.427 693.088 328.227C693.112 328.179 693.141 328.13 693.161 328.081C693.171 328.062 693.18 328.042 693.19 328.028C693.283 327.843 693.385 327.658 693.487 327.473C693.546 327.361 693.614 327.244 693.677 327.132C694.067 326.451 694.49 325.789 694.943 325.152C695.104 324.918 695.274 324.694 695.44 324.47C695.61 324.246 695.785 324.027 695.961 323.808C696.131 323.604 696.302 323.399 696.477 323.2C696.862 322.762 697.266 322.334 697.68 321.925C697.865 321.74 698.059 321.555 698.254 321.375C698.405 321.234 698.556 321.098 698.712 320.966C698.727 320.952 698.736 320.942 698.751 320.932C698.877 320.82 699.009 320.708 699.136 320.601C699.428 320.348 699.725 320.11 700.032 319.876C700.163 319.774 700.294 319.676 700.426 319.584C700.562 319.482 700.694 319.384 700.83 319.292C701.059 319.131 701.288 318.976 701.512 318.825C701.746 318.669 701.979 318.528 702.213 318.382C702.685 318.09 703.177 317.812 703.674 317.559C703.912 317.438 704.151 317.316 704.39 317.204C704.643 317.082 704.891 316.971 705.144 316.859C705.29 316.795 705.432 316.732 705.578 316.679C705.724 316.62 705.865 316.562 706.011 316.503C706.011 316.503 706.014 316.503 706.021 316.503C706.44 316.338 706.863 316.182 707.292 316.046C707.379 316.012 707.472 315.987 707.559 315.958C707.793 315.885 708.032 315.812 708.261 315.749C708.524 315.671 708.796 315.598 709.064 315.535C709.084 315.535 709.103 315.525 709.118 315.52C709.366 315.462 709.609 315.399 709.858 315.35C709.95 315.33 710.038 315.311 710.13 315.296C710.335 315.253 710.544 315.214 710.749 315.175C710.773 315.175 710.798 315.165 710.817 315.16C711.046 315.121 711.28 315.087 711.504 315.053C714.513 314.625 717.634 314.746 720.755 315.511C720.77 315.511 720.78 315.511 720.794 315.52C727.913 317.263 733.596 321.978 736.756 328.076C738.348 331.147 739.298 334.564 739.468 338.126C739.492 338.52 739.502 338.915 739.502 339.319C739.502 340.477 739.419 341.65 739.244 342.818L738.338 349.179L736.907 359.228L735.743 367.375L734.774 374.125C738.514 369.191 743.841 365.91 749.621 364.966C752.381 364.514 755.23 364.601 758.059 365.287C766.843 367.424 773.154 374.865 774.693 383.898C774.936 385.309 775.063 386.755 775.063 388.224L775.097 388.254Z" fill="#FDB59E"/>
<path d="M658.574 284.256C649.731 285.507 641.955 291.566 638.844 300.458L622.166 348.191C621.153 346.75 620.472 345.305 620.15 343.869C619.761 342.122 619.483 339.718 619.293 336.754L631.978 300.463C635.873 289.313 647.097 282.631 658.574 284.261V284.256Z" fill="#F38F8F"/>
<path d="M711.537 315.087C702.685 316.338 694.914 322.387 691.802 331.289L677.871 371.142L682.624 337.898L684.932 331.289C688.827 320.139 700.051 313.457 711.537 315.087Z" fill="#F38F8F"/>
<path d="M749.655 364.995C743.875 365.939 738.543 369.22 734.808 374.154L735.777 367.404C739.999 365.127 744.829 364.202 749.659 364.995H749.655Z" fill="#F38F8F"/>
<path d="M553.407 343.869L539.111 407.828L514.604 469.747L548.27 344.526L553.407 343.869Z" fill="#F38F8F"/>
<path d="M665.396 367.706C665.396 367.706 679.405 384.107 677.876 415.619C677.876 415.619 674.784 395.334 667.918 394.712C661.048 394.089 671.935 384.691 665.401 367.701L665.396 367.706Z" fill="#F38F8F"/>
<path d="M717.751 391.665C717.751 391.665 726.754 405.949 722.021 430.195C722.021 430.195 721.914 414.13 716.66 412.874C711.406 411.619 720.901 405.564 717.751 391.665Z" fill="#F38F8F"/>
<path d="M141.215 298.194C140.358 297.722 139.54 297.187 138.742 296.656C137.943 296.121 137.169 295.581 136.414 295.026C134.895 293.926 133.434 292.802 132.012 291.683C130.595 290.558 129.198 289.444 127.786 288.412C126.379 287.38 124.971 286.417 123.598 285.599C122.24 284.791 120.857 284.139 119.795 283.891C119.528 283.818 119.304 283.794 119.094 283.764C118.904 283.76 118.724 283.745 118.607 283.764C118.481 283.779 118.388 283.794 118.305 283.828C118.218 283.847 118.145 283.901 118.047 283.959C117.857 284.095 117.58 284.373 117.307 284.83C117.283 284.864 117.215 284.981 117.161 285.078L116.991 285.38L116.65 285.979L115.978 287.176C115.087 288.777 114.239 290.378 113.465 291.975C113.076 292.773 112.715 293.566 112.384 294.35C112.053 295.133 111.751 295.907 111.518 296.637C111.284 297.362 111.104 298.073 111.04 298.593C111.006 298.851 111.006 299.056 111.006 299.168C111.016 299.265 111.021 299.25 110.958 299.129C110.899 299.012 110.743 298.822 110.636 298.759C110.622 298.739 110.588 298.73 110.573 298.72C110.568 298.71 110.558 298.71 110.549 298.71C110.558 298.71 110.568 298.71 110.573 298.725C110.583 298.735 110.622 298.739 110.641 298.749C110.763 298.788 110.958 298.856 111.245 298.89C111.371 298.919 111.542 298.924 111.688 298.944C111.858 298.954 112.014 298.968 112.199 298.973C113.636 299.022 115.394 298.837 117.142 298.589C120.682 298.078 124.363 297.284 128.059 296.564C131.759 295.834 135.489 295.08 139.248 294.432C141.138 294.106 142.939 295.376 143.265 297.265C143.577 299.075 142.413 300.803 140.655 301.231C137.013 302.112 133.371 303.003 129.7 303.918C127.864 304.38 126.013 304.823 124.144 305.251C122.269 305.679 120.38 306.088 118.417 306.443C116.44 306.784 114.434 307.105 112.092 307.125C111.8 307.125 111.488 307.115 111.186 307.105C110.865 307.081 110.563 307.071 110.217 307.027C109.565 306.959 108.835 306.823 108.055 306.575C107.856 306.507 107.666 306.448 107.457 306.361C107.247 306.273 107.038 306.181 106.833 306.083C106.619 305.971 106.4 305.85 106.191 305.723C105.976 305.592 105.757 305.431 105.548 305.28C104.696 304.638 103.931 303.699 103.469 302.725C102.996 301.752 102.792 300.803 102.699 299.961C102.621 299.134 102.646 298.394 102.709 297.713C102.845 296.355 103.133 295.226 103.444 294.145C103.761 293.07 104.126 292.077 104.515 291.113C104.9 290.15 105.309 289.22 105.733 288.31C106.575 286.49 107.466 284.743 108.382 283.03L109.073 281.75L109.424 281.112L109.599 280.796C109.657 280.689 109.706 280.596 109.808 280.431C110.48 279.258 111.41 278.036 112.711 277.009C114.006 275.987 115.695 275.253 117.307 275.024C118.12 274.888 118.895 274.878 119.644 274.907C120.375 274.956 121.091 275.048 121.743 275.194C124.377 275.778 126.418 276.859 128.273 278.012C130.118 279.18 131.735 280.489 133.23 281.871C134.72 283.258 136.108 284.704 137.383 286.222C138.654 287.745 139.798 289.361 140.811 291.06C141.323 291.907 141.79 292.783 142.223 293.683C142.657 294.588 143.041 295.503 143.363 296.51C143.606 297.27 143.183 298.082 142.423 298.326C142.029 298.452 141.624 298.399 141.288 298.214L141.23 298.18L141.215 298.194Z" fill="#0071BC"/>
<path d="M140.388 296.423C140.281 295.372 140.276 294.379 140.315 293.377C140.354 292.379 140.437 291.386 140.568 290.408C140.826 288.447 141.235 286.51 141.795 284.607C142.365 282.709 143.061 280.83 143.879 278.966C144.707 277.107 145.671 275.258 146.903 273.457C148.15 271.666 149.591 269.865 151.782 268.284C152.322 267.89 152.941 267.525 153.593 267.189C154.275 266.868 154.981 266.566 155.785 266.371C157.357 265.943 159.203 265.948 160.795 266.371C162.397 266.799 163.731 267.554 164.817 268.362C164.973 268.474 165.056 268.542 165.153 268.615L165.44 268.839L166.015 269.281L167.159 270.182C168.683 271.394 170.193 272.644 171.688 273.983C172.438 274.649 173.178 275.341 173.913 276.071C174.653 276.801 175.379 277.569 176.094 278.431C176.81 279.297 177.521 280.222 178.183 281.414C178.51 282.013 178.826 282.684 179.084 283.478C179.333 284.286 179.518 285.239 179.474 286.32C179.435 287.395 179.104 288.559 178.578 289.488C178.446 289.712 178.31 289.946 178.164 290.15C178.018 290.35 177.872 290.544 177.716 290.734C177.565 290.904 177.409 291.07 177.253 291.235C177.098 291.396 176.947 291.527 176.786 291.668C176.167 292.204 175.554 292.622 174.979 292.939C174.682 293.114 174.41 293.245 174.122 293.396C173.85 293.523 173.567 293.659 173.299 293.771C171.142 294.681 169.17 295.177 167.223 295.649C165.28 296.102 163.381 296.472 161.491 296.822C159.607 297.173 157.732 297.499 155.862 297.801C152.128 298.414 148.432 299.042 144.741 299.674C142.852 300 141.05 298.73 140.724 296.842C140.412 295.031 141.576 293.304 143.334 292.875C147.039 291.98 150.764 291.196 154.45 290.398C158.127 289.59 161.823 288.865 165.275 287.931C166.979 287.464 168.664 286.938 169.969 286.325C170.134 286.252 170.271 286.169 170.427 286.096C170.553 286.018 170.709 285.945 170.811 285.872C171.06 285.726 171.211 285.585 171.308 285.502C171.323 285.483 171.357 285.463 171.357 285.454C171.357 285.444 171.366 285.434 171.371 285.434C171.361 285.434 171.352 285.444 171.352 285.454C171.342 285.463 171.318 285.488 171.308 285.512C171.24 285.614 171.167 285.848 171.157 285.979C171.147 286.115 171.157 286.13 171.128 286.038C171.084 285.931 171.001 285.746 170.87 285.522C170.607 285.069 170.159 284.485 169.657 283.916C169.151 283.337 168.567 282.748 167.953 282.159C167.339 281.57 166.692 280.986 166.02 280.407C164.681 279.248 163.264 278.11 161.813 276.995L160.717 276.163L160.167 275.749L159.889 275.54C159.797 275.472 159.695 275.389 159.656 275.37C159.222 275.063 158.857 274.917 158.628 274.864C158.511 274.849 158.424 274.83 158.336 274.844C158.248 274.844 158.156 274.868 158.034 274.903C157.917 274.927 157.757 275.014 157.586 275.092C157.406 275.204 157.206 275.316 156.992 275.487C156.116 276.134 155.108 277.282 154.183 278.562C153.248 279.857 152.332 281.297 151.451 282.801C150.565 284.305 149.722 285.882 148.865 287.478C148.003 289.074 147.107 290.68 146.148 292.296C145.671 293.104 145.174 293.907 144.653 294.715C144.132 295.518 143.592 296.331 142.993 297.105L142.954 297.153C142.467 297.786 141.556 297.903 140.928 297.411C140.602 297.158 140.412 296.793 140.373 296.413L140.388 296.423Z" fill="#0071BC"/>
<path d="M201.377 304.635L90.5054 327.543L107.942 411.843L218.814 388.935L201.377 304.635Z" fill="#FFC388"/>
<path d="M202.401 284.928L81.7441 309.857L85.6113 328.554L206.268 303.625L202.401 284.928Z" fill="#FFC388"/>
<path d="M90.4917 327.551L201.366 304.648L203.401 314.499L90.4917 327.551Z" fill="#E5AE7C"/>
<path d="M149.992 295.403L134.008 298.705L155.382 402.041L171.366 398.738L149.992 295.403Z" fill="#0071BC"/>
<path d="M94.2143 352.464L97.5186 368.439L211.113 344.969L207.809 328.993L94.2143 352.464Z" fill="#0071BC"/>
<path d="M204.822 408.303L103.882 434.356L129.949 535.243L230.889 509.19L204.822 408.303Z" fill="#FFD4AE"/>
<path d="M301.152 376.778C300.588 375.785 300.096 374.753 299.628 373.741C299.161 372.724 298.718 371.712 298.304 370.699C297.462 368.68 296.692 366.67 295.962 364.684C295.236 362.698 294.52 360.737 293.746 358.854C292.977 356.97 292.159 355.15 291.292 353.505C290.43 351.87 289.456 350.381 288.551 349.485C288.327 349.252 288.117 349.086 287.927 348.93C287.742 348.809 287.572 348.682 287.44 348.634C287.304 348.57 287.202 348.531 287.1 348.517C287.002 348.483 286.895 348.492 286.759 348.492C286.486 348.517 286.043 348.624 285.493 348.906C285.444 348.921 285.313 348.999 285.196 349.062L284.84 349.257L284.134 349.646L282.732 350.429C280.872 351.481 279.046 352.561 277.307 353.68C276.436 354.24 275.589 354.809 274.785 355.389C273.977 355.968 273.208 356.557 272.526 357.141C271.849 357.72 271.24 358.318 270.86 358.8C270.671 359.039 270.544 359.238 270.476 359.355C270.422 359.457 270.442 359.447 270.451 359.287C270.466 359.131 270.422 358.854 270.359 358.722C270.359 358.693 270.33 358.659 270.32 358.649C270.32 358.64 270.31 358.63 270.301 358.625C270.31 358.63 270.315 358.64 270.315 358.654C270.315 358.669 270.354 358.698 270.364 358.722C270.461 358.834 270.612 359.019 270.875 359.228C270.982 359.331 271.148 359.443 271.284 359.555C271.45 359.666 271.596 359.778 271.776 359.895C273.178 360.82 275.038 361.706 276.933 362.523C280.77 364.173 284.918 365.623 289.038 367.161C293.167 368.689 297.345 370.208 301.479 371.853C303.563 372.68 304.576 375.036 303.748 377.119C302.954 379.109 300.743 380.121 298.732 379.479C294.569 378.136 290.401 376.802 286.184 375.478C284.076 374.821 281.962 374.135 279.839 373.42C277.716 372.704 275.579 371.96 273.407 371.118C271.231 370.252 269.039 369.351 266.692 367.945C266.4 367.774 266.098 367.565 265.801 367.375C265.495 367.152 265.202 366.962 264.886 366.709C264.277 366.246 263.634 365.662 263.006 364.942C262.85 364.752 262.695 364.577 262.539 364.363C262.383 364.149 262.232 363.93 262.086 363.711C261.94 363.467 261.799 363.214 261.667 362.961C261.536 362.703 261.414 362.406 261.297 362.129C260.844 360.971 260.65 359.569 260.781 358.318C260.903 357.063 261.278 355.992 261.696 355.097C262.12 354.225 262.597 353.5 263.074 352.863C264.034 351.593 265.012 350.644 265.981 349.763C266.95 348.887 267.919 348.118 268.893 347.397C269.867 346.672 270.836 345.996 271.81 345.349C273.758 344.054 275.71 342.852 277.673 341.703L279.143 340.852L279.878 340.433L280.249 340.224C280.37 340.156 280.477 340.092 280.677 339.985C282.065 339.226 283.73 338.574 285.653 338.345C287.567 338.112 289.695 338.418 291.443 339.168C292.339 339.528 293.108 339.99 293.844 340.477C294.545 340.968 295.197 341.494 295.757 342.039C298.026 344.229 299.399 346.546 300.544 348.823C301.669 351.106 302.482 353.398 303.129 355.685C303.767 357.973 304.264 360.255 304.61 362.548C304.946 364.84 305.101 367.142 305.072 369.453C305.062 370.607 304.999 371.765 304.877 372.928C304.756 374.091 304.585 375.24 304.288 376.437C304.064 377.342 303.149 377.892 302.248 377.669C301.781 377.552 301.411 377.255 301.187 376.87L301.148 376.802L301.152 376.778Z" fill="#0071BC"/>
<path d="M301.41 374.515C301.946 373.405 302.545 372.413 303.193 371.434C303.84 370.461 304.527 369.532 305.257 368.631C306.708 366.83 308.296 365.156 310.019 363.604C311.743 362.061 313.584 360.616 315.536 359.258C317.494 357.91 319.583 356.659 321.905 355.613C324.238 354.586 326.775 353.676 329.915 353.432C330.694 353.369 331.532 353.384 332.384 353.447C333.256 353.539 334.147 353.676 335.067 353.968C336.893 354.498 338.729 355.622 340.053 357.019C341.387 358.421 342.259 359.983 342.843 361.453C342.931 361.662 342.97 361.774 343.024 361.91L343.175 362.304L343.476 363.098L344.066 364.694C344.845 366.826 345.585 368.996 346.257 371.235C346.598 372.354 346.914 373.493 347.201 374.671C347.494 375.844 347.747 377.055 347.937 378.35C348.122 379.649 348.268 381.002 348.2 382.594C348.161 383.392 348.063 384.253 347.839 385.198C347.596 386.151 347.201 387.217 346.491 388.264C345.794 389.31 344.757 390.269 343.666 390.872C343.398 391.013 343.121 391.164 342.853 391.281C342.59 391.388 342.322 391.495 342.05 391.588C341.796 391.665 341.543 391.738 341.285 391.802C341.032 391.865 340.803 391.904 340.56 391.948C339.62 392.103 338.753 392.142 337.984 392.113C337.58 392.113 337.229 392.069 336.854 392.045C336.504 392.006 336.138 391.972 335.807 391.918C333.105 391.51 330.841 390.809 328.61 390.089C326.4 389.359 324.282 388.565 322.188 387.767C320.094 386.964 318.034 386.147 315.989 385.314C311.899 383.65 307.833 382.02 303.772 380.404C301.688 379.576 300.675 377.221 301.503 375.138C302.297 373.148 304.507 372.135 306.518 372.778C310.755 374.145 314.942 375.634 319.101 377.085C323.254 378.52 327.378 380.044 331.386 381.221C333.368 381.796 335.369 382.297 337.034 382.482C337.244 382.506 337.429 382.511 337.628 382.535C337.799 382.535 337.998 382.555 338.149 382.545C338.485 382.55 338.724 382.506 338.87 382.477C338.894 382.467 338.943 382.467 338.953 382.458C338.963 382.448 338.972 382.448 338.982 382.448C338.972 382.448 338.958 382.448 338.953 382.453C338.938 382.458 338.894 382.467 338.875 382.487C338.743 382.545 338.529 382.735 338.442 382.861C338.349 382.993 338.354 383.012 338.378 382.9C338.398 382.769 338.427 382.531 338.432 382.229C338.446 381.616 338.354 380.764 338.203 379.888C338.052 379.002 337.833 378.063 337.58 377.099C337.326 376.141 337.039 375.162 336.723 374.174C336.095 372.203 335.379 370.208 334.614 368.213L334.035 366.714L333.738 365.964L333.587 365.589C333.538 365.468 333.48 365.322 333.455 365.278C333.212 364.709 332.939 364.344 332.74 364.154C332.632 364.071 332.559 363.993 332.462 363.959C332.374 363.906 332.272 363.872 332.126 363.833C331.995 363.789 331.785 363.774 331.561 363.75C331.313 363.75 331.05 363.74 330.729 363.779C329.463 363.891 327.758 364.417 326.054 365.132C324.335 365.847 322.543 366.728 320.751 367.692C318.95 368.651 317.153 369.707 315.327 370.773C313.496 371.833 311.621 372.894 309.688 373.916C308.724 374.432 307.736 374.929 306.728 375.415C305.72 375.897 304.683 376.379 303.616 376.783L303.548 376.807C302.676 377.138 301.703 376.7 301.372 375.829C301.201 375.381 301.235 374.9 301.43 374.496L301.41 374.515Z" fill="#0071BC"/>
<path d="M357.12 419.843L232.75 375.115L198.706 469.678L323.076 514.406L357.12 419.843Z" fill="#FFA748"/>
<path d="M370.158 400.844L234.813 352.17L227.263 373.143L362.607 421.818L370.158 400.844Z" fill="#FFA748"/>
<path d="M232.739 375.113L357.111 419.843L353.132 430.891L232.739 375.113Z" fill="#CC833B"/>
<path d="M311.59 379.352L293.657 372.902L251.925 488.818L269.858 495.268L311.59 379.352Z" fill="#0071BC"/>
<path d="M221.265 402.205L214.812 420.128L342.234 465.953L348.687 448.03L221.265 402.205Z" fill="#0071BC"/>
<path d="M439.986 342.419H381.36C379.023 342.419 376.997 344.04 376.486 346.322L368.675 381.178L237.686 380.243C237.501 380.224 237.316 380.209 237.121 380.209C236.946 380.209 236.776 380.219 236.61 380.233L93.2528 379.207C93.2528 379.207 93.2284 379.207 93.2187 379.207C91.7092 379.207 90.2776 379.888 89.3281 381.066C88.3737 382.253 88.0085 383.81 88.3445 385.295L105.796 462.987C105.796 462.987 105.796 462.987 105.796 462.992L123.155 540.276C123.666 542.558 125.692 544.174 128.029 544.174L287.743 544.048C288.083 544.169 288.444 544.257 288.819 544.306C289.023 544.33 289.228 544.344 289.427 544.344C290.012 544.344 290.577 544.237 291.107 544.048L332.185 544.014L325.65 573.17H133.639C130.878 573.17 128.643 575.404 128.643 578.163C128.643 580.923 130.878 583.157 133.639 583.157H329.653C331.99 583.157 334.016 581.536 334.527 579.254L343.316 540.028C343.316 540.028 343.316 540.018 343.316 540.013L360.544 463.128C360.544 463.128 360.544 463.119 360.544 463.109L377.421 387.791C377.533 387.461 377.615 387.115 377.654 386.755L385.353 352.405H439.981C442.742 352.405 444.977 350.172 444.977 347.412C444.977 344.653 442.742 342.419 439.981 342.419H439.986ZM351.657 457.113L304.449 457.089L312.508 390.765L366.435 391.15L351.652 457.113H351.657ZM242.117 534.1V467.046L293.172 467.071L285.03 534.066L242.117 534.1ZM187.006 534.144L178.85 467.012L232.125 467.041V534.11L187.006 534.144ZM177.638 457.026L169.462 389.743L232.125 390.191V457.055L177.638 457.026ZM242.122 457.06V390.264L302.458 390.697L294.389 457.089L242.122 457.065V457.06ZM159.393 389.67L167.573 457.021L114.692 456.992L99.4757 389.242L159.393 389.67ZM116.937 466.983L168.79 467.007L176.946 534.149L132.032 534.183L116.937 466.978V466.983ZM295.105 534.061L303.246 467.08L349.427 467.105L334.43 534.032L295.105 534.061Z" fill="#7DA1BA"/>
<path d="M321.511 637.459C334.083 637.459 344.275 627.273 344.275 614.707C344.275 602.141 334.083 591.955 321.511 591.955C308.939 591.955 298.747 602.141 298.747 614.707C298.747 627.273 308.939 637.459 321.511 637.459Z" fill="black"/>
<path d="M321.511 630.515C312.79 630.515 305.696 623.424 305.696 614.708C305.696 605.991 312.79 598.9 321.511 598.9C330.232 598.9 337.327 605.991 337.327 614.708C337.327 623.424 330.232 630.515 321.511 630.515Z" fill="#7DA1BA"/>
<path d="M156.403 637.459C168.975 637.459 179.167 627.273 179.167 614.707C179.167 602.141 168.975 591.955 156.403 591.955C143.83 591.955 133.639 602.141 133.639 614.707C133.639 627.273 143.83 637.459 156.403 637.459Z" fill="black"/>
<path d="M156.403 630.515C147.682 630.515 140.587 623.424 140.587 614.708C140.587 605.991 147.682 598.9 156.403 598.9C165.124 598.9 172.218 605.991 172.218 614.708C172.218 623.424 165.124 630.515 156.403 630.515Z" fill="#7DA1BA"/>
<path d="M463.515 337.907H414.199C409.404 337.907 405.517 341.792 405.517 346.585V347.626C405.517 352.418 409.404 356.303 414.199 356.303H463.515C468.31 356.303 472.197 352.418 472.197 347.626V346.585C472.197 341.792 468.31 337.907 463.515 337.907Z" fill="black"/>
<path d="M213.989 173.803C236.407 151.397 236.407 115.07 213.989 92.6639C191.571 70.258 155.225 70.258 132.807 92.6639C110.389 115.07 110.389 151.397 132.807 173.803C155.225 196.209 191.571 196.209 213.989 173.803Z" fill="#0071BC"/>
<path d="M220.259 84.462C220.648 84.462 221.043 84.3111 221.34 84.0142L241.693 63.6713C242.292 63.0727 242.292 62.1042 241.693 61.5056C241.094 60.907 240.125 60.907 239.527 61.5056L219.173 81.8485C218.574 82.4471 218.574 83.4156 219.173 84.0142C219.47 84.3111 219.864 84.462 220.254 84.462H220.259Z" fill="#FFA748"/>
<path d="M223.54 92.3805H252.323C253.17 92.3805 253.852 91.6943 253.852 90.8524C253.852 90.0104 253.165 89.3242 252.323 89.3242H223.54C222.693 89.3242 222.011 90.0104 222.011 90.8524C222.011 91.6943 222.698 92.3805 223.54 92.3805Z" fill="#FFA748"/>
<path d="M212.336 81.182C213.183 81.182 213.865 80.4958 213.865 79.6538V50.8866C213.865 50.0397 213.178 49.3584 212.336 49.3584C211.494 49.3584 210.807 50.0446 210.807 50.8866V79.6538C210.807 80.5006 211.494 81.182 212.336 81.182Z" fill="#FFA748"/>
<path d="M201.551 139.296H145.237C141.887 139.296 139.175 136.585 139.175 133.237C139.175 129.889 141.887 127.178 145.237 127.178H201.551C204.901 127.178 207.613 129.889 207.613 133.237C207.613 136.585 204.901 139.296 201.551 139.296Z" fill="white"/>
<path d="M179.459 105.092V161.376C179.459 164.724 176.746 167.435 173.396 167.435C170.046 167.435 167.334 164.724 167.334 161.376V105.092C167.334 101.744 170.046 99.0332 173.396 99.0332C176.746 99.0332 179.459 101.744 179.459 105.092Z" fill="white"/>
<path d="M430.798 293.124H301.878C299.633 293.124 297.812 291.303 297.812 289.06C297.812 286.816 299.633 284.996 301.878 284.996H430.798C433.042 284.996 434.863 286.816 434.863 289.06C434.863 291.303 433.042 293.124 430.798 293.124Z" fill="white"/>
<path d="M347.226 307.135H257.747C255.502 307.135 253.682 308.953 253.682 311.196C253.682 313.439 255.502 315.257 257.747 315.257H347.226C349.471 315.257 351.292 313.439 351.292 311.196C351.292 308.953 349.471 307.135 347.226 307.135Z" fill="white"/>
<path d="M275.593 293.124H272.492C270.247 293.124 268.426 291.303 268.426 289.06C268.426 286.816 270.247 284.996 272.492 284.996H275.593C277.838 284.996 279.659 286.816 279.659 289.06C279.659 291.303 277.838 293.124 275.593 293.124Z" fill="white"/>
<path d="M376.885 307.135H373.788C371.543 307.135 369.722 308.953 369.722 311.196C369.722 313.439 371.543 315.257 373.788 315.257H376.885C379.13 315.257 380.951 313.439 380.951 311.196C380.951 308.953 379.13 307.135 376.885 307.135Z" fill="white"/>
<path d="M74.9683 525.135L83.2607 523.266L74.9683 521.398C69.6802 520.205 65.5511 516.078 64.3581 510.793L62.4883 502.505L60.6185 510.793C59.4255 516.078 55.2963 520.205 50.0082 521.398L41.7158 523.266L50.0082 525.135C55.2963 526.328 59.4255 530.454 60.6185 535.74L62.4883 544.028L64.3581 535.74C65.5511 530.454 69.6802 526.328 74.9683 525.135Z" fill="white"/>
<path d="M426.002 419.862L432.181 418.47L426.002 417.078C422.062 416.188 418.985 413.117 418.099 409.18L416.706 403.004L415.313 409.18C414.422 413.117 411.35 416.193 407.411 417.078L401.231 418.47L407.411 419.862C411.35 420.753 414.427 423.824 415.313 427.761L416.706 433.937L418.099 427.761C418.99 423.824 422.062 420.748 426.002 419.862Z" fill="white"/>
<path d="M495.297 130.95L491.435 127.894C490.116 126.911 488.811 125.893 487.467 124.93L485.436 123.494L484.419 122.774L483.381 122.083L481.297 120.691C480.601 120.224 479.88 119.8 479.174 119.348C476.34 117.542 473.375 115.921 470.366 114.311L468.072 113.167L466.918 112.597L465.745 112.062C464.961 111.707 464.177 111.342 463.383 110.996L460.978 110.004C454.531 107.395 447.728 105.147 440.507 103.497C436.894 102.684 433.179 102.037 429.376 101.579C425.573 101.146 421.673 100.903 417.738 100.966C409.865 101.063 401.796 102.261 394.142 104.796C386.497 107.327 379.276 111.094 372.931 115.946C371.339 117.153 369.8 118.428 368.315 119.766C366.825 121.1 365.393 122.501 364.005 123.966C363.129 124.891 362.282 125.845 361.444 126.828L343.559 112.043C343.559 112.043 330.826 120.297 323.025 207.46C346.788 197.405 412.947 169.407 412.947 169.407L395.184 154.724L395.33 154.583C396.187 153.751 397.068 152.918 397.949 152.086C398.826 151.249 399.717 150.422 400.608 149.59C402.39 147.925 404.187 146.275 406.013 144.63C407.834 142.976 409.694 141.34 411.613 139.725C415.459 136.517 419.574 133.349 424.253 130.692C426.591 129.368 429.059 128.166 431.655 127.168C434.25 126.151 436.967 125.339 439.777 124.73C445.396 123.538 451.375 123.265 457.355 123.908L459.6 124.171C460.35 124.273 461.095 124.399 461.849 124.511L462.979 124.686L464.104 124.896L466.363 125.324C469.363 125.971 472.377 126.721 475.357 127.655C487.321 131.295 498.963 137.009 509.827 143.964C505.186 139.476 500.375 135.106 495.306 130.955L495.297 130.95Z" fill="#00A99D"/>
<path d="M748.627 16.0068H559.698V51.534H748.627V16.0068Z" fill="#29ABE2"/>
</g>
<defs>
<filter id="filter0_d_231_951" x="0.361816" y="0.112305" width="842.603" height="668.069" filterUnits="userSpaceOnUse" color-interpolation-filters="sRGB">
<feFlood flood-opacity="0" result="BackgroundImageFix"/>
<feColorMatrix in="SourceAlpha" type="matrix" values="0 0 0 0 0 0 0 0 0 0 0 0 0 0 0 0 0 0 127 0" result="hardAlpha"/>
<feOffset dy="4"/>
<feGaussianBlur stdDeviation="2"/>
<feComposite in2="hardAlpha" operator="out"/>
<feColorMatrix type="matrix" values="0 0 0 0 0 0 0 0 0 0 0 0 0 0 0 0 0 0 0.25 0"/>
<feBlend mode="normal" in2="BackgroundImageFix" result="effect1_dropShadow_231_951"/>
<feBlend mode="normal" in="SourceGraphic" in2="effect1_dropShadow_231_951" result="shape"/>
</filter>
<linearGradient id="paint0_linear_231_951" x1="380.707" y1="122.301" x2="844.877" y2="586.716" gradientUnits="userSpaceOnUse">
<stop/>
<stop offset="0.12" stop-color="#383838"/>
<stop offset="0.24" stop-color="#6C6C6C"/>
<stop offset="0.37" stop-color="#999999"/>
<stop offset="0.5" stop-color="#BEBEBE"/>
<stop offset="0.62" stop-color="#DADADA"/>
<stop offset="0.75" stop-color="#EEEEEE"/>
<stop offset="0.88" stop-color="#FAFAFA"/>
<stop offset="1" stop-color="white"/>
</linearGradient>
</defs>
</svg>
