<svg width="1024" height="113" viewBox="0 0 1024 113" fill="none" xmlns="http://www.w3.org/2000/svg">
<rect width="512" height="57" fill="#484848"/>
<rect x="512" width="512" height="57" fill="#F94848"/>
<rect y="56" width="512" height="57" fill="#F94848"/>
<rect x="512" y="56" width="512" height="57" fill="#484848"/>
<rect x="390" y="26" width="243.972" height="61" fill="black"/>
<rect x="399.023" y="33.5141" width="225.925" height="45.1127" stroke="white" stroke-width="3"/>
<path d="M456.227 54.5503C457.187 54.5503 457.987 54.4836 458.627 54.3503C459.267 54.1903 459.773 53.9769 460.147 53.7103C460.52 53.4436 460.787 53.1369 460.947 52.7903C461.107 52.4169 461.187 52.0169 461.187 51.5903C461.187 51.1636 461.107 50.7769 460.947 50.4303C460.787 50.0569 460.52 49.7369 460.147 49.4703C459.773 49.2036 459.267 49.0036 458.627 48.8703C457.987 48.7103 457.187 48.6303 456.227 48.6303H449.307V54.5503H456.227ZM457.267 45.1903C458.547 45.1903 459.707 45.3103 460.747 45.5503C461.787 45.7636 462.68 46.1236 463.427 46.6303C464.173 47.1103 464.747 47.7503 465.147 48.5503C465.547 49.3236 465.747 50.2836 465.747 51.4303C465.747 53.1903 465.227 54.5369 464.187 55.4703C463.147 56.4036 461.747 57.0303 459.987 57.3503L465.307 64.9503C465.493 65.2169 465.707 65.3769 465.947 65.4303C466.213 65.4836 466.453 65.5103 466.667 65.5103V66.2303H459.187V65.5103C459.427 65.5103 459.627 65.4703 459.787 65.3903C459.973 65.3103 460.067 65.2036 460.067 65.0703C460.067 64.9369 460.013 64.7903 459.907 64.6303C459.8 64.4436 459.64 64.2036 459.427 63.9103L455.027 57.6703H449.307V64.7903C449.307 65.0303 449.387 65.2169 449.547 65.3503C449.733 65.4569 450.053 65.5103 450.507 65.5103V66.2303H443.587V65.5103C444.36 65.5103 444.747 65.2703 444.747 64.7903V46.6303C444.747 46.1503 444.36 45.9103 443.587 45.9103V45.1903H457.267ZM487.974 52.3503C487.974 51.8436 487.561 51.5903 486.734 51.5903H476.974V55.5903H483.134C483.587 55.5903 483.921 55.5636 484.134 55.5103C484.347 55.4303 484.454 55.2436 484.454 54.9503H485.174V59.1903H484.374C484.454 58.8969 484.347 58.7236 484.054 58.6703C483.761 58.5903 483.347 58.5503 482.814 58.5503H476.974V63.2703H487.214C487.534 63.2703 487.801 63.2036 488.014 63.0703C488.227 62.9103 488.334 62.7103 488.334 62.4703H489.054V66.6703H488.334C488.334 66.4303 488.227 66.2969 488.014 66.2703C487.801 66.2436 487.534 66.2303 487.214 66.2303H472.534V65.5103C472.667 65.5103 472.801 65.4703 472.934 65.3903C473.067 65.2836 473.134 65.1236 473.134 64.9103V49.9503C473.134 49.7369 473.067 49.5903 472.934 49.5103C472.801 49.4036 472.667 49.3503 472.534 49.3503V48.6303H486.734C487.561 48.6303 487.974 48.3903 487.974 47.9103H488.694V52.3503H487.974ZM508.64 53.6703C508.64 53.6169 508.627 53.5636 508.6 53.5103C508.6 53.4569 508.6 53.3903 508.6 53.3103C508.6 53.1769 508.467 53.0036 508.2 52.7903C507.934 52.5503 507.547 52.3236 507.04 52.1103C506.56 51.8969 505.987 51.7236 505.32 51.5903C504.654 51.4303 503.92 51.3503 503.12 51.3503C502.16 51.3503 501.28 51.4836 500.48 51.7503C499.707 51.9903 499.027 52.3636 498.44 52.8703C497.854 53.3769 497.4 54.0036 497.08 54.7503C496.76 55.4969 496.6 56.3503 496.6 57.3103C496.6 58.2703 496.774 59.1369 497.12 59.9103C497.494 60.6569 497.974 61.3103 498.56 61.8703C499.147 62.4036 499.814 62.8169 500.56 63.1103C501.307 63.3769 502.067 63.5103 502.84 63.5103C503.56 63.5103 504.294 63.4169 505.04 63.2303C505.787 63.0436 506.467 62.8303 507.08 62.5903C507.694 62.3236 508.187 62.0436 508.56 61.7503C508.96 61.4569 509.16 61.1903 509.16 60.9503V60.6303C509.16 60.4703 509.147 60.3369 509.12 60.2303L509.56 59.8303L512.52 64.0703L512.12 64.2703C511.8 64.1369 511.574 64.0703 511.44 64.0703C511.227 64.0703 510.88 64.1903 510.4 64.4303C509.92 64.6703 509.307 64.9503 508.56 65.2703C507.84 65.5636 506.987 65.8169 506 66.0303C505.04 66.2436 503.96 66.3503 502.76 66.3503C501.534 66.3503 500.32 66.1769 499.12 65.8303C497.92 65.4836 496.854 64.9369 495.92 64.1903C494.987 63.4169 494.227 62.4703 493.64 61.3503C493.054 60.2036 492.76 58.8836 492.76 57.3903C492.76 55.8969 493.054 54.5903 493.64 53.4703C494.227 52.3503 495 51.4169 495.96 50.6703C496.92 49.8969 498.014 49.3236 499.24 48.9503C500.494 48.5769 501.774 48.3903 503.08 48.3903C504.094 48.3903 505.014 48.4836 505.84 48.6703C506.694 48.8569 507.44 49.0703 508.08 49.3103C508.72 49.5503 509.254 49.7636 509.68 49.9503C510.107 50.1369 510.414 50.2303 510.6 50.2303C510.734 50.2303 510.84 50.1903 510.92 50.1103C511.027 50.0303 511.134 49.9636 511.24 49.9103L511.72 50.1903L509.08 53.9903L508.64 53.6703ZM525.907 51.3503C525.054 51.3503 524.214 51.4969 523.387 51.7903C522.587 52.0569 521.867 52.4569 521.227 52.9903C520.587 53.4969 520.067 54.1236 519.667 54.8703C519.294 55.6169 519.107 56.4703 519.107 57.4303C519.107 58.3903 519.294 59.2436 519.667 59.9903C520.067 60.7369 520.587 61.3769 521.227 61.9103C521.867 62.4169 522.587 62.8169 523.387 63.1103C524.214 63.3769 525.054 63.5103 525.907 63.5103C526.76 63.5103 527.587 63.3769 528.387 63.1103C529.214 62.8169 529.947 62.4169 530.587 61.9103C531.227 61.3769 531.734 60.7369 532.107 59.9903C532.507 59.2436 532.707 58.3903 532.707 57.4303C532.707 56.4703 532.507 55.6169 532.107 54.8703C531.734 54.1236 531.227 53.4969 530.587 52.9903C529.947 52.4569 529.214 52.0569 528.387 51.7903C527.587 51.4969 526.76 51.3503 525.907 51.3503ZM525.907 48.3903C527.374 48.3903 528.747 48.5769 530.027 48.9503C531.334 49.3236 532.467 49.8836 533.427 50.6303C534.387 51.3769 535.147 52.3236 535.707 53.4703C536.267 54.5903 536.547 55.9103 536.547 57.4303C536.547 58.9503 536.267 60.2836 535.707 61.4303C535.147 62.5503 534.387 63.4836 533.427 64.2303C532.467 64.9769 531.334 65.5236 530.027 65.8703C528.747 66.1903 527.374 66.3503 525.907 66.3503C524.44 66.3503 523.054 66.1903 521.747 65.8703C520.467 65.5236 519.347 64.9769 518.387 64.2303C517.427 63.4836 516.667 62.5503 516.107 61.4303C515.547 60.2836 515.267 58.9503 515.267 57.4303C515.267 55.9103 515.547 54.5903 516.107 53.4703C516.667 52.3236 517.427 51.3769 518.387 50.6303C519.347 49.8836 520.467 49.3236 521.747 48.9503C523.054 48.5769 524.44 48.3903 525.907 48.3903ZM542.6 60.1103C542.6 60.2169 542.587 60.3369 542.56 60.4703C542.56 60.5769 542.56 60.6969 542.56 60.8303C542.56 61.2303 542.813 61.6036 543.32 61.9503C543.827 62.2703 544.427 62.5503 545.12 62.7903C545.84 63.0036 546.547 63.1769 547.24 63.3103C547.96 63.4436 548.52 63.5103 548.92 63.5103C549.293 63.5103 549.747 63.4836 550.28 63.4303C550.84 63.3769 551.387 63.2703 551.92 63.1103C552.453 62.9236 552.907 62.6836 553.28 62.3903C553.653 62.0703 553.84 61.6569 553.84 61.1503C553.84 60.5636 553.507 60.1369 552.84 59.8703C552.2 59.6036 551.387 59.4036 550.4 59.2703C549.413 59.1103 548.347 58.9636 547.2 58.8303C546.053 58.6703 544.987 58.4303 544 58.1103C543.013 57.7636 542.187 57.2836 541.52 56.6703C540.88 56.0303 540.56 55.1369 540.56 53.9903C540.56 52.2836 541.267 50.9236 542.68 49.9103C544.093 48.8969 546.08 48.3903 548.64 48.3903C549.893 48.3903 550.96 48.4969 551.84 48.7103C552.747 48.8969 553.507 49.1103 554.12 49.3503C554.733 49.5903 555.227 49.8169 555.6 50.0303C556 50.2169 556.293 50.3103 556.48 50.3103C556.693 50.3103 556.853 50.2836 556.96 50.2303C557.067 50.1503 557.2 50.0703 557.36 49.9903L557.8 50.4303L555.8 54.1903L555.08 53.9503C555.053 53.7903 555.027 53.6303 555 53.4703C554.973 53.3103 554.853 53.1503 554.64 52.9903C554.107 52.5369 553.28 52.1503 552.16 51.8303C551.04 51.5103 549.787 51.3503 548.4 51.3503C547.867 51.3503 547.36 51.3903 546.88 51.4703C546.4 51.5236 545.973 51.6303 545.6 51.7903C545.227 51.9503 544.933 52.1636 544.72 52.4303C544.507 52.6703 544.4 52.9769 544.4 53.3503C544.4 53.9369 544.72 54.3636 545.36 54.6303C546.027 54.8703 546.853 55.0703 547.84 55.2303C548.827 55.3636 549.893 55.5103 551.04 55.6703C552.187 55.8036 553.253 56.0436 554.24 56.3903C555.227 56.7369 556.04 57.2436 556.68 57.9103C557.347 58.5769 557.68 59.4969 557.68 60.6703C557.68 61.8436 557.387 62.8036 556.8 63.5503C556.24 64.2969 555.533 64.8836 554.68 65.3103C553.827 65.7369 552.88 66.0169 551.84 66.1503C550.827 66.2836 549.867 66.3503 548.96 66.3503C548.053 66.3503 547.147 66.2703 546.24 66.1103C545.36 65.9236 544.547 65.7236 543.8 65.5103C543.08 65.2703 542.467 65.0569 541.96 64.8703C541.453 64.6569 541.147 64.5503 541.04 64.5503C540.853 64.5503 540.693 64.6303 540.56 64.7903L540 64.3903L541.84 59.9103L542.6 60.1103ZM567.827 64.9103C567.827 65.3103 568.08 65.5103 568.587 65.5103V66.2303H563.347V65.5103C563.773 65.5103 563.987 65.3103 563.987 64.9103V49.9503C563.987 49.5503 563.773 49.3503 563.347 49.3503V48.6303H568.587V49.3503C568.08 49.3503 567.827 49.5503 567.827 49.9503V56.4703C568.733 55.7236 569.667 54.9769 570.627 54.2303C571.587 53.4569 572.453 52.7503 573.227 52.1103C574 51.4703 574.64 50.9369 575.147 50.5103C575.653 50.0569 575.907 49.7769 575.907 49.6703C575.907 49.5369 575.827 49.4303 575.667 49.3503C575.533 49.2703 575.4 49.2303 575.267 49.2303V48.6303H581.867V49.3503C581.547 49.4569 581.067 49.7636 580.427 50.2703L573.747 55.6703L580.067 63.5103C580.387 63.9103 580.733 64.3236 581.107 64.7503C581.48 65.1503 581.853 65.4036 582.227 65.5103V66.2303H576.307V65.5103C576.6 65.5103 576.747 65.4303 576.747 65.2703C576.747 65.1636 576.68 65.0169 576.547 64.8303C576.44 64.6436 576.213 64.3503 575.867 63.9503L570.947 57.9503L567.827 60.4303V64.9103Z" fill="white"/>
</svg>
