<svg width="711" height="678" viewBox="0 0 711 678" fill="none" xmlns="http://www.w3.org/2000/svg">
<g filter="url(#filter0_d_229_949)">
<g opacity="0.41">
<path d="M706.649 422.034C707.307 410.762 707.016 399.429 705.746 388.219C699.777 335.532 672.717 285.842 632.907 250.789C618.703 238.278 602.541 227.083 593.296 210.566C577.73 182.762 578.909 150.813 559.593 123.361C540.247 95.8775 512.069 74.4509 480.28 63.4393C385.492 30.6188 252.808 84.0554 264.747 198.163C264.793 198.576 264.839 199.172 264.885 199.921C266.476 223.627 247.849 243.555 224.156 244.121C136.7 246.2 61.4276 313.57 45.3262 398.909C34.9643 453.799 51.9229 513.949 92.1 552.765C122.084 581.747 162.322 597.668 202.591 608.603C283.312 630.534 368.258 635.138 451.49 626.741C529.395 618.896 611.571 596.505 661.957 536.615C688.833 504.666 704.231 463.694 706.649 422.003V422.034Z" fill="#E1E2FE"/>
</g>
<g opacity="0.31">
<path d="M326.21 38.2131C328.003 27.1315 320.465 16.6962 309.375 14.9053C298.285 13.1145 287.842 20.6461 286.049 31.7278C284.257 42.8095 291.795 53.2448 302.885 55.0356C313.975 56.8265 324.418 49.2948 326.21 38.2131Z" fill="#E1E2FE"/>
</g>
<g opacity="0.31">
<path d="M581.036 33.0505C586.835 33.0505 591.536 28.3533 591.536 22.5589C591.536 16.7646 586.835 12.0674 581.036 12.0674C575.237 12.0674 570.537 16.7646 570.537 22.5589C570.537 28.3533 575.237 33.0505 581.036 33.0505Z" fill="#E1E2FE"/>
</g>
<g opacity="0.31">
<path d="M224.105 83.8714C225.984 76.3396 221.397 68.7115 213.86 66.8337C206.322 64.9558 198.688 69.5392 196.809 77.071C194.93 84.6028 199.517 92.2308 207.054 94.1087C214.592 95.9866 222.226 91.4032 224.105 83.8714Z" fill="#E1E2FE"/>
</g>
<g opacity="0.31">
<path d="M48.2494 622.275C65.9416 622.275 80.284 607.944 80.284 590.265C80.284 572.587 65.9416 558.255 48.2494 558.255C30.5572 558.255 16.2148 572.587 16.2148 590.265C16.2148 607.944 30.5572 622.275 48.2494 622.275Z" fill="#E1E2FE"/>
</g>
<path opacity="0.47" d="M697.94 90.8764C707.077 73.105 700.052 51.296 682.267 42.1809C664.482 33.0504 630.305 33.7234 621.167 51.4948C612.03 69.2662 639.411 84.5141 650.569 101.093C666.135 124.202 688.803 108.648 697.925 90.8764H697.94Z" fill="#E1E2FE"/>
<path opacity="0.47" d="M620.173 637.095C633.045 645.4 650.202 641.699 658.513 628.837C666.824 615.975 668.89 589.899 656.034 581.594C643.162 573.29 629.463 592.988 615.964 600.237C597.153 610.347 607.301 628.791 620.173 637.095Z" fill="#E1E2FE"/>
<path opacity="0.47" d="M94.931 9.34535C80.7886 -3.79204 58.6568 -2.98147 45.5093 11.1653C32.3618 25.3121 24.0509 57.2456 38.2085 70.383C52.3662 83.5204 73.7175 62.0631 92.0688 56.0221C117.66 47.5952 109.104 22.4674 94.9463 9.33006L94.931 9.34535Z" fill="#E1E2FE"/>
<path opacity="0.47" d="M16.9191 162.023C4.29199 189.384 0.84824 220.95 6.90925 250.452C14.0263 285.138 35.6378 311.78 28.1381 348.776C23.577 371.319 22.4291 392.195 20.1179 414.494C15.3579 460.283 45.1119 500.628 82.029 522.422C112.013 540.117 147.154 546.755 181.622 546.28C212.647 545.852 243.61 540.132 273.67 532.44C302.643 525.022 330.959 515.249 361.325 518.339C386.579 520.908 409.323 531.812 432.848 539.949C489.004 559.372 557.007 562.11 608.357 532.547C641.31 513.567 664.375 482.765 674.599 449.624C682.773 423.15 683.813 398.389 677.691 371.35C671.4 343.591 660.778 315.619 664.069 286.698C666.365 266.541 675.594 247.103 673.895 226.884C672.778 213.456 666.855 200.854 659.615 189.491C633.198 147.968 588.949 120.164 542.16 104.855C498.126 90.4328 452.699 80.0025 406.859 83.4742C312.056 90.647 292.741 75.5978 195.856 54.89C133.318 41.5232 63.3562 89.1788 26.7606 144.374C23.026 150.002 19.7506 155.906 16.9344 162.023H16.9191Z" fill="#E1E2FE"/>
<path opacity="0.81" d="M82.1362 204.678C80.1924 226.532 87.5697 249.06 81.4015 270.701C74.0243 296.624 52.6424 316.032 43.9335 341.481C31.0615 379.073 31.6738 421.208 47.316 457.852C54.8464 475.516 65.8511 491.911 80.8812 503.259C104.054 520.755 134.405 524.594 162.965 522.376C205.453 519.073 250.298 500.69 293.016 505.706C316.587 508.474 323.796 533.969 335.964 550.792C349.739 569.818 368.488 584.76 389.227 594.701C427.415 613.023 473.255 614.751 512.284 598.142C553.961 580.401 590.281 537.104 587.893 488.118C586.791 465.453 577.715 442.955 581.909 420.688C587.189 392.746 608.25 367.282 623.525 344.524C640.391 319.381 650.6 289.405 652.59 258.818C652.605 258.466 652.636 258.13 652.651 257.778C655.789 205.014 622.469 156.884 572.22 140.367L465.296 105.222C356.795 69.572 248.401 70.7496 148.639 123.07C127.058 134.387 91.9012 168.125 84.6616 191.387C83.2994 195.777 82.5189 200.212 82.1209 204.662L82.1362 204.678Z" fill="#E1E2FE"/>
<path opacity="0.58" d="M688.971 556.008C692.775 556.008 695.859 552.926 695.859 549.125C695.859 545.324 692.775 542.243 688.971 542.243C685.168 542.243 682.084 545.324 682.084 549.125C682.084 552.926 685.168 556.008 688.971 556.008Z" fill="#3E479B"/>
<path opacity="0.58" d="M370.799 19.6223C374.603 19.6223 377.686 16.5411 377.686 12.7401C377.686 8.93918 374.603 5.85791 370.799 5.85791C366.995 5.85791 363.911 8.93918 363.911 12.7401C363.911 16.5411 366.995 19.6223 370.799 19.6223Z" fill="#3E479B"/>
<path opacity="0.58" d="M121.976 619.477C125.78 619.477 128.864 616.396 128.864 612.595C128.864 608.794 125.78 605.712 121.976 605.712C118.173 605.712 115.089 608.794 115.089 612.595C115.089 616.396 118.173 619.477 121.976 619.477Z" fill="#3E479B"/>
<path opacity="0.58" d="M556.701 646.883C559.659 646.883 562.058 644.487 562.058 641.531C562.058 638.574 559.659 636.178 556.701 636.178C553.742 636.178 551.344 638.574 551.344 641.531C551.344 644.487 553.742 646.883 556.701 646.883Z" fill="#EF929C"/>
<path opacity="0.58" d="M91.5795 132.246C92.8475 132.246 93.8754 131.219 93.8754 129.952C93.8754 128.685 92.8475 127.658 91.5795 127.658C90.3116 127.658 89.2837 128.685 89.2837 129.952C89.2837 131.219 90.3116 132.246 91.5795 132.246Z" fill="#3E479B"/>
<path opacity="0.58" d="M580.624 61.5276C579.675 65.9934 575.282 68.8381 570.813 67.8898C566.343 66.9416 563.497 62.5523 564.446 58.0865C565.395 53.6207 569.787 50.7761 574.256 51.7243C578.726 52.6725 581.572 57.0618 580.624 61.5276Z" fill="#EF929C"/>
<path opacity="0.58" d="M138.614 23.5528C138.247 25.2963 136.517 26.4127 134.757 26.0457C133.012 25.6786 131.895 23.9504 132.262 22.1916C132.63 20.4481 134.359 19.3317 136.119 19.6987C137.864 20.0658 138.981 21.794 138.614 23.5528Z" fill="#EF929C"/>
<path opacity="0.58" d="M655.575 9.9264C655.253 11.4099 653.799 12.3581 652.299 12.0522C650.799 11.7464 649.866 10.2782 650.172 8.77936C650.493 7.29586 651.947 6.34765 653.447 6.65352C654.932 6.97469 655.881 8.4276 655.575 9.9264Z" fill="#3E479B"/>
<path opacity="0.58" d="M72.3408 666.995C72.0194 668.478 70.5653 669.426 69.0654 669.121C67.5654 668.815 66.6318 667.346 66.9379 665.848C67.2593 664.364 68.7134 663.416 70.2133 663.722C71.6979 664.043 72.6469 665.496 72.3408 666.995Z" fill="#3E479B"/>
<g opacity="0.66">
<path d="M270.762 255.759L258.579 254.826C257.645 245.665 254.737 237.024 250.237 229.377L259.512 221.424C264.211 217.402 264.747 210.336 260.721 205.641C256.696 200.946 249.625 200.411 244.926 204.433L235.651 212.386C228.779 206.788 220.667 202.598 211.743 200.288L212.677 188.114C213.152 181.951 208.529 176.568 202.361 176.094C196.193 175.619 190.805 180.238 190.331 186.402L189.397 198.575C180.229 199.508 171.582 202.414 163.929 206.911L155.97 197.643C151.945 192.947 144.873 192.412 140.175 196.434C135.476 200.457 134.94 207.522 138.966 212.218L146.924 221.486C141.323 228.353 137.129 236.458 134.818 245.375L122.634 244.442C116.466 243.968 111.079 248.586 110.604 254.75C110.13 260.913 114.752 266.296 120.92 266.771L133.103 267.703C134.037 276.865 136.945 285.506 141.445 293.152L132.17 301.105C127.471 305.127 126.935 312.193 130.961 316.888C134.986 321.584 142.057 322.119 146.756 318.097L156.031 310.144C162.903 315.741 171.015 319.932 179.939 322.241L179.005 334.415C178.53 340.579 183.153 345.962 189.321 346.436C195.489 346.91 200.877 342.291 201.351 336.128L202.285 323.954C211.453 323.021 220.1 320.115 227.753 315.619L235.712 324.887C239.737 329.582 246.809 330.118 251.507 326.095C256.206 322.073 256.742 315.007 252.716 310.312L244.758 301.044C250.359 294.177 254.553 286.071 256.864 277.155L269.048 278.088C275.216 278.562 280.603 273.943 281.078 267.78C281.552 261.617 276.93 256.233 270.762 255.759ZM192.382 306.749C167.25 304.837 148.424 282.921 150.353 257.793C152.266 232.681 174.199 213.869 199.346 215.796C224.478 217.708 243.304 239.624 241.375 264.752C239.447 289.88 217.529 308.676 192.382 306.749Z" fill="white"/>
<path d="M531.003 598.968C529.533 598.968 528.064 598.616 526.717 597.913C524.498 596.766 522.875 594.823 522.125 592.453L519.937 585.555C514.274 586.136 508.657 585.647 503.192 584.118L499.856 590.541C497.484 595.099 491.836 596.888 487.275 594.518C485.055 593.37 483.433 591.428 482.683 589.058C481.933 586.687 482.147 584.164 483.295 581.946L486.632 575.523C482.224 571.944 478.596 567.616 475.811 562.676L468.908 564.863C463.995 566.423 458.745 563.685 457.184 558.791C456.434 556.421 456.648 553.897 457.796 551.68C458.944 549.462 460.888 547.841 463.26 547.091L470.163 544.904C469.581 539.261 470.071 533.633 471.602 528.173L465.173 524.839C462.954 523.692 461.332 521.75 460.582 519.379C459.832 517.008 460.046 514.485 461.194 512.267C462.342 510.05 464.286 508.429 466.658 507.679C469.03 506.93 471.556 507.144 473.775 508.291L480.204 511.625C483.785 507.22 488.101 503.596 493.06 500.812L490.872 493.915C489.326 489.005 492.05 483.76 496.948 482.2C499.32 481.45 501.846 481.664 504.065 482.811C506.284 483.958 507.907 485.901 508.657 488.271L510.845 495.169C516.508 494.588 522.125 495.077 527.59 496.606L530.926 490.183C533.299 485.626 538.946 483.836 543.507 486.207C548.068 488.577 549.859 494.221 547.487 498.778L544.15 505.202C548.558 508.78 552.186 513.109 554.971 518.048L561.874 515.861C564.246 515.112 566.772 515.326 568.991 516.473C571.21 517.62 572.833 519.562 573.583 521.933C575.129 526.842 572.404 532.088 567.507 533.648L560.604 535.835C561.185 541.479 560.696 547.107 559.165 552.567L565.593 555.901C570.154 558.271 571.945 563.915 569.573 568.472C568.425 570.69 566.481 572.311 564.109 573.06C561.736 573.81 559.211 573.596 556.992 572.449L550.563 569.114C546.966 573.519 542.65 577.144 537.707 579.927L539.895 586.825C540.645 589.195 540.431 591.734 539.283 593.936C538.135 596.154 536.191 597.775 533.819 598.525C532.885 598.815 531.936 598.968 530.987 598.968H531.003ZM522.08 582.206L525.034 591.535C525.539 593.126 526.641 594.441 528.125 595.206C529.61 595.97 531.309 596.123 532.916 595.619C534.508 595.114 535.824 594.013 536.589 592.529C537.355 591.046 537.508 589.348 537.002 587.742L534.048 578.413L535.181 577.817C540.599 574.972 545.237 571.072 548.971 566.224L549.752 565.215L558.446 569.726C559.93 570.491 561.629 570.644 563.236 570.139C564.828 569.634 566.144 568.533 566.91 567.05C568.501 563.991 567.308 560.198 564.231 558.592L555.538 554.081L555.92 552.857C557.742 547.015 558.262 540.989 557.466 534.918L557.298 533.648L566.634 530.696C569.925 529.656 571.761 526.124 570.721 522.82C570.216 521.23 569.114 519.914 567.629 519.15C566.144 518.385 564.445 518.232 562.854 518.737L553.517 521.688L552.92 520.557C550.073 515.143 546.171 510.509 541.319 506.777L540.308 505.997L544.824 497.31C546.415 494.236 545.222 490.443 542.145 488.853C539.069 487.262 535.273 488.455 533.681 491.529L529.166 500.216L527.942 499.833C522.095 498.014 516.064 497.509 509.988 498.289L508.718 498.457L505.764 489.128C505.259 487.537 504.157 486.222 502.672 485.457C501.187 484.693 499.489 484.54 497.881 485.044C494.591 486.084 492.754 489.617 493.795 492.921L496.749 502.25L495.616 502.846C490.198 505.691 485.56 509.591 481.826 514.439L481.045 515.448L472.352 510.937C470.867 510.172 469.168 510.019 467.576 510.524C465.985 511.029 464.668 512.13 463.903 513.613C463.138 515.097 462.985 516.794 463.49 518.385C463.995 519.975 465.097 521.291 466.582 522.055L475.275 526.567L474.892 527.791C473.071 533.633 472.551 539.659 473.347 545.73L473.515 547L464.179 549.951C462.587 550.456 461.271 551.557 460.505 553.041C459.74 554.524 459.587 556.222 460.092 557.828C461.133 561.116 464.668 562.951 467.974 561.911L477.311 558.959L477.908 560.091C480.755 565.505 484.657 570.139 489.509 573.871L490.519 574.651L486.004 583.338C485.239 584.821 485.086 586.519 485.591 588.109C486.096 589.7 487.198 591.015 488.683 591.78C491.759 593.37 495.555 592.162 497.147 589.104L501.662 580.417L502.886 580.799C508.733 582.619 514.764 583.124 520.825 582.344L522.095 582.175L522.08 582.206ZM515.36 573.672C510.095 573.672 504.861 572.403 500.04 569.91C492.142 565.811 486.31 558.883 483.617 550.41C480.923 541.937 481.703 532.914 485.805 525.022C489.907 517.131 496.841 511.304 505.32 508.612C513.815 505.92 522.83 506.7 530.727 510.799C538.625 514.898 544.456 521.826 547.15 530.299C549.844 538.772 549.063 547.795 544.961 555.686C540.859 563.578 533.926 569.405 525.447 572.097C522.125 573.152 518.728 573.672 515.345 573.672H515.36ZM515.437 510.096C512.361 510.096 509.284 510.57 506.269 511.518C498.555 513.95 492.264 519.241 488.545 526.414C484.826 533.587 484.106 541.769 486.555 549.477C488.989 557.185 494.285 563.471 501.463 567.187C508.641 570.904 516.845 571.607 524.544 569.176C532.258 566.744 538.548 561.452 542.268 554.279C545.987 547.107 546.706 538.924 544.257 531.216C541.824 523.508 536.528 517.223 529.35 513.506C524.972 511.243 520.228 510.096 515.437 510.096Z" fill="white"/>
<path d="M611.388 541.876C610.821 541.876 610.24 541.83 609.658 541.754C603.092 540.806 598.531 534.688 599.495 528.142L600.964 518.079C593.557 515.433 586.853 511.457 581.006 506.211L572.848 512.283C570.277 514.194 567.109 515.005 563.925 514.546C560.741 514.087 557.941 512.42 556.027 509.851C552.063 504.544 553.165 497.004 558.476 493.043L566.634 486.971C563.267 479.875 561.354 472.32 560.925 464.474L550.854 463.006C544.288 462.058 539.727 455.94 540.691 449.394C541.15 446.213 542.819 443.415 545.39 441.488C547.961 439.576 551.13 438.765 554.313 439.224L564.384 440.692C567.032 433.29 571.012 426.591 576.261 420.749L570.185 412.613C568.272 410.043 567.461 406.878 567.92 403.696C568.379 400.515 570.047 397.717 572.634 395.79C575.205 393.878 578.373 393.067 581.557 393.526C584.741 393.985 587.542 395.652 589.455 398.237L595.531 406.373C602.633 403.008 610.194 401.097 618.046 400.668L619.515 390.605C620.464 384.044 626.601 379.486 633.137 380.45C636.32 380.909 639.121 382.576 641.034 385.145C642.948 387.714 643.759 390.88 643.3 394.061L641.83 404.125C649.238 406.771 655.942 410.747 661.789 415.993L669.947 409.921C675.258 405.96 682.803 407.046 686.768 412.368C690.732 417.675 689.63 425.215 684.319 429.176L676.176 435.248C679.543 442.344 681.456 449.899 681.885 457.745L691.956 459.213C698.522 460.161 703.068 466.279 702.119 472.825C701.17 479.386 695.048 483.943 688.497 482.98L678.426 481.527C675.778 488.929 671.799 495.628 666.549 501.47L672.625 509.621C676.589 514.928 675.487 522.468 670.176 526.429C667.605 528.341 664.437 529.152 661.253 528.693C658.07 528.234 655.269 526.567 653.34 523.982L647.264 515.846C640.162 519.211 632.601 521.122 624.749 521.551L623.28 531.614C622.408 537.579 617.265 541.891 611.388 541.907V541.876ZM581.19 502.235L582.123 503.106C588.184 508.765 595.24 512.971 603.123 515.601L604.332 515.999L602.51 528.57C601.806 533.449 605.204 538.007 610.087 538.71C614.969 539.414 619.53 536.019 620.234 531.14L622.056 518.568L623.341 518.522C631.637 518.247 639.611 516.228 647.019 512.512L648.167 511.946L655.774 522.132C657.197 524.044 659.294 525.298 661.666 525.634C664.039 525.986 666.396 525.374 668.309 523.952C672.273 521 673.084 515.372 670.13 511.426L662.523 501.24L663.396 500.308C669.059 494.266 673.268 487.201 675.901 479.324L676.299 478.116L688.88 479.936C693.777 480.64 698.323 477.244 699.027 472.366C699.731 467.487 696.333 462.929 691.451 462.226L678.87 460.406L678.824 459.121C678.548 450.832 676.528 442.864 672.809 435.462L672.243 434.315L682.436 426.714C686.4 423.762 687.211 418.149 684.257 414.188C682.834 412.276 680.737 411.022 678.365 410.686C675.992 410.334 673.635 410.946 671.722 412.368L661.529 419.969L660.595 419.097C654.534 413.439 647.478 409.233 639.596 406.602L638.387 406.205L640.208 393.633C640.545 391.263 639.948 388.907 638.524 386.996C637.086 385.084 635.004 383.83 632.632 383.493C627.734 382.775 623.188 386.185 622.484 391.064L620.663 403.635L619.377 403.681C611.081 403.956 603.107 405.975 595.699 409.692L594.551 410.258L586.945 400.072C585.521 398.16 583.424 396.906 581.052 396.57C578.68 396.233 576.323 396.83 574.409 398.252C572.496 399.674 571.241 401.769 570.904 404.14C570.568 406.511 571.165 408.866 572.588 410.777L580.195 420.963L579.322 421.896C573.659 427.952 569.45 435.003 566.818 442.879L566.42 444.087L553.839 442.267C551.482 441.931 549.109 442.527 547.196 443.95C545.283 445.372 544.028 447.467 543.691 449.838C542.987 454.717 546.385 459.274 551.267 459.978L563.848 461.798L563.894 463.082C564.17 471.372 566.19 479.34 569.909 486.742L570.476 487.889L560.282 495.49C558.369 496.912 557.114 499.008 556.777 501.378C556.441 503.749 557.038 506.104 558.461 508.016C559.884 509.927 561.981 511.181 564.354 511.518C566.726 511.854 569.083 511.258 570.996 509.836L581.19 502.235ZM621.428 505.309C607.929 505.309 594.582 499.176 585.904 487.552C571.302 468.007 575.343 440.233 594.903 425.643C604.378 418.577 616.04 415.626 627.734 417.323C639.443 419.021 649.774 425.169 656.845 434.636C663.916 444.103 666.87 455.757 665.171 467.441C663.472 479.141 657.32 489.464 647.845 496.53C639.917 502.449 630.627 505.293 621.428 505.293V505.309ZM621.29 419.923C612.474 419.923 603.934 422.737 596.74 428.105C578.527 441.686 574.777 467.533 588.368 485.733C601.959 503.932 627.826 507.679 646.039 494.098C654.855 487.522 660.58 477.902 662.171 467.028C663.748 456.139 660.993 445.296 654.412 436.486C647.83 427.677 638.203 421.942 627.321 420.367C625.316 420.076 623.311 419.923 621.306 419.923H621.29Z" fill="white"/>
</g>
<g opacity="0.81">
<path d="M413.487 548.039H382.049C381.207 548.039 380.519 547.351 380.519 546.51C380.519 545.669 381.207 544.98 382.049 544.98H413.487C414.329 544.98 415.017 545.669 415.017 546.51C415.017 547.351 414.329 548.039 413.487 548.039Z" fill="white"/>
<path d="M413.487 580.691H382.049C381.207 580.691 380.519 580.002 380.519 579.161C380.519 578.32 381.207 577.632 382.049 577.632H413.487C414.329 577.632 415.017 578.32 415.017 579.161C415.017 580.002 414.329 580.691 413.487 580.691Z" fill="white"/>
<path d="M437.21 613.665H243.028C240.732 613.665 238.88 611.799 238.88 609.52V508.81C238.88 506.516 240.748 504.666 243.028 504.666H437.21C439.506 504.666 441.358 506.531 441.358 508.81V609.52C441.358 611.814 439.49 613.665 437.21 613.665ZM243.028 507.724C242.431 507.724 241.941 508.214 241.941 508.81V609.52C241.941 610.116 242.431 610.606 243.028 610.606H437.21C437.807 610.606 438.297 610.116 438.297 609.52V508.81C438.297 508.214 437.807 507.724 437.21 507.724H243.028Z" fill="white"/>
<path opacity="0.66" d="M437.21 613.665H243.028C240.732 613.665 238.88 611.799 238.88 609.52V508.81C238.88 506.516 240.748 504.666 243.028 504.666H437.21C439.506 504.666 441.358 506.531 441.358 508.81V609.52C441.358 611.814 439.49 613.665 437.21 613.665ZM243.028 507.724C242.431 507.724 241.941 508.214 241.941 508.81V609.52C241.941 610.116 242.431 610.606 243.028 610.606H437.21C437.807 610.606 438.297 610.116 438.297 609.52V508.81C438.297 508.214 437.807 507.724 437.21 507.724H243.028Z" fill="white"/>
<path d="M413.486 532.179H263.66C262.818 532.179 262.129 531.491 262.129 530.65C262.129 529.809 262.818 529.121 263.66 529.121H413.486C414.328 529.121 415.017 529.809 415.017 530.65C415.017 531.491 414.328 532.179 413.486 532.179Z" fill="white"/>
<path d="M413.486 563.883H263.66C262.818 563.883 262.129 563.195 262.129 562.354C262.129 561.513 262.818 560.825 263.66 560.825H413.486C414.328 560.825 415.017 561.513 415.017 562.354C415.017 563.195 414.328 563.883 413.486 563.883Z" fill="white"/>
<path d="M344.428 548.039H263.645C262.803 548.039 262.115 547.351 262.115 546.51C262.115 545.669 262.803 544.98 263.645 544.98H344.428C345.27 544.98 345.959 545.669 345.959 546.51C345.959 547.351 345.27 548.039 344.428 548.039Z" fill="white"/>
<path d="M344.428 580.691H263.645C262.803 580.691 262.115 580.002 262.115 579.161C262.115 578.32 262.803 577.632 263.645 577.632H344.428C345.27 577.632 345.959 578.32 345.959 579.161C345.959 580.002 345.27 580.691 344.428 580.691Z" fill="white"/>
<path d="M318.132 595.817H263.66C262.818 595.817 262.129 595.128 262.129 594.287C262.129 593.446 262.818 592.758 263.66 592.758H318.132C318.974 592.758 319.663 593.446 319.663 594.287C319.663 595.128 318.974 595.817 318.132 595.817Z" fill="white"/>
</g>
<g opacity="0.81">
<path d="M112.655 450.112H77.3147C76.4729 450.112 75.7842 449.424 75.7842 448.583C75.7842 447.742 76.4729 447.054 77.3147 447.054H112.655C113.497 447.054 114.186 447.742 114.186 448.583C114.186 449.424 113.497 450.112 112.655 450.112Z" fill="white"/>
<path d="M112.655 413.407H77.3147C76.4729 413.407 75.7842 412.719 75.7842 411.878C75.7842 411.037 76.4729 410.349 77.3147 410.349H112.655C113.497 410.349 114.186 411.037 114.186 411.878C114.186 412.719 113.497 413.407 112.655 413.407Z" fill="white"/>
<path d="M269.216 495.413H50.3309C48.0351 495.413 46.1831 493.547 46.1831 491.268V377.436C46.1831 375.142 48.0504 373.292 50.3309 373.292H269.231C271.527 373.292 273.379 375.157 273.379 377.436V491.268C273.379 493.562 271.512 495.413 269.231 495.413H269.216ZM50.3309 376.335C49.734 376.335 49.2442 376.824 49.2442 377.421V491.253C49.2442 491.849 49.734 492.339 50.3309 492.339H269.231C269.828 492.339 270.318 491.849 270.318 491.253V377.421C270.318 376.824 269.828 376.335 269.231 376.335H50.3309Z" fill="white"/>
<path opacity="0.66" d="M269.216 495.413H50.3309C48.0351 495.413 46.1831 493.547 46.1831 491.268V377.436C46.1831 375.142 48.0504 373.292 50.3309 373.292H269.231C271.527 373.292 273.379 375.157 273.379 377.436V491.268C273.379 493.562 271.512 495.413 269.231 495.413H269.216ZM50.3309 376.335C49.734 376.335 49.2442 376.824 49.2442 377.421V491.253C49.2442 491.849 49.734 492.339 50.3309 492.339H269.231C269.828 492.339 270.318 491.849 270.318 491.253V377.421C270.318 376.824 269.828 376.335 269.231 376.335H50.3309Z" fill="white"/>
<path d="M245.722 467.93H77.3304C76.4886 467.93 75.7998 467.242 75.7998 466.4C75.7998 465.559 76.4886 464.871 77.3304 464.871H245.722C246.564 464.871 247.253 465.559 247.253 466.4C247.253 467.242 246.564 467.93 245.722 467.93Z" fill="white"/>
<path d="M245.722 432.296H77.3304C76.4886 432.296 75.7998 431.607 75.7998 430.766C75.7998 429.925 76.4886 429.237 77.3304 429.237H245.722C246.564 429.237 247.253 429.925 247.253 430.766C247.253 431.607 246.564 432.296 245.722 432.296Z" fill="white"/>
<path d="M245.723 450.112H154.93C154.088 450.112 153.399 449.424 153.399 448.583C153.399 447.742 154.088 447.054 154.93 447.054H245.723C246.564 447.054 247.253 447.742 247.253 448.583C247.253 449.424 246.564 450.112 245.723 450.112Z" fill="white"/>
<path d="M245.723 413.407H154.93C154.088 413.407 153.399 412.719 153.399 411.878C153.399 411.037 154.088 410.349 154.93 410.349H245.723C246.564 410.349 247.253 411.037 247.253 411.878C247.253 412.719 246.564 413.407 245.723 413.407Z" fill="white"/>
<path d="M245.722 396.4H184.5C183.658 396.4 182.969 395.712 182.969 394.871C182.969 394.03 183.658 393.341 184.5 393.341H245.722C246.564 393.341 247.253 394.03 247.253 394.871C247.253 395.712 246.564 396.4 245.722 396.4Z" fill="white"/>
</g>
<path opacity="0.14" d="M490.89 226.244L355.708 454.103C354.911 455.447 355.355 457.183 356.7 457.98L524.184 557.191C525.529 557.987 527.266 557.544 528.064 556.2L663.246 328.34C664.043 326.996 663.599 325.26 662.254 324.463L494.77 225.252C493.424 224.456 491.687 224.899 490.89 226.244Z" fill="#3E479B"/>
<path d="M486.538 217.111L351.356 444.97C350.559 446.315 351.003 448.05 352.348 448.847L519.832 548.058C521.177 548.855 522.914 548.411 523.712 547.067L658.894 319.207C659.691 317.863 659.247 316.127 657.902 315.33L490.418 216.12C489.072 215.323 487.335 215.767 486.538 217.111Z" fill="#F7A9B4"/>
<path opacity="0.14" d="M567.935 545.286L376.462 510.019C374.916 509.728 373.906 508.26 374.181 506.715L422.241 246.216C422.532 244.671 424.001 243.662 425.547 243.937L617.02 279.204C618.565 279.495 619.576 280.963 619.3 282.508L571.241 543.007C570.95 544.552 569.481 545.562 567.935 545.286Z" fill="#3E479B"/>
<path d="M418.629 236.104L369.567 502.172L566.615 538.452L615.678 272.383L418.629 236.104Z" fill="white"/>
<path opacity="0.39" d="M418.116 238.886L370.08 499.39C369.797 500.927 370.814 502.402 372.352 502.685L563.83 537.939C565.368 538.222 566.845 537.206 567.128 535.669L615.164 275.166C615.448 273.629 614.431 272.153 612.893 271.87L421.414 236.616C419.876 236.333 418.4 237.349 418.116 238.886Z" fill="#F7A9B4"/>
<path d="M585.888 303.751C585.796 303.751 585.704 303.751 585.612 303.721L537.69 294.896C536.864 294.743 536.313 293.948 536.466 293.122C536.619 292.296 537.415 291.746 538.257 291.899L586.178 300.723C587.005 300.876 587.556 301.671 587.403 302.497C587.265 303.231 586.622 303.751 585.903 303.751H585.888Z" fill="white"/>
<path d="M583.072 319.06C582.98 319.06 582.888 319.06 582.796 319.03L534.875 310.205C534.048 310.052 533.497 309.257 533.65 308.431C533.803 307.605 534.599 307.055 535.425 307.208L583.347 316.032C584.174 316.185 584.725 316.98 584.572 317.806C584.434 318.54 583.791 319.06 583.072 319.06Z" fill="white"/>
<path d="M580.011 335.684C579.919 335.684 579.828 335.684 579.736 335.654L531.814 326.829C530.987 326.676 530.436 325.881 530.589 325.055C530.743 324.229 531.523 323.679 532.365 323.832L580.287 332.656C581.113 332.809 581.664 333.604 581.511 334.43C581.373 335.164 580.731 335.684 580.011 335.684Z" fill="white"/>
<path opacity="0.14" d="M437.531 242.859L421.256 331.117C420.95 332.779 422.049 334.374 423.712 334.68L505.837 349.8C507.499 350.106 509.096 349.008 509.402 347.346L525.677 259.088C525.983 257.426 524.883 255.832 523.221 255.525L441.096 240.405C439.434 240.099 437.837 241.198 437.531 242.859Z" fill="#3E479B"/>
<path d="M437.472 243.137L422.063 326.702C421.756 328.364 422.856 329.959 424.518 330.265L502.82 344.681C504.482 344.987 506.078 343.889 506.385 342.227L521.794 258.662C522.101 257 521.001 255.405 519.338 255.099L441.037 240.683C439.374 240.377 437.778 241.475 437.472 243.137Z" fill="#599AF2"/>
<path opacity="0.07" d="M520.365 266.571L436.047 251.048L437.516 243.08C437.807 241.459 439.368 240.388 440.991 240.694L519.554 255.162C521.115 255.453 522.141 256.952 521.85 258.496L520.365 266.571Z" fill="#ECF1F7"/>
<path d="M459.632 292.602C459.035 292.602 458.438 292.541 457.826 292.434L456.663 292.219C450.464 291.072 446.347 285.108 447.495 278.914L450.433 262.947C450.663 261.693 451.872 260.882 453.112 261.112C454.367 261.341 455.178 262.534 454.949 263.788L452.01 279.755C451.321 283.456 453.785 287.035 457.489 287.723L458.653 287.937C461.53 288.472 464.316 286.561 464.851 283.67L472.305 243.264C472.856 240.297 470.882 237.422 467.897 236.871L465.907 236.504C462.739 235.923 459.709 238.018 459.112 241.169L458.928 242.163C458.698 243.417 457.489 244.227 456.25 243.998C455.01 243.769 454.183 242.576 454.413 241.322L454.597 240.328C455.637 234.684 461.086 230.937 466.734 231.977L468.724 232.344C474.188 233.354 477.815 238.615 476.805 244.074L469.351 284.481C468.463 289.252 464.3 292.586 459.601 292.586L459.632 292.602Z" fill="#3E479B"/>
<path d="M467.607 258.665C467.607 258.665 467.515 258.665 467.469 258.665L436.873 253.037C436.46 252.96 436.184 252.563 436.261 252.15C436.337 251.737 436.735 251.446 437.149 251.538L467.744 257.166C468.158 257.243 468.433 257.64 468.357 258.053C468.295 258.42 467.974 258.68 467.607 258.68V258.665Z" fill="white"/>
<path d="M561.154 416.711C561.062 416.711 560.971 416.711 560.879 416.68L414.435 389.702C413.609 389.549 413.058 388.754 413.211 387.928C413.364 387.102 414.144 386.551 414.986 386.704L561.43 413.683C562.256 413.835 562.807 414.631 562.654 415.457C562.516 416.191 561.874 416.711 561.154 416.711Z" fill="white"/>
<path d="M550.685 473.466C550.594 473.466 550.502 473.466 550.41 473.436L403.966 446.458C403.14 446.305 402.589 445.509 402.742 444.668C402.895 443.842 403.691 443.276 404.517 443.445L550.961 470.423C551.787 470.576 552.339 471.371 552.185 472.212C552.048 472.946 551.405 473.466 550.685 473.466Z" fill="white"/>
<path d="M478.703 430.858C478.611 430.858 478.52 430.858 478.428 430.827L409.201 418.072C408.374 417.919 407.823 417.124 407.976 416.298C408.129 415.472 408.925 414.906 409.752 415.075L478.979 427.83C479.805 427.983 480.356 428.778 480.203 429.619C480.065 430.353 479.423 430.873 478.703 430.873V430.858Z" fill="white"/>
<path d="M488.239 379.15C488.147 379.15 488.055 379.15 487.963 379.119L418.736 366.364C417.91 366.211 417.359 365.416 417.512 364.59C417.665 363.764 418.461 363.213 419.287 363.366L488.514 376.121C489.341 376.274 489.892 377.07 489.739 377.911C489.601 378.645 488.958 379.165 488.239 379.165V379.15Z" fill="white"/>
<path d="M555.966 444.867C555.874 444.867 555.782 444.867 555.69 444.836L489.723 432.693C488.897 432.54 488.346 431.745 488.499 430.904C488.652 430.078 489.432 429.527 490.289 429.68L556.256 441.824C557.083 441.977 557.634 442.772 557.481 443.613C557.343 444.347 556.7 444.867 555.981 444.867H555.966Z" fill="white"/>
<path d="M540.461 106.858H459.05C456.235 106.858 453.954 109.139 453.954 111.951V139.159C453.954 141.972 456.235 144.252 459.05 144.252H540.461C543.276 144.252 545.557 141.972 545.557 139.159V111.951C545.557 109.139 543.276 106.858 540.461 106.858Z" fill="#599AF2"/>
<path d="M601.775 134.372H487.917C485.102 134.372 482.82 136.652 482.82 139.465V179.932C482.82 182.745 485.102 185.025 487.917 185.025H601.775C604.59 185.025 606.872 182.745 606.872 179.932V139.465C606.872 136.652 604.59 134.372 601.775 134.372Z" fill="#F7A9B4"/>
<path d="M639.212 174.319H513.125C509.304 174.319 506.207 177.414 506.207 181.232V219.834C506.207 223.652 509.304 226.747 513.125 226.747H639.212C643.033 226.747 646.13 223.652 646.13 219.834V181.232C646.13 177.414 643.033 174.319 639.212 174.319Z" fill="white"/>
<path opacity="0.74" d="M639.212 174.319H513.125C509.304 174.319 506.207 177.414 506.207 181.232V219.834C506.207 223.652 509.304 226.747 513.125 226.747H639.212C643.033 226.747 646.13 223.652 646.13 219.834V181.232C646.13 177.414 643.033 174.319 639.212 174.319Z" fill="#6D6CD4"/>
<path d="M601.714 206.68C598.362 206.68 595.637 203.958 595.637 200.609C595.637 197.259 598.362 194.537 601.714 194.537C605.065 194.537 607.79 197.259 607.79 200.609C607.79 203.958 605.065 206.68 601.714 206.68ZM601.714 196.066C599.203 196.066 597.168 198.101 597.168 200.609C597.168 203.117 599.203 205.151 601.714 205.151C604.224 205.151 606.259 203.117 606.259 200.609C606.259 198.101 604.224 196.066 601.714 196.066Z" fill="white"/>
<path d="M576.643 206.68C573.291 206.68 570.566 203.958 570.566 200.609C570.566 197.259 573.291 194.537 576.643 194.537C579.995 194.537 582.719 197.259 582.719 200.609C582.719 203.958 579.995 206.68 576.643 206.68ZM576.643 196.066C574.133 196.066 572.097 198.101 572.097 200.609C572.097 203.117 574.133 205.151 576.643 205.151C579.153 205.151 581.188 203.117 581.188 200.609C581.188 198.101 579.153 196.066 576.643 196.066Z" fill="white"/>
<path d="M553.256 206.68C549.904 206.68 547.18 203.958 547.18 200.609C547.18 197.259 549.904 194.537 553.256 194.537C556.608 194.537 559.332 197.259 559.332 200.609C559.332 203.958 556.608 206.68 553.256 206.68ZM553.256 196.066C550.746 196.066 548.71 198.101 548.71 200.609C548.71 203.117 550.746 205.151 553.256 205.151C555.766 205.151 557.802 203.117 557.802 200.609C557.802 198.101 555.766 196.066 553.256 196.066Z" fill="white"/>
<path d="M206.418 110.529H401.778C405.712 110.529 408.91 113.71 408.91 117.656V405.18C408.91 418.746 397.906 429.742 384.33 429.742H248.676C219.749 429.742 196.301 406.312 196.301 377.406V120.639C196.301 115.056 200.831 110.529 206.418 110.529Z" fill="white"/>
<path opacity="0.39" d="M198.796 110.529H405.084C407.196 110.529 408.91 112.242 408.91 114.353V406.327C408.91 419.266 398.426 429.742 385.478 429.742H244.024C217.667 429.742 196.301 408.392 196.301 382.056V113.007C196.301 111.63 197.418 110.529 198.78 110.529H198.796Z" fill="#6D6CD4"/>
<path opacity="0.39" d="M216.887 110.529H405.895C407.564 110.529 408.911 111.875 408.911 113.542V407.122C408.911 419.617 398.778 429.742 386.274 429.742H262.115C236.203 429.742 215.188 408.759 215.188 382.851V112.212C215.188 111.279 215.938 110.529 216.872 110.529H216.887Z" fill="#3E479B"/>
<path d="M244.865 429.681V429.742H415.629C435.282 429.742 451.215 413.821 451.215 394.184V380.68H278.522V394.184C278.522 413.179 263.63 428.687 244.865 429.696V429.681Z" fill="#6161B5"/>
<g opacity="0.28">
<path d="M267.502 429.681V429.742H419.532C437.026 429.742 451.215 413.821 451.215 394.184V380.68H297.47V394.184C297.47 413.179 284.2 428.687 267.502 429.696V429.681Z" fill="#3E479B"/>
</g>
<path d="M376.646 343.882H253.865C253.023 343.882 252.334 343.194 252.334 342.353C252.334 341.512 253.023 340.824 253.865 340.824H376.646C377.488 340.824 378.177 341.512 378.177 342.353C378.177 343.194 377.488 343.882 376.646 343.882Z" fill="white"/>
<path d="M379.217 292.22H251.568C250.726 292.22 250.038 291.532 250.038 290.691C250.038 289.85 250.726 289.162 251.568 289.162H379.217C380.058 289.162 380.747 289.85 380.747 290.691C380.747 291.532 380.058 292.22 379.217 292.22Z" fill="white"/>
<path d="M315.256 318.021H250.023C249.181 318.021 248.493 317.333 248.493 316.492C248.493 315.651 249.181 314.962 250.023 314.962H315.256C316.097 314.962 316.786 315.651 316.786 316.492C316.786 317.333 316.097 318.021 315.256 318.021Z" fill="white"/>
<path d="M310.312 318.021H254.967C254.125 318.021 253.436 317.333 253.436 316.492C253.436 315.651 254.125 314.962 254.967 314.962H310.312C311.153 314.962 311.842 315.651 311.842 316.492C311.842 317.333 311.153 318.021 310.312 318.021Z" fill="white"/>
<path d="M336.484 236.994H252.456C251.615 236.994 250.926 236.306 250.926 235.464C250.926 234.623 251.615 233.935 252.456 233.935H336.484C337.326 233.935 338.014 234.623 338.014 235.464C338.014 236.306 337.326 236.994 336.484 236.994Z" fill="white"/>
<path d="M375.437 236.994H349.846C349.004 236.994 348.315 236.306 348.315 235.464C348.315 234.623 349.004 233.935 349.846 233.935H375.437C376.279 233.935 376.967 234.623 376.967 235.464C376.967 236.306 376.279 236.994 375.437 236.994Z" fill="white"/>
<path d="M379.217 262.795H288.225C287.384 262.795 286.695 262.107 286.695 261.266C286.695 260.425 287.384 259.736 288.225 259.736H379.217C380.059 259.736 380.748 260.425 380.748 261.266C380.748 262.107 380.059 262.795 379.217 262.795Z" fill="white"/>
<path d="M279.241 262.795H251.568C250.726 262.795 250.038 262.107 250.038 261.266C250.038 260.425 250.726 259.736 251.568 259.736H279.241C280.082 259.736 280.771 260.425 280.771 261.266C280.771 262.107 280.082 262.795 279.241 262.795Z" fill="white"/>
<path d="M376.646 215.139H253.865C253.023 215.139 252.334 214.451 252.334 213.61C252.334 212.769 253.023 212.081 253.865 212.081H376.646C377.488 212.081 378.177 212.769 378.177 213.61C378.177 214.451 377.488 215.139 376.646 215.139Z" fill="white"/>
<path d="M376.646 163.477H253.865C253.023 163.477 252.334 162.789 252.334 161.947C252.334 161.106 253.023 160.418 253.865 160.418H376.646C377.488 160.418 378.177 161.106 378.177 161.947C378.177 162.789 377.488 163.477 376.646 163.477Z" fill="white"/>
<path d="M298.924 189.293H252.456C251.615 189.293 250.926 188.604 250.926 187.763C250.926 186.922 251.615 186.234 252.456 186.234H298.924C299.766 186.234 300.455 186.922 300.455 187.763C300.455 188.604 299.766 189.293 298.924 189.293Z" fill="white"/>
<path d="M375.712 189.293H320.367C319.525 189.293 318.836 188.604 318.836 187.763C318.836 186.922 319.525 186.234 320.367 186.234H375.712C376.554 186.234 377.242 186.922 377.242 187.763C377.242 188.604 376.554 189.293 375.712 189.293Z" fill="white"/>
<path opacity="0.21" d="M540.809 368.001C578.639 330.201 578.639 268.914 540.809 231.113C502.98 193.312 441.646 193.312 403.816 231.113C365.986 268.914 365.986 330.201 403.816 368.001C441.646 405.802 502.98 405.802 540.809 368.001Z" fill="white"/>
<path opacity="0.76" d="M396.406 306.52C393.023 306.52 390.284 303.782 390.284 300.402C390.284 251.569 430.048 211.851 478.903 211.851C482.285 211.851 485.025 214.589 485.025 217.969C485.025 221.349 482.285 224.086 478.903 224.086C436.782 224.086 402.528 258.329 402.528 300.402C402.528 303.782 399.788 306.52 396.406 306.52Z" fill="white"/>
<path opacity="0.58" d="M472.306 399.414C417.206 399.414 372.375 354.619 372.375 299.561C372.375 244.503 417.206 199.708 472.306 199.708C527.406 199.708 572.236 244.503 572.236 299.561C572.236 354.619 527.406 399.414 472.306 399.414ZM472.306 205.825C420.573 205.825 378.498 247.883 378.498 299.561C378.498 351.239 420.588 393.297 472.306 393.297C524.023 393.297 566.113 351.239 566.113 299.561C566.113 247.883 524.023 205.825 472.306 205.825Z" fill="#3E479B"/>
<path d="M561.354 368.919C561.491 368.781 561.66 368.659 561.813 368.536C576.567 349.45 585.353 325.53 585.353 299.561C585.353 237.178 534.737 186.601 472.306 186.601C409.874 186.601 359.259 237.178 359.259 299.561C359.259 361.945 409.874 412.521 472.306 412.521C498.203 412.521 522.034 403.789 541.089 389.152L554.16 376.092L561.338 368.919H561.354ZM472.321 396.356C418.813 396.356 375.452 353.013 375.452 299.561C375.452 246.109 418.828 202.767 472.321 202.767C525.814 202.767 569.19 246.109 569.19 299.561C569.19 353.013 525.814 396.356 472.321 396.356Z" fill="#3E479B"/>
<path d="M472.306 414.05C409.125 414.05 357.729 362.694 357.729 299.561C357.729 236.428 409.125 185.071 472.306 185.071C535.487 185.071 586.883 236.428 586.883 299.561C586.883 325.102 578.634 349.281 563.022 369.469L562.731 369.759C562.578 369.867 562.502 369.928 562.44 369.989L542.038 390.36C521.865 405.853 497.759 414.035 472.321 414.035L472.306 414.05ZM472.306 188.13C410.824 188.13 360.79 238.11 360.79 299.561C360.79 361.011 410.808 410.992 472.306 410.992C497.024 410.992 520.457 403.039 540.079 388.005L560.267 367.832C560.405 367.695 560.558 367.557 560.726 367.45C575.833 347.828 583.822 324.352 583.822 299.561C583.822 238.126 533.804 188.13 472.306 188.13ZM472.306 397.885C418.048 397.885 373.906 353.777 373.906 299.561C373.906 245.344 418.048 201.237 472.306 201.237C526.564 201.237 570.706 245.344 570.706 299.561C570.706 353.777 526.564 397.885 472.306 397.885ZM472.306 204.296C419.731 204.296 376.968 247.027 376.968 299.561C376.968 352.095 419.731 394.826 472.306 394.826C524.881 394.826 567.644 352.095 567.644 299.561C567.644 247.027 524.881 204.296 472.306 204.296Z" fill="#3E479B"/>
<path d="M558.553 386.567L554.175 382.193C552.492 380.511 552.492 377.773 554.175 376.091L541.104 389.152L540.89 389.366C539.207 391.048 539.207 393.786 540.89 395.468L546.217 400.79C547.977 397.854 553.104 392.103 558.568 386.567H558.553Z" fill="#4C65BA"/>
<path d="M554.175 376.091C552.492 377.774 552.492 380.511 554.175 382.194L558.553 386.568C563.848 381.23 569.42 376.122 572.557 373.996L567.461 368.903C565.915 367.359 563.496 367.252 561.813 368.521C561.66 368.643 561.491 368.75 561.354 368.903L554.175 376.076V376.091Z" fill="#4C65BA"/>
<path opacity="0.43" d="M554.175 376.091C552.492 377.774 552.492 380.511 554.175 382.194L558.553 386.568C563.848 381.23 569.42 376.122 572.557 373.996L567.461 368.903C565.915 367.359 563.496 367.252 561.813 368.521C561.66 368.643 561.491 368.75 561.354 368.903L554.175 376.076V376.091Z" fill="#3E479B"/>
<path d="M654.58 453.477L574.975 373.063C574.684 372.772 573.812 373.154 572.572 374.011C569.435 376.137 563.863 381.229 558.568 386.582C553.104 392.103 547.976 397.854 546.216 400.806C545.65 401.769 545.42 402.427 545.68 402.671L625.285 483.086C633.381 491.268 646.498 491.268 654.595 483.086C662.692 474.904 662.692 461.66 654.595 453.477H654.58Z" fill="#599AF2"/>
<path opacity="0.14" d="M654.58 453.478L574.976 373.063C573.905 371.978 564.828 380.099 557.038 388.128C550.411 394.949 646.484 491.254 654.58 483.087C662.677 474.905 662.677 461.661 654.58 453.478Z" fill="#3E479B"/>
<path d="M360.606 298.322H98.9417C83.6501 298.322 71.2539 310.706 71.2539 325.981C71.2539 341.257 83.6501 353.64 98.9417 353.64H360.606C375.897 353.64 388.293 341.257 388.293 325.981C388.293 310.706 375.897 298.322 360.606 298.322Z" fill="white"/>
<path d="M360.606 353.64H318.041L317.842 298.322H360.606C375.896 298.322 388.294 310.71 388.294 325.989C388.294 341.267 375.896 353.655 360.606 353.655V353.64Z" fill="#599AF2"/>
<path d="M349.846 335.67C343.173 335.67 337.739 330.241 337.739 323.573C337.739 316.904 343.173 311.475 349.846 311.475C356.519 311.475 361.953 316.904 361.953 323.573C361.953 326.8 360.698 329.843 358.402 332.122C356.121 334.401 353.075 335.67 349.846 335.67ZM349.846 314.534C344.856 314.534 340.8 318.587 340.8 323.573C340.8 328.558 344.856 332.611 349.846 332.611C352.264 332.611 354.529 331.678 356.244 329.965C357.958 328.252 358.892 325.989 358.892 323.573C358.892 318.587 354.836 314.534 349.846 314.534Z" fill="white"/>
<path d="M366.881 342.216C366.483 342.216 366.101 342.063 365.794 341.772L356.183 332.168C355.586 331.571 355.586 330.608 356.183 330.011C356.779 329.415 357.744 329.415 358.341 330.011L367.953 339.616C368.549 340.212 368.549 341.176 367.953 341.772C367.646 342.078 367.264 342.216 366.866 342.216H366.881Z" fill="white"/>
<path d="M364.339 410.777H234.089C224.967 410.777 217.59 403.39 217.59 394.29V383.478C217.59 374.332 210.166 366.93 201.029 366.93H140.863C131.71 366.93 124.302 374.347 124.302 383.478V555.273C124.302 563.792 131.205 570.689 139.73 570.689H364.339C372.865 570.689 379.767 563.792 379.767 555.273V426.193C379.767 417.675 372.865 410.777 364.339 410.777Z" fill="#F28393"/>
<path d="M349.998 410.777H219.748C210.626 410.777 203.248 403.39 203.248 394.29V383.478C203.248 374.332 195.825 366.93 186.688 366.93H126.522C117.369 366.93 109.961 374.347 109.961 383.478V555.273C109.961 563.792 116.864 570.689 125.389 570.689H350.013C358.539 570.689 365.441 563.792 365.441 555.273V426.193C365.441 417.675 358.539 410.777 350.013 410.777H349.998Z" fill="#F28393"/>
<path opacity="0.12" d="M349.998 410.777H219.748C210.626 410.777 203.248 403.39 203.248 394.29V383.478C203.248 374.332 195.825 366.93 186.688 366.93H126.522C117.369 366.93 109.961 374.347 109.961 383.478V555.273C109.961 563.792 116.864 570.689 125.389 570.689H350.013C358.539 570.689 365.441 563.792 365.441 555.273V426.193C365.441 417.675 358.539 410.777 350.013 410.777H349.998Z" fill="white"/>
<path opacity="0.12" d="M316.954 410.777H204.626C196.759 410.777 190.392 403.39 190.392 394.29V383.478C190.392 374.332 183.994 366.93 176.112 366.93H124.226C116.344 366.93 109.946 374.347 109.946 383.478V555.273C109.946 563.792 115.9 570.689 123.246 570.689H316.954C324.3 570.689 330.254 563.792 330.254 555.273V426.193C330.254 417.675 324.3 410.777 316.954 410.777Z" fill="white"/>
<path d="M121.976 427.967C121.135 427.967 120.446 427.279 120.446 426.438V388.907C120.446 383.095 125.175 378.37 130.991 378.37H175.316C176.158 378.37 176.847 379.058 176.847 379.899C176.847 380.74 176.158 381.428 175.316 381.428H130.991C126.859 381.428 123.507 384.778 123.507 388.907V426.438C123.507 427.279 122.818 427.967 121.976 427.967Z" fill="white"/>
</g>
<defs>
<filter id="filter0_d_229_949" x="0" y="0" width="710.99" height="677.178" filterUnits="userSpaceOnUse" color-interpolation-filters="sRGB">
<feFlood flood-opacity="0" result="BackgroundImageFix"/>
<feColorMatrix in="SourceAlpha" type="matrix" values="0 0 0 0 0 0 0 0 0 0 0 0 0 0 0 0 0 0 127 0" result="hardAlpha"/>
<feOffset dy="4"/>
<feGaussianBlur stdDeviation="2"/>
<feComposite in2="hardAlpha" operator="out"/>
<feColorMatrix type="matrix" values="0 0 0 0 0 0 0 0 0 0 0 0 0 0 0 0 0 0 0.25 0"/>
<feBlend mode="normal" in2="BackgroundImageFix" result="effect1_dropShadow_229_949"/>
<feBlend mode="normal" in="SourceGraphic" in2="effect1_dropShadow_229_949" result="shape"/>
</filter>
</defs>
</svg>
