<svg width="839" height="541" viewBox="0 0 839 541" fill="none" xmlns="http://www.w3.org/2000/svg">
<g filter="url(#filter0_d_450_886)">
<path d="M72.7113 531.176C72.7113 531.176 -28.1426 433.326 36.0206 318.204C100.184 203.083 186.357 260.977 182.187 126.987C178.017 -7.00332 380.373 -18.5136 444.786 20.3359C509.197 59.1886 508.812 105.98 641.779 90.4971C774.75 75.0144 800.15 204.073 765.557 269.849C716.476 363.171 901.78 347.778 785.017 531.173H72.7113V531.176Z" fill="#E3E4FE"/>
<path opacity="0.3" d="M515.602 300.929C515.602 300.929 537.031 210.14 609.325 200.159C609.325 200.159 623.39 198.43 628.073 213.913C632.756 229.396 604.79 229.508 587.504 235.735C570.219 241.961 529.917 268.361 515.602 300.929Z" fill="#AEC3FF"/>
<path opacity="0.3" d="M513.959 283.94C513.959 283.94 506.444 208.735 559.198 182.047C559.198 182.047 569.52 177.02 577.189 187.648C584.858 198.277 563.461 205.728 551.859 215.052C540.258 224.375 516.339 255.219 513.959 283.94Z" fill="#AEC3FF"/>
<path d="M834.041 529.849H4.95905C4.42938 529.849 4 530.278 4 530.807V531.173C4 531.702 4.42938 532.131 4.95905 532.131H834.041C834.571 532.131 835 531.702 835 531.173V530.807C835 530.278 834.571 529.849 834.041 529.849Z" fill="#2E3552"/>
<path d="M123.907 462.894C112.744 437.472 153.23 415.631 153.23 415.631C153.23 415.631 206.577 432.89 214.237 428.158C221.896 423.425 171.506 404.499 171.506 404.499C183.938 392.338 231.612 381.196 231.612 381.196C231.612 381.196 263.767 425.554 270.028 419.081C276.286 412.608 239.55 381.257 239.55 381.257C255.751 374.665 280.19 380.078 280.19 380.078C315.379 392.601 297.475 437.125 297.475 437.125C297.475 437.125 308.951 452.259 331.747 461.858C331.747 461.858 336.331 463.33 342.714 466.962L339.157 469.825C338.098 469.107 337.033 468.444 335.968 467.844C335.962 467.838 335.955 467.834 335.949 467.834C335.933 467.825 335.917 467.818 335.901 467.809C335.214 467.456 334.233 466.956 333.03 466.353C333.03 466.353 333.03 466.353 333.027 466.353C333.027 466.353 333.024 466.353 333.021 466.353C330.22 465.103 328.219 464.122 326.843 463.362C326.84 463.362 326.833 463.358 326.83 463.355C318.195 459.303 306.494 454.381 301.895 455.074C301.895 455.074 301.843 454.205 301.343 452.829C301.52 453.544 301.702 454.291 301.895 455.074C306.315 473.019 277.62 499.704 257.856 509.884C238.091 520.063 241.632 509.326 244.509 494.212C247.389 479.098 268.174 465.734 271.375 458.139C274.576 450.543 263.86 454.154 253.253 464.128C242.646 474.102 246.1 489.957 229.232 506.405C212.367 522.853 170.772 499.71 170.772 499.71C186.536 493.468 203.549 468.302 200.916 463.256C198.282 458.209 165.142 485.606 158.872 488.505C152.601 491.403 135.059 488.322 123.9 462.9L123.907 462.894Z" fill="#CDE0FB"/>
<path d="M633.619 493.458C649.9 474.256 620.375 444.798 620.375 444.798C620.375 444.798 569.546 445.994 564.112 439.899C558.682 433.804 607.372 430.392 607.372 430.392C599.715 416.609 561.174 394.589 561.174 394.589C561.174 394.589 521.744 424.817 517.978 417.571C514.216 410.328 554.258 392.588 554.258 392.588C541.887 382.668 519.245 381.046 519.245 381.046C485.419 382.825 489.451 426.151 489.451 426.151C489.451 426.151 475.559 436.33 453.263 438.777C453.263 438.777 448.898 438.87 442.409 440.377L444.76 443.785C445.867 443.432 446.964 443.131 448.045 442.887C448.051 442.884 448.058 442.881 448.064 442.884C448.08 442.881 448.096 442.877 448.112 442.874C448.802 442.746 449.78 442.563 450.983 442.355C450.983 442.355 450.983 442.355 450.986 442.355C450.986 442.355 450.989 442.355 450.992 442.355C453.751 441.992 455.743 441.659 457.138 441.354C457.141 441.354 457.148 441.354 457.151 441.351C465.705 440.062 477.147 438.812 480.964 440.607C480.964 440.607 481.236 439.864 482.025 438.799C481.688 439.376 481.332 439.976 480.964 440.607C472.476 455.058 490.499 485.674 505.042 499.633C519.582 513.593 519.287 503.346 520.698 489.467C522.11 475.587 507.506 458.597 506.691 451.165C505.876 443.737 514.254 449.646 520.887 461.06C527.524 472.471 520.416 485.356 530.815 504.013C541.213 522.67 583.351 513.321 583.351 513.321C571.265 503.818 562.999 477.546 566.595 473.84C570.19 470.133 591.895 502.519 596.594 506.658C601.294 510.801 617.334 512.66 633.616 493.458H633.619Z" fill="#CDE0FB"/>
<path opacity="0.5" d="M228.548 121.466C245.33 93.3186 294.084 117.224 294.084 117.224C294.084 117.224 314.07 180.293 323.872 184.407C333.674 188.517 317.319 127.147 317.319 127.147C337.53 130.751 380.927 168.895 380.927 168.895C380.927 168.895 360.338 230.191 370.849 231.765C381.36 233.34 386.31 176.561 386.31 176.561C403.755 187.6 415.309 214.782 415.309 214.782C427.398 257.168 372.325 270.496 372.325 270.496C372.325 270.496 365.647 291.894 372.049 320.369C372.049 320.369 373.778 325.781 374.66 334.402L369.467 332.95C369.432 331.44 369.342 329.965 369.185 328.528C369.185 328.519 369.185 328.512 369.182 328.503C369.182 328.484 369.175 328.461 369.175 328.442C369.044 327.541 368.851 326.255 368.604 324.687C368.604 324.687 368.604 324.684 368.604 324.681C368.604 324.678 368.604 324.678 368.604 324.675C367.889 321.125 367.459 318.535 367.244 316.688C367.244 316.682 367.244 316.675 367.244 316.672C365.22 305.598 361.929 290.987 358.106 287.047C358.106 287.047 358.908 286.399 359.883 284.979C359.315 285.639 358.725 286.325 358.106 287.047C343.887 303.597 298.565 294.334 275.227 282.33C251.892 270.326 264.639 266.367 281.142 258.768C297.644 251.169 324.738 261.971 334.236 259.839C343.733 257.707 332.914 249.89 316.055 246.54C299.197 243.189 286.322 257.38 258.952 252.458C231.579 247.537 225.305 191.723 225.305 191.723C242.116 202.586 277.966 201.669 281.013 195.68C284.06 189.69 235.001 176.648 227.919 172.611C220.834 168.574 211.769 149.616 228.551 121.469L228.548 121.466Z" fill="#CDE0FB"/>
<path d="M415.932 172.986C415.932 171.168 416.256 169.485 416.907 167.943C417.555 166.401 418.475 165.064 419.662 163.932C420.849 162.803 422.273 161.922 423.941 161.287C425.605 160.655 427.485 160.335 429.576 160.335C431.668 160.335 433.56 160.652 435.254 161.287C436.947 161.922 438.391 162.803 439.574 163.932C440.761 165.064 441.678 166.401 442.329 167.943C442.977 169.485 443.305 171.168 443.305 172.986C443.305 174.804 442.981 176.475 442.329 177.988C441.678 179.504 440.761 180.829 439.574 181.957C438.387 183.089 436.947 183.971 435.254 184.602C433.56 185.234 431.665 185.554 429.576 185.554C427.488 185.554 425.605 185.237 423.941 184.602C422.273 183.967 420.849 183.086 419.662 181.957C418.475 180.829 417.558 179.504 416.907 177.988C416.256 176.471 415.932 174.804 415.932 172.986ZM439.744 149.459H419.405L416.525 79.9937H442.625L439.744 149.459Z" fill="#F78248"/>
<path d="M354.521 105.079C354.521 103.684 354.771 102.392 355.268 101.209C355.765 100.026 356.471 99 357.382 98.1311C358.293 97.2654 359.386 96.5889 360.666 96.1016C361.946 95.6174 363.386 95.3706 364.99 95.3706C366.594 95.3706 368.047 95.6142 369.349 96.1016C370.651 96.5889 371.754 97.2654 372.665 98.1311C373.576 99 374.279 100.026 374.779 101.209C375.276 102.395 375.527 103.684 375.527 105.079C375.527 106.474 375.276 107.756 374.779 108.917C374.279 110.081 373.576 111.097 372.665 111.963C371.754 112.832 370.648 113.508 369.349 113.992C368.047 114.476 366.594 114.723 364.99 114.723C363.386 114.723 361.943 114.479 360.666 113.992C359.386 113.505 358.293 112.828 357.382 111.963C356.471 111.097 355.765 110.081 355.268 108.917C354.767 107.753 354.521 106.474 354.521 105.079ZM372.797 87.0216H357.186L354.976 33.709H375.007L372.797 87.0216Z" fill="#AEC3FF"/>
<path d="M657.753 195.16C657.753 193.766 658.003 192.473 658.5 191.29C658.997 190.107 659.703 189.081 660.614 188.212C661.525 187.347 662.619 186.67 663.899 186.183C665.178 185.699 666.619 185.452 668.222 185.452C669.826 185.452 671.279 185.696 672.578 186.183C673.88 186.67 674.984 187.347 675.895 188.212C676.806 189.081 677.508 190.107 678.008 191.29C678.506 192.477 678.756 193.766 678.756 195.16C678.756 196.555 678.506 197.837 678.008 198.998C677.508 200.162 676.806 201.178 675.895 202.044C674.984 202.913 673.877 203.589 672.578 204.073C671.279 204.561 669.823 204.804 668.222 204.804C666.622 204.804 665.175 204.561 663.899 204.073C662.619 203.586 661.525 202.91 660.614 202.044C659.703 201.178 658.997 200.162 658.5 198.998C658 197.834 657.753 196.555 657.753 195.16ZM676.029 177.103H660.418L658.208 123.79H678.239L676.029 177.103Z" fill="#AEC3FF"/>
<path d="M623.416 330.834C620.154 336.884 616.09 342.992 611.923 347.964C607.561 353.174 603.096 357.131 599.328 358.471L599.299 358.481C599.103 358.548 598.907 358.612 598.715 358.663C598.705 358.67 598.696 358.67 598.686 358.67C597.919 358.888 597.191 358.987 596.495 358.955C584.127 358.401 571.092 331.882 571.092 331.882C571.092 331.882 571.432 328.737 573.837 326.518C575.935 324.582 577.552 324.075 577.552 324.075C577.552 324.075 590.873 337.746 594.125 338.731C596.171 339.346 598.862 329.798 602.718 317.81C606.577 305.819 620.122 302.863 620.122 302.863C620.122 302.863 633.831 311.536 623.419 330.837L623.416 330.834Z" fill="#AEC3FF"/>
<path d="M611.923 347.964C607.561 353.174 603.096 357.131 599.327 358.471L599.298 358.481L598.715 358.663L598.683 358.673C598.817 358.58 602.852 356.49 603.484 352.607C604.132 348.641 599.934 345.396 610.483 339.263C616.629 335.688 611.923 347.961 611.923 347.961V347.964Z" fill="#94B0ED"/>
<path d="M602.27 529.849H631.256C633.331 528.441 630.695 514.677 630.695 514.677C630.695 514.677 622.785 511.676 621.418 517.778C620.049 523.876 611.34 525.816 606.734 526.559C603.581 527.072 602.584 528.804 602.27 529.849Z" fill="#24406D"/>
<path d="M646.471 387.179C646.471 387.179 645.557 404.082 644.415 423.669C643.591 437.712 642.654 453.137 641.853 464.689C641.747 466.222 641.638 467.687 641.538 469.072C641.509 469.502 641.477 469.928 641.445 470.355C639.37 496.257 632.429 518.951 632.429 518.951C624.279 520.669 620.6 517.527 620.6 517.527C620.6 517.527 614.983 451.743 612.905 425.211C611.375 405.679 610.069 377.243 610.069 377.243L646.475 387.179H646.471Z" fill="#FF9E55"/>
<path d="M644.415 423.669C643.591 437.712 642.655 453.137 641.853 464.689C636.525 452.127 625.639 403.162 625.639 403.162L644.415 423.669Z" fill="#ED7D2B"/>
<path d="M645.259 529.849H674.245C676.32 528.441 673.684 514.677 673.684 514.677C673.684 514.677 665.774 511.676 664.408 517.778C663.038 523.876 654.33 525.816 649.724 526.559C646.571 527.072 645.573 528.804 645.259 529.849Z" fill="#24406D"/>
<path d="M617.94 383.819C617.94 383.819 638.642 435.324 645.259 454.846C649.974 468.752 663.266 517.54 663.266 517.54C663.266 517.54 669.046 519.297 673.905 515.899C673.905 515.899 678.851 466.055 668.86 452.002C663.561 444.545 667.541 374.493 646.054 373.893C624.564 373.294 617.944 383.819 617.944 383.819H617.94Z" fill="#FF9E55"/>
<path d="M660.327 367.253C660.241 374.576 660.16 379.953 660.18 381.312C660.237 385.743 657.402 386.743 654.48 387.42C654.48 387.42 651.779 388 648.373 388.577C645.037 389.135 641.015 389.687 638.173 389.667C623.64 389.552 611.477 385.275 611.477 385.275C608.741 385.275 607.496 381.046 607.047 375.143C606.742 371.148 607.977 331.299 608.131 321.346C608.237 314.209 612.157 307.614 613.254 306.652C623.402 297.682 653.351 298.813 658.74 305.001C660.074 306.531 660.462 321.286 660.507 337.445C660.536 347.849 660.43 358.833 660.33 367.253H660.327Z" fill="#AEC3FF"/>
<path d="M642.346 301.449C638.523 305.591 625.683 304.975 626.062 301.362C626.113 300.916 626.197 298.271 626.238 297.861C626.27 297.531 626.302 297.21 626.328 296.905C626.415 296.014 626.485 295.229 626.543 294.546C626.713 292.564 626.771 291.49 626.771 291.49H626.784C627.152 291.388 635.409 289.044 639.514 288.072C640.893 287.745 641.808 287.575 641.792 287.694C640.531 296.915 643.597 300.092 642.343 301.452L642.346 301.449Z" fill="#FFB27D"/>
<path d="M639.953 290.792C639.953 290.792 636.505 294.293 626.546 294.546C626.716 292.565 626.774 291.491 626.774 291.491H626.786C627.155 291.388 635.411 289.044 639.517 288.073C640.239 288.371 639.283 290.298 639.953 290.795V290.792Z" fill="#ED975D"/>
<path d="M624.247 291C624.247 291 626.768 291.904 629.982 292.337C634.684 292.972 640.865 292.596 642.805 286.912C646.077 277.341 650.253 271.606 640.631 267.697C635.48 265.607 632.182 265.495 629.943 266.293C628 266.982 626.851 268.358 625.982 269.72C624.112 272.651 620.353 289.326 624.247 291Z" fill="#FFB27D"/>
<path d="M626.707 262.314C623.268 264.571 624.391 269.861 628.442 270.573C630.87 271 632.907 271.086 634.084 271.609C636.477 272.673 638.536 273.799 637.968 277.511C637.776 278.775 637.16 280.31 640.413 279.547C640.945 279.422 641.33 279.461 641.593 279.618C642.94 280.416 641.218 284.293 640.698 285.133C640.698 285.133 639.951 287.909 641.609 289.262C641.811 289.422 645.07 290.849 652.928 278.829C654.163 276.944 655.344 272.693 653.435 268.598C651.53 264.507 646.215 259.329 636.204 259.329C633.6 259.329 629.68 260.361 626.704 262.314H626.707Z" fill="#233862"/>
<path d="M660.327 367.253C658.865 374.047 659.237 374.117 656.995 372.335C647.853 365.073 650.525 361.267 652.555 354.973C654.586 348.679 647.456 338.836 652.555 334.639C657.54 330.539 660.382 337.15 660.507 337.445C660.536 347.849 660.43 358.833 660.33 367.253H660.327Z" fill="#94B0ED"/>
<path d="M660.103 366.378C660.103 366.378 656.659 372.011 654.4 371.812C652.142 371.613 649.092 370.77 647.334 372.45C645.573 374.13 642.738 378.459 643.53 379.613C644.322 380.767 647.511 379.744 649.801 378.481C652.091 377.218 655.696 379.103 657.621 377.67C659.542 376.237 664.145 370.539 664.145 370.539L660.107 366.381L660.103 366.378Z" fill="#FFB27D"/>
<path d="M658.74 305.001C658.74 305.001 687.335 331.898 683.621 349.789C681.928 357.942 676.68 364.819 662.686 375.955C662.686 375.955 656.065 371.383 654.612 367.67C654.612 367.67 667.314 349.789 666.823 346.743C666.224 343.017 657.554 333.671 654.442 332.219C651.331 330.766 651.617 308.121 658.74 305.001Z" fill="#AEC3FF"/>
<path d="M654.401 371.812C654.401 371.812 651.385 370.494 650.417 369.93C649.448 369.366 649.663 370.279 649.958 370.738C650.253 371.196 651.061 372.216 652.245 372.325C653.429 372.434 654.397 371.815 654.397 371.815L654.401 371.812Z" fill="#FFB27D"/>
<path d="M151.59 313.366C150.557 311.372 174.146 304.196 174.518 323.866C174.518 323.866 218.708 322.78 197.609 298.162C190.305 289.64 191.056 282.593 191.274 276.033C191.495 269.473 186.725 250.406 170.367 252.327C170.367 252.327 166.085 250.586 160.738 253.356C148.582 259.659 121.35 320.622 151.587 313.369L151.59 313.366Z" fill="#163560"/>
<path d="M223.834 331.42C223.834 331.42 226.711 327.044 229.027 326.957C231.346 326.871 235.638 325.668 235.295 326.528C234.952 327.387 232.289 327.47 232.033 327.987C231.776 328.503 235.981 329.272 237.184 329.359C238.387 329.445 241.219 329.359 241.132 329.958C241.046 330.558 236.026 333.049 232.482 332.706C228.941 332.363 224.559 333.735 224.559 333.735L223.831 331.417L223.834 331.42Z" fill="#FFB27D"/>
<path d="M182.235 332.837C182.235 332.837 183.797 335.931 186.636 339.487C190.055 343.767 195.325 348.708 201.942 349.686C205.102 350.151 208.194 349.471 211.036 348.211C211.042 348.211 211.045 348.211 211.045 348.211C219.08 344.646 225.123 336.444 225.123 336.444C226.541 332.581 224.222 329.964 224.222 329.964C224.222 329.964 207.995 333.613 206.449 332.84C204.903 332.068 195.402 310.997 193.689 307.489C190.052 300.028 184.279 297.89 184.279 297.89L182.235 332.84V332.837Z" fill="#AEC3FF"/>
<path d="M186.637 339.487C190.056 343.767 195.326 348.708 201.943 349.686C205.103 350.151 208.195 349.471 211.037 348.211C210.722 348.253 202.697 349.244 199.496 343.524C196.234 337.688 192.702 328.419 187.856 331.507C185.765 332.841 185.858 336.156 186.637 339.487Z" fill="#94B0ED"/>
<path d="M121.693 507.928C121.693 507.928 116.741 512.445 117.71 515.655C118.675 518.864 123.143 521.003 123.749 524.927C124.352 528.851 126.768 530.99 128.942 530.99H139.306C139.306 530.99 140.906 528.229 137.041 527.399C133.176 526.565 131.72 521.958 131.961 517.678C132.201 513.398 131.598 507.694 131.598 507.694L123.387 505.792L121.697 507.931L121.693 507.928Z" fill="#1D3356"/>
<path d="M163.603 509.848C163.603 509.848 161.823 528.983 163.994 530.054L191.813 529.996C191.813 529.996 191.813 526.787 187.345 526.072C182.877 525.36 175.028 522.744 173.697 516.918C172.369 511.092 163.6 509.845 163.6 509.845L163.603 509.848Z" fill="#1D3356"/>
<path d="M142.202 319.929C142.202 319.929 141.789 325.771 142.202 332.783C142.478 337.432 147.181 343.655 147.848 345.194C149.522 349.054 151.411 349.683 151.411 349.683L166.018 353.261L171.153 354.518L187.351 349.683C187.351 349.683 194.729 329.099 191.765 317.515C188.804 305.928 184.279 297.883 184.279 297.883C184.279 297.883 173.299 293.552 153.855 296.787L142.206 319.929H142.202Z" fill="#AEC3FF"/>
<path d="M146.479 334.681C146.754 339.33 147.181 343.655 147.848 345.197C149.522 349.057 151.412 349.686 151.412 349.686L166.019 353.264L172.363 351.401C172.363 351.401 151.184 348.192 153.532 329.98L146.479 334.681Z" fill="#F2CCAA"/>
<path d="M186.321 352.809C186.321 352.809 194.343 377.766 194.857 386.262C195.373 394.759 179.525 506.963 178.886 510.878C178.287 514.568 173.7 516.921 173.7 516.921C173.7 516.921 171.592 518.165 168.581 517.316C164.404 516.136 163.086 514.725 163.086 514.725C163.086 514.725 156.844 434.702 160.706 406.115C164.568 377.529 164.616 352.809 164.616 352.809H186.318H186.321Z" fill="#233862"/>
<path d="M152.338 352.065C152.338 352.065 140.104 368.474 138.962 379.567C137.821 390.661 137.173 429.623 134.745 440.437C132.313 451.252 123.387 472.06 123.387 505.789C123.387 505.789 124.314 507.722 127.181 508.752C128.099 509.082 129.324 509.399 130.517 509.675C132.881 510.217 135.306 509.063 136.384 506.892C142.42 494.744 161.646 455.564 162.634 447.43C163.333 441.675 169.402 403.582 182.646 381.228C185.824 375.861 180.695 354.521 180.695 354.521L152.344 352.065H152.338Z" fill="#2B478B"/>
<path d="M187.602 348.958C187.602 348.958 184.382 351.504 177.986 351.632C170.346 351.786 151.412 349.686 151.412 349.686C151.412 349.686 150.571 352.036 150.603 354.514C150.603 354.514 173.726 360.343 187.124 355.367C187.124 355.367 188.853 352.116 187.599 348.958H187.602Z" fill="#233862"/>
<path d="M176.33 354.268C176.33 352.094 177.895 350.324 179.817 350.324C181.738 350.324 183.303 352.094 183.303 354.268C183.303 356.441 181.738 358.211 179.817 358.211C177.895 358.211 176.33 356.441 176.33 354.268ZM177.485 354.268C177.485 355.807 178.53 357.057 179.817 357.057C181.103 357.057 182.148 355.807 182.148 354.268C182.148 352.729 181.103 351.478 179.817 351.478C178.53 351.478 177.485 352.729 177.485 354.268Z" fill="white"/>
<path d="M128.978 355.611L147.755 371.953C149.112 373.133 151.168 372.992 152.351 371.636L176.312 344.133C177.492 342.777 177.351 340.718 175.994 339.538L157.217 323.196C155.861 322.016 153.804 322.158 152.621 323.514L128.661 351.016C127.48 352.373 127.622 354.428 128.978 355.611Z" fill="#F78248"/>
<path d="M156.755 353.546C157.021 353.617 166.73 354.758 166.73 356.762C166.73 359.08 163.885 362.187 161.204 362.039C160.116 361.978 155.109 357.378 155.109 357.378L156.755 353.546Z" fill="#FFB27D"/>
<path d="M161.739 295.726C162.842 293.048 163.487 288.97 163.471 283.924L164.205 284.068L176.535 286.508C176.535 286.508 176.256 290.387 176.246 294.042C176.246 294.071 176.246 294.103 176.246 294.132C176.23 297.306 178.392 300.49 173.299 301.75C171.724 302.138 159.42 301.349 161.742 295.726H161.739Z" fill="#FFB27D"/>
<path d="M176.536 286.508C176.536 286.508 176.253 290.387 176.247 294.042C169.348 293.847 165.701 287.556 164.206 284.068L176.536 286.508Z" fill="#E8945B"/>
<path d="M178.838 289.967C178.838 289.967 162.512 290.237 162.503 280.073C162.49 269.906 160.376 263.096 170.8 262.493C181.225 261.891 183.252 265.767 184.083 269.159C184.913 272.551 183.088 289.634 178.842 289.967H178.838Z" fill="#FFB27D"/>
<path d="M178.235 262.247C178.235 262.247 173.764 274.174 166.907 275.937C160.046 277.7 157.072 275.863 157.072 275.863C157.072 275.863 162.333 271.686 163.426 264.392C163.426 264.392 174.868 256.572 178.239 262.25L178.235 262.247Z" fill="#163560"/>
<path d="M177.126 263.215C177.126 263.215 180.439 264.452 181.806 266.87C183.14 269.233 184.276 272.362 184.013 276.203C184.013 276.203 187.38 268.098 183.596 263.513C179.583 258.652 177.126 263.218 177.126 263.218V263.215Z" fill="#163560"/>
<path d="M156.754 353.546C156.754 353.546 159.08 352.799 160.635 353.017C162.191 353.235 163.339 352.985 163.339 353.421C163.339 353.857 161.331 354.059 160.905 354.268C160.478 354.476 156.751 353.546 156.751 353.546H156.754Z" fill="#FFB27D"/>
<path d="M153.852 296.787C153.852 296.787 142.263 297.598 137.821 308.393C133.379 319.189 124.949 337.31 124.949 340.359C124.949 343.408 129.658 352.806 154.943 358.211C154.943 358.211 157.557 355.46 157.4 353.287C157.4 353.287 141.615 339.734 141.657 338.15C141.737 335.155 144.246 331.199 158.102 317.342C161.871 313.575 153.849 296.784 153.849 296.784L153.852 296.787Z" fill="#AEC3FF"/>
<path d="M477.718 204.808H352.487C349.459 204.808 346.553 206.01 344.41 208.152L255.857 296.669C253.715 298.81 252.512 301.712 252.512 304.739V429.918C252.512 432.945 253.715 435.85 255.857 437.988L344.41 526.505C346.553 528.647 349.456 529.849 352.487 529.849H477.718C480.746 529.849 483.652 528.647 485.791 526.505L574.344 437.988C576.487 435.846 577.69 432.945 577.69 429.918V304.739C577.69 301.712 576.487 298.807 574.344 296.669L485.791 208.152C483.649 206.01 480.746 204.808 477.718 204.808Z" fill="#F78248"/>
<path d="M468.91 513.577H361.298C356.913 513.577 352.795 511.872 349.693 508.774L273.601 432.711C270.503 429.613 268.793 425.493 268.793 421.111V313.543C268.793 309.16 270.499 305.043 273.601 301.943L349.693 225.882C352.795 222.785 356.913 221.076 361.298 221.076H468.91C473.295 221.076 477.416 222.782 480.515 225.882L556.607 301.943C559.705 305.04 561.415 309.16 561.415 313.543V421.111C561.415 425.493 559.708 429.61 556.607 432.711L480.515 508.771C477.416 511.868 473.295 513.577 468.91 513.577ZM361.298 232.23C359.896 232.23 358.575 232.775 357.583 233.769L281.492 309.83C280.5 310.821 279.952 312.138 279.952 313.543V421.111C279.952 422.512 280.497 423.829 281.492 424.823L357.583 500.887C358.575 501.878 359.893 502.423 361.298 502.423H468.91C470.315 502.423 471.633 501.878 472.624 500.887L548.716 424.827C549.707 423.836 550.253 422.518 550.253 421.114V313.546C550.253 312.145 549.707 310.827 548.716 309.833L472.624 233.772C471.633 232.782 470.312 232.233 468.91 232.233H361.298V232.23Z" fill="#FFE5D4"/>
<path d="M501.896 371.421L499.705 369.523C494.198 364.755 485.791 365.361 481.021 370.866L468.637 385.163C466.867 387.205 463.511 385.955 463.511 383.252C463.511 382.12 463.451 380.998 463.332 379.895V289.894C463.332 283.981 458.495 279.147 452.58 279.147H451.785C445.87 279.147 441.033 283.981 441.033 289.894V348.471C441.033 349.891 439.882 351.045 438.458 351.045C436.889 351.045 435.616 349.773 435.616 348.205V278.55C435.616 272.837 430.939 268.162 425.223 268.162H423.709C417.994 268.162 413.317 272.837 413.317 278.55V348.667C413.317 349.981 412.249 351.049 410.934 351.049C409.26 351.049 407.9 349.692 407.9 348.016V292.119C407.9 286.207 403.063 281.372 397.148 281.372H396.352C390.438 281.372 385.601 286.207 385.601 292.119V348.468C385.601 349.891 384.446 351.045 383.022 351.045C381.457 351.045 380.183 349.776 380.183 348.208V304.123C380.183 298.211 375.346 293.376 369.432 293.376H368.636C362.722 293.376 357.885 298.211 357.885 304.123V381.527C357.885 381.742 357.894 381.953 357.907 382.168C357.894 382.527 357.885 382.889 357.885 383.252V425.859C357.885 443.176 372.059 457.344 389.383 457.344H432.007C443.086 457.344 452.879 451.547 458.495 442.839C460.192 440.21 462.026 437.671 464.079 435.304L503.237 390.097C508.006 384.592 507.4 376.188 501.893 371.421H501.896Z" fill="#FFE5D4"/>
</g>
<defs>
<filter id="filter0_d_450_886" x="0" y="0.868164" width="839" height="539.263" filterUnits="userSpaceOnUse" color-interpolation-filters="sRGB">
<feFlood flood-opacity="0" result="BackgroundImageFix"/>
<feColorMatrix in="SourceAlpha" type="matrix" values="0 0 0 0 0 0 0 0 0 0 0 0 0 0 0 0 0 0 127 0" result="hardAlpha"/>
<feOffset dy="4"/>
<feGaussianBlur stdDeviation="2"/>
<feComposite in2="hardAlpha" operator="out"/>
<feColorMatrix type="matrix" values="0 0 0 0 0 0 0 0 0 0 0 0 0 0 0 0 0 0 0.25 0"/>
<feBlend mode="normal" in2="BackgroundImageFix" result="effect1_dropShadow_450_886"/>
<feBlend mode="normal" in="SourceGraphic" in2="effect1_dropShadow_450_886" result="shape"/>
</filter>
</defs>
</svg>
