<svg width="478" height="747" viewBox="0 0 478 747" fill="none" xmlns="http://www.w3.org/2000/svg">
<line x1="279.042" y1="89.3491" x2="142.649" y2="89.3491" stroke="black" stroke-width="3"/>
<line x1="278.042" y1="289.269" x2="141.649" y2="289.269" stroke="black" stroke-width="3"/>
<line x1="279.042" y1="508.259" x2="142.649" y2="508.259" stroke="black" stroke-width="3"/>
<path d="M22.49 86.8703H32.54V90.0503H22.49V86.8703ZM9.2 95.0903H34.34V98.3603H9.2V95.0903ZM22.49 76.6103H32.42V79.7603H26.48V87.8003H22.49V76.6103ZM11.27 76.6103H21.14V79.7903H15.26V87.5603H11.27V76.6103ZM11.27 86.8703H13.01C16.25 86.8703 18.53 86.7803 21.23 86.2403L21.53 89.4503C18.74 89.9903 16.37 90.0503 13.01 90.0503H11.27V86.8703ZM56.0577 73.9703H60.0477V101.75H56.0577V73.9703ZM50.6877 84.6203H57.9777V87.8603H50.6877V84.6203ZM46.9377 76.8503H50.8677C50.8677 85.2803 48.1977 92.1503 38.5677 96.9803L36.4677 93.8603C44.3277 89.9603 46.9377 84.9203 46.9377 77.5703V76.8503ZM37.7877 76.8503H49.0377V80.0003H37.7877V76.8503ZM64.3953 87.4703H89.5653V90.6203H64.3953V87.4703ZM75.1653 89.5403H79.2153V95.3903H75.1653V89.5403ZM67.3353 98.0603H86.8053V101.27H67.3353V98.0603ZM67.3353 92.9603H71.3553V98.8703H67.3353V92.9603ZM76.9653 74.4803C82.9353 74.4803 86.9553 76.7303 86.9553 80.2403C86.9553 83.7803 82.9353 86.0003 76.9653 86.0003C70.9653 86.0003 66.9753 83.7803 66.9753 80.2403C66.9753 76.7303 70.9653 74.4803 76.9653 74.4803ZM76.9653 77.6303C73.4553 77.6303 71.2653 78.5303 71.2653 80.2403C71.2653 81.9503 73.4553 82.8203 76.9653 82.8203C80.4753 82.8203 82.6653 81.9503 82.6653 80.2403C82.6653 78.5303 80.4753 77.6303 76.9653 77.6303ZM118.196 73.9703H122.186V92.3903H118.196V73.9703ZM113.426 81.3203H118.766V84.5303H113.426V81.3203ZM109.046 76.0703H113.246C113.246 83.6603 109.316 88.6103 100.946 91.2503L99.2663 88.1303C106.226 86.0603 109.046 82.4903 109.046 77.8103V76.0703ZM100.706 76.0703H111.986V79.2503H100.706V76.0703ZM110.846 90.3503H114.236V91.2803C114.236 96.3803 110.486 100.52 103.706 101.69L102.176 98.5403C108.056 97.6403 110.846 94.4303 110.846 91.2803V90.3503ZM111.416 90.3503H114.806V91.2803C114.806 94.4003 117.566 97.6103 123.476 98.5103L121.886 101.66C115.106 100.52 111.416 96.3803 111.416 91.2803V90.3503Z" fill="black"/>
<path d="M8.23 296.22H33.37V299.46H8.23V296.22ZM18.76 290.07H22.75V296.97H18.76V290.07ZM10.84 276.93H30.61V290.58H10.84V276.93ZM26.71 280.11H14.77V287.43H26.71V280.11ZM35.8277 288.6H60.9677V291.78H35.8277V288.6ZM38.8577 283.17H58.2077V286.38H38.8577V283.17ZM38.8577 275.91H57.9677V279.06H42.8477V284.34H38.8577V275.91ZM38.7977 298.98H58.3877V302.19H38.7977V298.98ZM38.7977 293.88H42.7577V299.79H38.7977V293.88ZM80.8687 284.85H84.8287V289.83H80.8687V284.85ZM70.3387 288.18H95.4487V291.33H70.3387V288.18ZM82.8487 292.86C88.8787 292.86 92.4787 294.63 92.4787 297.78C92.4787 300.93 88.8787 302.67 82.8487 302.67C76.8187 302.67 73.1887 300.93 73.1887 297.78C73.1887 294.63 76.8187 292.86 82.8487 292.86ZM82.8487 295.86C79.0987 295.86 77.2387 296.46 77.2387 297.78C77.2387 299.13 79.0987 299.7 82.8487 299.7C86.5987 299.7 88.4587 299.13 88.4587 297.78C88.4587 296.46 86.5987 295.86 82.8487 295.86ZM80.1487 277.5H83.6887V278.19C83.6887 282.36 79.9387 285.75 72.7687 286.44L71.3887 283.29C77.4787 282.78 80.1487 280.35 80.1487 278.19V277.5ZM82.0987 277.5H85.6387V278.19C85.6387 280.35 88.2787 282.78 94.3987 283.29L93.0187 286.44C85.8787 285.75 82.0987 282.39 82.0987 278.19V277.5ZM72.6187 276.03H93.1987V279.18H72.6187V276.03ZM97.9363 291.18H123.106V294.33H97.9363V291.18ZM103.726 292.83H107.746V302.67H103.726V292.83ZM113.326 292.83H117.346V302.67H113.326V292.83ZM100.816 275.73H120.196V283.86H104.926V288.18H100.876V280.92H116.146V278.91H100.816V275.73ZM100.876 286.05H120.886V289.2H100.876V286.05Z" fill="black"/>
<path d="M15.29 499.08H18.38V500.52C18.38 506.37 15.89 512.28 10.85 514.53L8.69 511.47C13.22 509.4 15.29 504.69 15.29 500.52V499.08ZM16.16 499.08H19.25V500.52C19.25 504.48 21.2 508.92 25.55 511.02L23.42 514.05C18.53 511.8 16.16 506.1 16.16 500.52V499.08ZM9.65 496.41H24.77V499.56H9.65V496.41ZM15.26 492.51H19.25V498.03H15.26V492.51ZM26.96 491.88H30.98V519.66H26.96V491.88ZM30.08 502.65H35V505.95H30.08V502.65ZM54.5577 491.85H58.5777V519.63H54.5577V491.85ZM57.5277 502.47H62.4177V505.74H57.5277V502.47ZM47.2677 494.73H51.1677C51.1677 503.07 47.9877 510.21 38.7477 514.86L36.5277 511.83C43.8177 508.05 47.2677 502.95 47.2677 495.42V494.73ZM38.0577 494.73H49.3077V497.94H38.0577V494.73ZM64.3953 505.38H89.5653V508.53H64.3953V505.38ZM75.1653 507.45H79.2153V513.3H75.1653V507.45ZM67.3353 515.97H86.8053V519.18H67.3353V515.97ZM67.3353 510.87H71.3553V516.78H67.3353V510.87ZM76.9653 492.39C82.9353 492.39 86.9553 494.64 86.9553 498.15C86.9553 501.69 82.9353 503.91 76.9653 503.91C70.9653 503.91 66.9753 501.69 66.9753 498.15C66.9753 494.64 70.9653 492.39 76.9653 492.39ZM76.9653 495.54C73.4553 495.54 71.2653 496.44 71.2653 498.15C71.2653 499.86 73.4553 500.73 76.9653 500.73C80.4753 500.73 82.6653 499.86 82.6653 498.15C82.6653 496.44 80.4753 495.54 76.9653 495.54ZM118.196 491.88H122.186V510.3H118.196V491.88ZM113.426 499.23H118.766V502.44H113.426V499.23ZM109.046 493.98H113.246C113.246 501.57 109.316 506.52 100.946 509.16L99.2663 506.04C106.226 503.97 109.046 500.4 109.046 495.72V493.98ZM100.706 493.98H111.986V497.16H100.706V493.98ZM110.846 508.26H114.236V509.19C114.236 514.29 110.486 518.43 103.706 519.6L102.176 516.45C108.056 515.55 110.846 512.34 110.846 509.19V508.26ZM111.416 508.26H114.806V509.19C114.806 512.31 117.566 515.52 123.476 516.42L121.886 519.57C115.106 518.43 111.416 514.29 111.416 509.19V508.26Z" fill="black"/>
<ellipse cx="361.628" cy="631.884" rx="107.613" ry="107.608" fill="#59A2E6"/>
<path d="M305.319 46.297C352.141 1.42737 377.894 1.43217 422.942 46.297V549.302H305.319V46.297Z" fill="url(#paint0_linear_224_518)"/>
<path fill-rule="evenodd" clip-rule="evenodd" d="M299.142 549.302V549.559C263.997 565.789 259.646 597.626 259.646 633.136C259.646 668.828 264.243 699.024 299.686 715.185C373.685 713.87 433.158 666.221 433.158 607.634C433.158 586.133 425.149 566.106 411.352 549.302H299.142Z" fill="#64B3FB"/>
<path fill-rule="evenodd" clip-rule="evenodd" d="M299.063 65.0681C299.063 29.132 328.195 0 364.131 0C400.067 0 429.199 29.132 429.199 65.0681V539.681C458.699 560.257 478 594.442 478 633.136C478 696.021 427.019 747 364.131 747C301.243 747 250.262 696.021 250.262 633.136C250.262 594.442 269.563 560.257 299.063 539.681V65.0681ZM316.581 63.8127C316.581 37.5535 337.868 16.2663 364.128 16.2663C390.387 16.2663 411.674 37.5536 411.674 63.8127V549.368C440.836 566.089 460.482 597.526 460.482 633.551C460.482 687.107 417.064 730.523 363.505 730.523C309.947 730.523 266.529 687.107 266.529 633.551C266.529 597.016 286.734 565.199 316.581 548.666V63.8127Z" fill="#868080"/>
<defs>
<linearGradient id="paint0_linear_224_518" x1="364.131" y1="15.0152" x2="364.131" y2="549.301" gradientUnits="userSpaceOnUse">
<stop stop-color="#EA5B70"/>
<stop offset="0.5" stop-color="#FDD76F"/>
<stop offset="1" stop-color="#64B3FB"/>
</linearGradient>
</defs>
</svg>
