<svg width="452" height="652" viewBox="0 0 452 652" fill="none" xmlns="http://www.w3.org/2000/svg">
<line x1="223" y1="93" x2="114" y2="93" stroke="black" stroke-width="2"/>
<line x1="223" y1="256" x2="114" y2="256" stroke="black" stroke-width="2"/>
<line x1="223" y1="419" x2="114" y2="419" stroke="black" stroke-width="2"/>
<path d="M11.95 91.4H20.1V93.1H11.95V91.4ZM1.225 98.15H21.725V99.875H1.225V98.15ZM11.95 82.725H19.875V84.4H14.025V91.95H11.95V82.725ZM3.05 82.75H10.725V84.45H5.125V91.875H3.05V82.75ZM3.05 91.4H4.3C6.5 91.4 8.55 91.325 10.9 90.775L11.1 92.5C8.65 93.025 6.6 93.1 4.3 93.1H3.05V91.4ZM40.748 80.35H42.823V102.95H40.748V80.35ZM35.473 89.4H41.673V91.125H35.473V89.4ZM33.498 82.775H35.548C35.548 89.225 32.873 94.925 25.373 98.675L24.223 97.05C30.798 93.825 33.498 89.025 33.498 83.125V82.775ZM25.198 82.775H34.598V84.475H25.198V82.775ZM47.2211 91.8H67.7211V93.5H47.2211V91.8ZM56.5711 92.875H58.6711V98.075H56.5711V92.875ZM49.8211 100.725H65.4461V102.45H49.8211V100.725ZM49.8211 95.85H51.8961V101.2H49.8211V95.85ZM57.4461 80.9C62.2211 80.9 65.3711 82.65 65.3711 85.45C65.3711 88.25 62.2211 90 57.4461 90C52.6461 90 49.5211 88.25 49.5211 85.45C49.5211 82.65 52.6461 80.9 57.4461 80.9ZM57.4461 82.6C53.9961 82.6 51.7211 83.7 51.7211 85.45C51.7211 87.225 53.9961 88.3 57.4461 88.3C60.8961 88.3 63.1711 87.225 63.1711 85.45C63.1711 83.7 60.8961 82.6 57.4461 82.6ZM93.7754 80.35H95.8504V95.65H93.7754V80.35ZM88.9254 86.725H94.2004V88.425H88.9254V86.725ZM86.6754 82.125H88.8504C88.8504 87.975 85.0004 92.125 78.5254 94.225L77.6504 92.575C83.3754 90.775 86.6754 87.375 86.6754 82.95V82.125ZM78.7254 82.125H88.1504V83.825H78.7254V82.125ZM87.5254 93.7H89.3004V94.725C89.3004 99.05 85.3504 101.975 80.8254 102.9L80.0004 101.25C84.0004 100.525 87.5254 98.025 87.5254 94.725V93.7ZM87.8254 93.7H89.6004V94.725C89.6004 97.975 93.0754 100.475 97.1004 101.2L96.2254 102.85C91.7254 101.95 87.8254 99.025 87.8254 94.725V93.7Z" fill="black"/>
<path d="M1.25 261.35H21.725V263.075H1.25V261.35ZM10.4 255.5H12.475V261.825H10.4V255.5ZM3.625 245.225H19.225V255.875H3.625V245.225ZM17.225 246.9H5.65V254.2H17.225V246.9ZM24.248 254.75H44.673V256.45H24.248V254.75ZM26.823 250.575H42.323V252.3H26.823V250.575ZM26.823 244.325H42.123V246H28.898V251.15H26.823V244.325ZM26.848 263.725H42.523V265.45H26.848V263.725ZM26.848 258.825H28.923V264.175H26.848V258.825ZM63.4273 251.375H65.4773V255.575H63.4273V251.375ZM54.2523 254.6H74.6773V256.275H54.2523V254.6ZM64.4523 258.125C69.3023 258.125 72.2023 259.525 72.2023 262.025C72.2023 264.525 69.3023 265.9 64.4523 265.9C59.6023 265.9 56.7023 264.525 56.7023 262.025C56.7023 259.525 59.6023 258.125 64.4523 258.125ZM64.4523 259.725C60.9023 259.725 58.8023 260.55 58.8023 262.025C58.8023 263.5 60.9023 264.3 64.4523 264.3C68.0273 264.3 70.1023 263.5 70.1023 262.025C70.1023 260.55 68.0273 259.725 64.4523 259.725ZM63.1273 245.2H64.9773V245.875C64.9773 249.5 60.8273 251.95 56.1273 252.525L55.3773 250.85C59.4523 250.45 63.1273 248.425 63.1273 245.875V245.2ZM64.0023 245.2H65.8273V245.875C65.8273 248.425 69.5023 250.45 73.5773 250.85L72.8273 252.525C68.1523 251.95 64.0023 249.5 64.0023 245.875V245.2ZM56.1273 244.375H72.8523V246.05H56.1273V244.375ZM77.2504 256.8H97.7504V258.5H77.2504V256.8ZM82.5504 257.725H84.6504V265.95H82.5504V257.725ZM90.3254 257.725H92.4004V265.95H90.3254V257.725ZM79.7004 244.225H95.2504V250.05H81.8504V253.925H79.7504V248.45H93.1754V245.9H79.7004V244.225ZM79.7504 252.825H95.7754V254.5H79.7504V252.825Z" fill="black"/>
<path d="M6.75 411.725H8.375V413.65C8.375 418.425 5.775 422.825 2.2 424.6L1.025 423C4.35 421.4 6.75 417.55 6.75 413.65V411.725ZM7.15 411.725H8.775V413.65C8.775 417.3 11.05 420.975 14.275 422.575L13.125 424.175C9.6 422.425 7.15 418.15 7.15 413.65V411.725ZM1.65 410.275H13.775V411.95H1.65V410.275ZM6.725 406.75H8.775V411.2H6.725V406.75ZM16.525 406.35H18.625V428.95H16.525V406.35ZM18.125 415.625H22.325V417.35H18.125V415.625ZM39.523 406.325H41.623V428.95H39.523V406.325ZM41.048 415.5H45.223V417.225H41.048V415.5ZM33.748 408.775H35.773C35.773 415.2 32.823 421 25.523 424.675L24.373 423.075C30.623 419.9 33.748 415.075 33.748 409.1V408.775ZM25.423 408.775H34.823V410.475H25.423V408.775ZM47.2211 417.8H67.7211V419.5H47.2211V417.8ZM56.5711 418.875H58.6711V424.075H56.5711V418.875ZM49.8211 426.725H65.4461V428.45H49.8211V426.725ZM49.8211 421.85H51.8961V427.2H49.8211V421.85ZM57.4461 406.9C62.2211 406.9 65.3711 408.65 65.3711 411.45C65.3711 414.25 62.2211 416 57.4461 416C52.6461 416 49.5211 414.25 49.5211 411.45C49.5211 408.65 52.6461 406.9 57.4461 406.9ZM57.4461 408.6C53.9961 408.6 51.7211 409.7 51.7211 411.45C51.7211 413.225 53.9961 414.3 57.4461 414.3C60.8961 414.3 63.1711 413.225 63.1711 411.45C63.1711 409.7 60.8961 408.6 57.4461 408.6ZM93.7754 406.35H95.8504V421.65H93.7754V406.35ZM88.9254 412.725H94.2004V414.425H88.9254V412.725ZM86.6754 408.125H88.8504C88.8504 413.975 85.0004 418.125 78.5254 420.225L77.6504 418.575C83.3754 416.775 86.6754 413.375 86.6754 408.95V408.125ZM78.7254 408.125H88.1504V409.825H78.7254V408.125ZM87.5254 419.7H89.3004V420.725C89.3004 425.05 85.3504 427.975 80.8254 428.9L80.0004 427.25C84.0004 426.525 87.5254 424.025 87.5254 420.725V419.7ZM87.8254 419.7H89.6004V420.725C89.6004 423.975 93.0754 426.475 97.1004 427.2L96.2254 428.85C91.7254 427.95 87.8254 425.025 87.8254 420.725V419.7Z" fill="black"/>
<circle cx="330.57" cy="528.8" r="92.152" fill="#59A2E6"/>
<rect x="279.375" y="377.195" width="107.676" height="81.9129" fill="#64B3FB"/>
<rect x="279" y="51" width="108" height="408" fill="url(#paint0_linear_194_314)"/>
<path fill-rule="evenodd" clip-rule="evenodd" d="M268.371 459.108V459.328C238.311 473.211 218 499.683 218 530.057C218 560.588 238.521 587.176 268.837 601C332.13 599.875 383 559.118 383 509.004C383 490.613 376.149 473.482 364.348 459.108H268.371Z" fill="#64B3FB"/>
<path fill-rule="evenodd" clip-rule="evenodd" d="M249.725 81.4924C249.725 36.4854 286.21 0 331.217 0C376.224 0 412.709 36.4854 412.709 81.4924V440.323C436.741 462.604 451.801 494.572 451.801 530.087C451.801 597.418 397.672 652 330.901 652C264.129 652 210 597.418 210 530.087C210 494.262 225.325 462.045 249.725 439.74V81.4924ZM292.903 88.9485C292.903 67.9631 309.915 50.9511 330.901 50.9511C351.886 50.9511 368.898 67.9631 368.898 88.9485V459.405C392.605 473.308 408.623 499.818 408.623 530.236C408.623 575.068 373.825 611.412 330.901 611.412C287.976 611.412 253.179 575.068 253.179 530.236C253.179 499.818 269.197 473.308 292.903 459.405V88.9485Z" fill="#D9D9D9"/>
<defs>
<linearGradient id="paint0_linear_194_314" x1="333" y1="51" x2="333" y2="459" gradientUnits="userSpaceOnUse">
<stop stop-color="#EA5B70"/>
<stop offset="0.5" stop-color="#FDD76F"/>
<stop offset="1" stop-color="#64B3FB"/>
</linearGradient>
</defs>
</svg>
