<svg width="463" height="668" viewBox="0 0 463 668" fill="none" xmlns="http://www.w3.org/2000/svg">
<g filter="url(#filter0_d_149_6)">
<g filter="url(#filter1_d_149_6)">
<circle cx="333.57" cy="528.8" r="92.152" fill="#FFEB97"/>
<rect x="282.375" y="377.196" width="107.676" height="81.9129" fill="#FFD366"/>
<rect x="282.375" y="215.352" width="107.676" height="79.9311" fill="#FF9668"/>
<rect x="282.375" y="295.283" width="107.676" height="81.9129" fill="#F9B74A"/>
<rect x="282.375" y="132.778" width="107.676" height="82.5734" fill="#FF6948"/>
<rect x="282.375" y="50.8652" width="107.676" height="81.9129" fill="#C05A4F"/>
<path fill-rule="evenodd" clip-rule="evenodd" d="M252.725 81.4924C252.725 36.4854 289.21 0 334.217 0C379.224 0 415.709 36.4854 415.709 81.4924V440.323C439.741 462.604 454.801 494.572 454.801 530.087C454.801 597.418 400.672 652 333.901 652C267.129 652 213 597.418 213 530.087C213 494.262 228.325 462.045 252.725 439.74V81.4924ZM295.903 88.9485C295.903 67.9631 312.915 50.9511 333.901 50.9511C354.886 50.9511 371.898 67.9631 371.898 88.9485V459.405C395.605 473.308 411.623 499.818 411.623 530.236C411.623 575.068 376.825 611.412 333.901 611.412C290.976 611.412 256.179 575.068 256.179 530.236C256.179 499.818 272.197 473.308 295.903 459.405V88.9485Z" fill="#D9D9D9"/>
</g>
<line x1="226" y1="93" x2="117" y2="93" stroke="black" stroke-width="2"/>
<line x1="226" y1="256" x2="117" y2="256" stroke="black" stroke-width="2"/>
<line x1="226" y1="419" x2="117" y2="419" stroke="black" stroke-width="2"/>
<path d="M14.95 91.4H23.1V93.1H14.95V91.4ZM4.225 98.15H24.725V99.875H4.225V98.15ZM14.95 82.725H22.875V84.4H17.025V91.95H14.95V82.725ZM6.05 82.75H13.725V84.45H8.125V91.875H6.05V82.75ZM6.05 91.4H7.3C9.5 91.4 11.55 91.325 13.9 90.775L14.1 92.5C11.65 93.025 9.6 93.1 7.3 93.1H6.05V91.4ZM43.748 80.35H45.823V102.95H43.748V80.35ZM38.473 89.4H44.673V91.125H38.473V89.4ZM36.498 82.775H38.548C38.548 89.225 35.873 94.925 28.373 98.675L27.223 97.05C33.798 93.825 36.498 89.025 36.498 83.125V82.775ZM28.198 82.775H37.598V84.475H28.198V82.775ZM50.2211 91.8H70.7211V93.5H50.2211V91.8ZM59.5711 92.875H61.6711V98.075H59.5711V92.875ZM52.8211 100.725H68.4461V102.45H52.8211V100.725ZM52.8211 95.85H54.8961V101.2H52.8211V95.85ZM60.4461 80.9C65.2211 80.9 68.3711 82.65 68.3711 85.45C68.3711 88.25 65.2211 90 60.4461 90C55.6461 90 52.5211 88.25 52.5211 85.45C52.5211 82.65 55.6461 80.9 60.4461 80.9ZM60.4461 82.6C56.9961 82.6 54.7211 83.7 54.7211 85.45C54.7211 87.225 56.9961 88.3 60.4461 88.3C63.8961 88.3 66.1711 87.225 66.1711 85.45C66.1711 83.7 63.8961 82.6 60.4461 82.6ZM96.7754 80.35H98.8504V95.65H96.7754V80.35ZM91.9254 86.725H97.2004V88.425H91.9254V86.725ZM89.6754 82.125H91.8504C91.8504 87.975 88.0004 92.125 81.5254 94.225L80.6504 92.575C86.3754 90.775 89.6754 87.375 89.6754 82.95V82.125ZM81.7254 82.125H91.1504V83.825H81.7254V82.125ZM90.5254 93.7H92.3004V94.725C92.3004 99.05 88.3504 101.975 83.8254 102.9L83.0004 101.25C87.0004 100.525 90.5254 98.025 90.5254 94.725V93.7ZM90.8254 93.7H92.6004V94.725C92.6004 97.975 96.0754 100.475 100.1 101.2L99.2254 102.85C94.7254 101.95 90.8254 99.025 90.8254 94.725V93.7Z" fill="black"/>
<path d="M4.25 261.35H24.725V263.075H4.25V261.35ZM13.4 255.5H15.475V261.825H13.4V255.5ZM6.625 245.225H22.225V255.875H6.625V245.225ZM20.225 246.9H8.65V254.2H20.225V246.9ZM27.248 254.75H47.673V256.45H27.248V254.75ZM29.823 250.575H45.323V252.3H29.823V250.575ZM29.823 244.325H45.123V246H31.898V251.15H29.823V244.325ZM29.848 263.725H45.523V265.45H29.848V263.725ZM29.848 258.825H31.923V264.175H29.848V258.825ZM66.4273 251.375H68.4773V255.575H66.4273V251.375ZM57.2523 254.6H77.6773V256.275H57.2523V254.6ZM67.4523 258.125C72.3023 258.125 75.2023 259.525 75.2023 262.025C75.2023 264.525 72.3023 265.9 67.4523 265.9C62.6023 265.9 59.7023 264.525 59.7023 262.025C59.7023 259.525 62.6023 258.125 67.4523 258.125ZM67.4523 259.725C63.9023 259.725 61.8023 260.55 61.8023 262.025C61.8023 263.5 63.9023 264.3 67.4523 264.3C71.0273 264.3 73.1023 263.5 73.1023 262.025C73.1023 260.55 71.0273 259.725 67.4523 259.725ZM66.1273 245.2H67.9773V245.875C67.9773 249.5 63.8273 251.95 59.1273 252.525L58.3773 250.85C62.4523 250.45 66.1273 248.425 66.1273 245.875V245.2ZM67.0023 245.2H68.8273V245.875C68.8273 248.425 72.5023 250.45 76.5773 250.85L75.8273 252.525C71.1523 251.95 67.0023 249.5 67.0023 245.875V245.2ZM59.1273 244.375H75.8523V246.05H59.1273V244.375ZM80.2504 256.8H100.75V258.5H80.2504V256.8ZM85.5504 257.725H87.6504V265.95H85.5504V257.725ZM93.3254 257.725H95.4004V265.95H93.3254V257.725ZM82.7004 244.225H98.2504V250.05H84.8504V253.925H82.7504V248.45H96.1754V245.9H82.7004V244.225ZM82.7504 252.825H98.7754V254.5H82.7504V252.825Z" fill="black"/>
<path d="M9.75 411.725H11.375V413.65C11.375 418.425 8.775 422.825 5.2 424.6L4.025 423C7.35 421.4 9.75 417.55 9.75 413.65V411.725ZM10.15 411.725H11.775V413.65C11.775 417.3 14.05 420.975 17.275 422.575L16.125 424.175C12.6 422.425 10.15 418.15 10.15 413.65V411.725ZM4.65 410.275H16.775V411.95H4.65V410.275ZM9.725 406.75H11.775V411.2H9.725V406.75ZM19.525 406.35H21.625V428.95H19.525V406.35ZM21.125 415.625H25.325V417.35H21.125V415.625ZM42.523 406.325H44.623V428.95H42.523V406.325ZM44.048 415.5H48.223V417.225H44.048V415.5ZM36.748 408.775H38.773C38.773 415.2 35.823 421 28.523 424.675L27.373 423.075C33.623 419.9 36.748 415.075 36.748 409.1V408.775ZM28.423 408.775H37.823V410.475H28.423V408.775ZM50.2211 417.8H70.7211V419.5H50.2211V417.8ZM59.5711 418.875H61.6711V424.075H59.5711V418.875ZM52.8211 426.725H68.4461V428.45H52.8211V426.725ZM52.8211 421.85H54.8961V427.2H52.8211V421.85ZM60.4461 406.9C65.2211 406.9 68.3711 408.65 68.3711 411.45C68.3711 414.25 65.2211 416 60.4461 416C55.6461 416 52.5211 414.25 52.5211 411.45C52.5211 408.65 55.6461 406.9 60.4461 406.9ZM60.4461 408.6C56.9961 408.6 54.7211 409.7 54.7211 411.45C54.7211 413.225 56.9961 414.3 60.4461 414.3C63.8961 414.3 66.1711 413.225 66.1711 411.45C66.1711 409.7 63.8961 408.6 60.4461 408.6ZM96.7754 406.35H98.8504V421.65H96.7754V406.35ZM91.9254 412.725H97.2004V414.425H91.9254V412.725ZM89.6754 408.125H91.8504C91.8504 413.975 88.0004 418.125 81.5254 420.225L80.6504 418.575C86.3754 416.775 89.6754 413.375 89.6754 408.95V408.125ZM81.7254 408.125H91.1504V409.825H81.7254V408.125ZM90.5254 419.7H92.3004V420.725C92.3004 425.05 88.3504 427.975 83.8254 428.9L83.0004 427.25C87.0004 426.525 90.5254 424.025 90.5254 420.725V419.7ZM90.8254 419.7H92.6004V420.725C92.6004 423.975 96.0754 426.475 100.1 427.2L99.2254 428.85C94.7254 427.95 90.8254 425.025 90.8254 420.725V419.7Z" fill="black"/>
</g>
<defs>
<filter id="filter0_d_149_6" x="0.0249023" y="0" width="458.776" height="660" filterUnits="userSpaceOnUse" color-interpolation-filters="sRGB">
<feFlood flood-opacity="0" result="BackgroundImageFix"/>
<feColorMatrix in="SourceAlpha" type="matrix" values="0 0 0 0 0 0 0 0 0 0 0 0 0 0 0 0 0 0 127 0" result="hardAlpha"/>
<feOffset dy="4"/>
<feGaussianBlur stdDeviation="2"/>
<feComposite in2="hardAlpha" operator="out"/>
<feColorMatrix type="matrix" values="0 0 0 0 0 0 0 0 0 0 0 0 0 0 0 0 0 0 0.25 0"/>
<feBlend mode="normal" in2="BackgroundImageFix" result="effect1_dropShadow_149_6"/>
<feBlend mode="normal" in="SourceGraphic" in2="effect1_dropShadow_149_6" result="shape"/>
</filter>
<filter id="filter1_d_149_6" x="205" y="0" width="257.801" height="668" filterUnits="userSpaceOnUse" color-interpolation-filters="sRGB">
<feFlood flood-opacity="0" result="BackgroundImageFix"/>
<feColorMatrix in="SourceAlpha" type="matrix" values="0 0 0 0 0 0 0 0 0 0 0 0 0 0 0 0 0 0 127 0" result="hardAlpha"/>
<feOffset dy="8"/>
<feGaussianBlur stdDeviation="4"/>
<feComposite in2="hardAlpha" operator="out"/>
<feColorMatrix type="matrix" values="0 0 0 0 0 0 0 0 0 0 0 0 0 0 0 0 0 0 0.25 0"/>
<feBlend mode="normal" in2="BackgroundImageFix" result="effect1_dropShadow_149_6"/>
<feBlend mode="normal" in="SourceGraphic" in2="effect1_dropShadow_149_6" result="shape"/>
</filter>
</defs>
</svg>
